<?xml version="1.0" standalone="no"?>
<!DOCTYPE svg PUBLIC "-//W3C//DTD SVG 1.1//EN" "http://www.w3.org/Graphics/SVG/1.1/DTD/svg11.dtd" >
<svg xmlns="http://www.w3.org/2000/svg" xmlns:xlink="http://www.w3.org/1999/xlink" version="1.1">
<metadata></metadata>
<defs>
<font id="edmundsdistressed" horiz-adv-x="1241" >
<font-face units-per-em="2048" ascent="1638" descent="-410" />
<missing-glyph horiz-adv-x="460" />
<glyph horiz-adv-x="0" />
<glyph horiz-adv-x="682" />
<glyph unicode=" "  horiz-adv-x="460" />
<glyph unicode="&#x09;" horiz-adv-x="460" />
<glyph unicode="&#xa0;" horiz-adv-x="460" />
<glyph unicode="!" horiz-adv-x="561" d="M33 1483q0 18 20 18l410 -22q16 0 16 -17l10 -147q-11 -30 -22 -86q4 0 8.5 2t7.5 2q12 0 17 -19l6 -86q0 -17 -14 -20l-91 -23l-47 -636q-3 -19 -16 -19q-6 0 -10 2l-117 51q-10 0 -10 15l-33 211q0 13 28.5 46.5t28.5 49.5q0 21 -20.5 34t-41 21.5t-20.5 18.5l-24 174 l-60 32q-10 3 -10 17l-8 201q0 12 6 14l27 22q-35 0 -35 21zM68 164q0 9 10.5 18.5t32.5 24t28 18.5l82 60l-98 -6q-19 0 -19 18q0 5 5 10l20 23q24 27 60.5 43t72.5 18h12q59 0 120 -34t61 -72q0 -14 -13 -46t-14 -38q3 1 17 9.5t20 8.5q7 0 12.5 -5.5t5.5 -12.5v-31 q0 -81 -62.5 -133t-146.5 -57q-62 5 -113 38.5t-77 87.5q-14 43 -16 58z" />
<glyph unicode="&#x22;" horiz-adv-x="768" d="M41 1583q0 21 20 21l273 -43q14 -3 14 -17l-76 -659q-3 -19 -18 -19q-4 0 -6 2l-96 25q-13 3 -13 16l-39 254q53 76 56 82l-43 -10q-4 -2 -9 -2q-13 0 -16 18zM360 1530q0 8 5 15t12 7l305 19q20 0 20 -17l-28 -180q0 -11 -10 -14l-74 -45h51q18 0 18 -19l-61 -393 q-3 -16 -18 -16l-68 2q-15 0 -18 14z" />
<glyph unicode="#" horiz-adv-x="884" d="M25 559q0 6 2 10l34 88q3 13 19 13l117 -6l10 24q0 10 10 10l-6 -6l10 6h-4q21 9 21 31v4q0 1 -1 3.5t-2 7.5l-2 10l23 57l-106 12q-21 3 -21 17q0 4 2 8l31 90q3 12 18 12l115 -6l8 23q1 7 31.5 18.5t30.5 36.5q0 2 -1 4.5t-2 6.5t-2 7l-18 11q-6 3 -6 10q0 1 1 4.5 t1 5.5l12 37q3 12 19 12l123 -6q6 0 11 -5.5t5 -12.5t-2 -9l-60 -147l142 10l63 158q3 10 17 10l96 -4q6 0 11 -7t5 -15l-22 -60q-4 -12 -28.5 -23t-24.5 -32q0 -7 7 -17t7 -14l115 10q8 0 14 -6t6 -12t-2 -8l-37 -101q-3 -12 -16 -12l-119 2l-59 -151l108 -9q6 0 11 -6.5 t5 -13.5l-24 -86q-3 -14 -16 -14l-119 -7l-17 -51q-2 -9 -12 -12.5t-23 -3.5h-14l25 -35q4 -4 4 -10l-19 -66q-3 -12 -16 -12l-113 18q-14 3 -14 13q0 6 2 10l49 141l-47 4q-4 0 -8 2t-6 4t-5.5 6t-4.5 5l-2 -4q-7 -11 -19 -11l-57 5l-33 -156q-4 -11 -14 -14l-113 -19 q-25 0 -25 16q0 7 2 9l56 172h-119q-18 0 -18 16zM207 686q0 1 1.5 2.5t2.5 3.5l-4 -4v-2zM336 662l147 6l29 73q2 1 16 15l-2 4q-4 0 -4 8q0 6 2 10l15 39h-144z" />
<glyph unicode="$" horiz-adv-x="1087" d="M31 526v2q0 8 5.5 13.5t12.5 5.5l189 -8q69 -48 69 -68q0 -11 -3 -24t-8 -29t-7 -25q5 7 15 24.5t18 29.5t12 12q6 0 10 -2q66 -27 139 -27v43q0 5 18.5 32t18.5 48q0 25 -18.5 44.5t-18.5 25.5v57h-10q-440 40 -440 326q0 31 11.5 69.5t29.5 38.5l49 -10q-2 12 -19 22 l-8 9q-6 6 -6 12q0 21 66 74h-2q102 85 329 94v102q0 5 10 16.5t25 27.5t23 28l32 4q7 0 13 -6t6 -12l-6 -170q4 2 18 2h17q21 0 96.5 -17t75.5 -35q0 -13 -4.5 -42t-4.5 -42l50 60q5 8 14 8q6 0 10 -2q160 -95 160 -303q0 -16 -14 -19l-183 -41q-7 0 -14 11 q-24 37 -46.5 59.5t-51 34t-50.5 15t-65 7.5l4 -63q0 -8 -8 -16l-17 -13l2 -2q4 2 11 2q11 0 14 -16l4 -59q199 -30 296 -91.5t124 -187.5l-2 2q14 -35 14 -82q0 -69 -45 -143q-20 -33 -53 -70t-53 -37q-7 0 -13 6l-51 43q2 -7 8.5 -21.5t11.5 -26t5 -15.5 q0 -21 -73.5 -41.5t-174.5 -34.5v-127q0 -18 -16 -18l-86 -8q-17 0 -17 18l-4 135q-82 7 -139.5 20t-113 39.5t-91 68t-62 107t-38.5 156.5zM348 926q0 -22 21 -37h-2q31 -17 112 -37l2 154l-32 -5q-49 -6 -75 -28t-26 -47zM588 657l18 -215q43 11 78 41.5t35 61.5 q0 15 -19 51l2 -2q-29 37 -114 63z" />
<glyph unicode="%" horiz-adv-x="1198" d="M47 1075v21q0 173 82 282t197 125q124 -3 192 -110l12 -23v2q13 -22 19 -35l-4 -16v-10q0 -17 2 -21q1 0 4.5 1t5.5 1q35 0 57 -192q-3 -184 -77 -296t-203 -112h-17q-37 0 -47.5 9t-15.5 42q-41 -18 -43 -18q-4 0 -8 4q-61 47 -108.5 144.5t-47.5 201.5zM119 0q0 6 2 8 l186 334q3 10 15 10q11 0 17.5 -16t10.5 -45.5t6 -36.5l-98 -166l-108 -102q-6 -6 -13 -6t-12.5 6t-5.5 14zM168 1098q0 -62 42 -119t97 -57q1 0 7 1t10 1h4q59 0 107 51.5t48 116.5v8q-9 117 -100 160l-4 4q-4 8 -4 12v18q0 13 -2 19l-19 -29q-7 -10 -16 -10q-10 0 -14 2 q-65 0 -108 -51.5t-48 -126.5zM377 467l598 1071q6 12 16 12t17 -10l49 -59q4 -8 4 -13q0 -2 -1 -4.5t-1 -3.5l-631 -1083q-6 -12 -16 -12q-7 0 -12 6t-8.5 18.5t-5.5 22.5t-5 28.5t-4 26.5zM586 391v25q0 151 82.5 265t187.5 114h21q29 0 66.5 -13t37.5 -32v-15 q0 -17 4 -49q7 2 23 11.5t24 9.5q5 0 12 -7l15 -16q86 -123 94 -293q-2 -64 -13 -126t-32 -62q-6 0 -8 2l-19 6q-8 -21 -8 -39q0 -14 4 -33t4 -20q0 -36 -43 -68.5t-90 -49.5t-80 -21q-131 0 -200 109.5t-82 301.5zM707 391q0 -69 39.5 -117.5t99.5 -56.5q5 0 11.5 -11.5 t16 -27.5t19.5 -24q7 8 16.5 40.5t14.5 36.5q92 50 92 160v12q0 63 -47.5 113.5t-98.5 50.5q-8 0 -24.5 15t-24.5 18q-12 -17 -49 -60.5t-51 -74t-14 -74.5z" />
<glyph unicode="&#x26;" horiz-adv-x="1308" d="M125 430q0 10 33 43l-27 43q12 111 47 186.5t117 157.5q28 3 49 12q-8 3 -8 15q0 8 8 16l109 70q-9 59 -9 127q0 84 25 155l-2 -2q3 12 13 29.5t22 17.5q9 0 18 -2t12 -2q15 0 21 2l-25 56q-2 4 -2 8q0 6 4 10l17 23q61 86 201 86q46 0 90 -29l-2 2q22 -12 43.5 -33 t21.5 -35q0 -7 -12.5 -27t-14.5 -24l29 15q2 2 8 2q31 0 31 -109v-14q-3 -81 -55 -150q-88 -121 -113 -121l-10 5l-16 12l6 -31q0 -8 -9 -14q-40 -32 -98 -62v-2q16 -30 40 -108t44 -117l23 -43v2q34 -76 73 -123q7 11 29 36t34.5 51t14.5 61l-57 4q-19 0 -19 18v187 q0 18 19 18l158 2q8 0 15.5 -14t16.5 -37.5t15 -34.5q6 10 16.5 35t18.5 38t16 13l84 2q18 0 18 -18l-4 -187q0 -18 -18 -18l-92 -2q-2 -7 -7 -28.5t-10 -35.5t-12 -16l-107 -57q6 -2 17 -4.5t19 -5t16.5 -5.5t13 -7.5t4.5 -10.5q0 -5 -9.5 -24.5t-15.5 -26.5l-10 -21 q5 0 17.5 -1t17.5 -1q26 9 75 12t89 10.5t61 28.5q6 6 13 6q18 0 18 -20l-6 -102q-40 -43 -68 -91q33 -32 37 -34h-2q25 0 25 -23l-8 -141q0 -4 -11.5 -14t-32.5 -19.5t-40 -9.5q-8 0 -15 10l-6 8l-14 21l-33 -17l6 -20q2 -4 2 -10q0 -11 -40.5 -18t-78.5 -7h-41 q-115 0 -208 76q-52 -27 -62 -27q-9 0 -15.5 14.5t-13 37.5t-12.5 34l-51 -100q-12 -12 -41 -12h-27q-60 0 -116 12l-17 4q-8 2 -18.5 2.5t-13.5 3t-3 10.5q0 7 2 11v10q0 15 -8 26t-24 11h-6q-8 -3 -19.5 -12t-15.5 -9q-9 0 -15 6l-8 8q-122 113 -137 336zM346 446h12 q5 0 20 8.5t21 8.5q8 0 13 -8l6 -6h-2q54 -46 139 -46h14q-1 1 -16 37l-10 27q-4 8 -4 14v11q43 46 51 83l8 9q-8 5 -8 12q-3 24 -17.5 36t-31 13.5t-31 6t-16.5 14.5l-5 22q-6 30 -10 82q-39 -42 -69.5 -104t-30.5 -119v-17q-21 -32 -33 -84zM639 1096q66 34 66 53 q0 5 -11 12h-2q-29 0 -53 -65z" />
<glyph unicode="'" horiz-adv-x="417" d="M8 1534q0 18 17 18l311 21q20 0 20 -17l-30 -202q-86 -86 -93 -94l-47 -46q34 6 95 21q9 0 15.5 -7.5t6.5 -15.5l-49 -309q-3 -16 -18 -16l-78 2q-16 0 -19 14l-67 324q0 1 -1 2t-1 2q0 4 8 12l4 6l-23 33z" />
<glyph unicode="(" horiz-adv-x="372" d="M18 672v35q0 157 21 311q48 39 104 76q-5 2 -18 6.5t-22 8t-19.5 8.5t-16.5 10.5t-6 11.5v10q5 5 9 35q47 182 127 284v2q54 63 114 66q21 0 21 -18l-2 -269q0 -12 -11 -16q-53 -22 -87.5 -186t-34.5 -418q0 -40 4 -94q-69 -75 -101 -105l88 23q4 2 11 2q1 0 16.5 -39 t37.5 -87.5t36 -66.5q5 -13 16 -19t19 -10t8 -14l-2 -260q0 -18 -19 -18q-27 0 -79 36t-52 66q0 4 2 8l49 129q-8 -6 -27.5 -23.5t-34.5 -28.5t-24 -11q-17 0 -39.5 63.5t-37.5 126.5v2l-19 88l-2 2q0 5 2 7q-4 4 -4 8q-27 132 -27 258z" />
<glyph unicode=")" horiz-adv-x="399" d="M63 240q0 8 50 45.5t80 50.5l-9 35h-6q-20 0 -20 16q0 4 2 8q43 116 43 264v43q0 135 -37 324l-10 55q4 5 12 27l16 33q-16 -13 -32 -13q-8 0 -13 12t-9.5 31t-6.5 25l2 -2l-4 10q-12 16 -23.5 24.5t-17.5 10.5t-10 6t-4 12l-3 256q0 19 21 19q38 -2 81 -42t81.5 -108.5 t66 -176t33.5 -230.5q0 -63 8 -107q0 -9 -15.5 -24t-39.5 -34t-31 -26q13 -3 38.5 -3.5t39.5 -4t14 -14.5l2 -29q0 -8 1.5 -26.5t1.5 -30.5q0 -197 -53 -392t-122 -278l-2 -2q-57 -61 -102 -61q-8 0 -14 5.5t-6 12.5z" />
<glyph unicode="*" horiz-adv-x="768" d="M23 1130l22 115q3 15 14 15q7 0 13 -3l215 -79l-23 79q8 18 8 41q0 19 -14 31t-16 17l-21 81q0 18 17 21l112 18q16 0 19 -16l39 -223l18 20q6 6 12 6q4 0 17 -8t22 -8q11 0 16.5 7.5t6 14.5t0.5 21v2v2v14q0 11 -2 17q0 4 4 16l51 55q7 7 12 7q6 0 13 -7l90 -79 q8 -12 8 -15q0 -4 -8 -12l-154 -137l92 -23q15 -10 15 -20q0 -3 -5 -8l-34 -54l125 52q1 0 4 1t4 1q16 0 16 -21l-14 -113q-4 -16 -19 -16q-4 0 -6 2l-135 51l-18 9l-47 18l61 -240q0 -12 -12 -18l-113 -35q-4 -2 -10 -2q-12 0 -15 16l-12 54l29 90q-5 -2 -16.5 -11.5 t-16.5 -9.5q-11 0 -18 17l-25 88l-129 -187q-5 -8 -14 -8t-15 6l-98 99q-6 6 -6 12t6 12l168 160l-96 22q-15 3 -15 17q0 10 7 29q-4 -3 -14.5 -11t-16 -11.5t-13 -7t-12.5 -3.5l-59 14q-14 3 -14 16z" />
<glyph unicode="+" horiz-adv-x="565" d="M12 831q0 7 6 13t13 6h28q10 0 17 -14t17 -28.5t28 -14.5q13 0 22 22v-2q1 3 1 15t4 19t14 7h14l4 170q0 18 19 18l161 2q17 0 17 -18l2 -166l49 -4q16 -3 16 -16q0 -3 -8 -43q3 3 17.5 18t26.5 25t20 10h14q18 0 18 -19l9 -190q0 -18 -17 -18l-139 14l-6 -188 q0 -19 -19 -19l-163 -6q-19 0 -19 18l-2 84q9 21 23 35h-6q-19 0 -19 19v45l-121 -9q-17 0 -20 17z" />
<glyph unicode="," horiz-adv-x="489" d="M43 184q4 91 63 146.5t148 60.5q19 -7 29 -15t12 -14.5t5 -24.5t7 -30q2 2 10 16t17.5 25.5t15.5 11.5q4 0 12 -4q5 -4 18 -14t17 -13.5t13.5 -12t13 -13.5t10 -14.5t9 -18.5t5.5 -21.5t4 -27t1 -31.5v-26q0 -21 -2 -31q-2 -26 -16.5 -63t-28.5 -37l-29 -6q0 -5 3 -13.5 t3 -13.5q0 -8 -4 -10l-14 -17q-164 -157 -275 -157q-10 0 -12 10l-15 27q-2 2 -2 8q0 9 13 16q110 49 110 111v2q-55 23 -82 53h-2q-6 6 -6 14q0 5 13.5 21t33.5 37t27 30q-16 -3 -49 -7t-49 -7q-8 0 -15.5 6t-7.5 13v4q-4 20 -4 30z" />
<glyph unicode="-" horiz-adv-x="622" d="M78 831q0 19 10 19l195 10q5 0 12 -19t14.5 -47t9.5 -34q8 104 23 104l170 10q9 0 12 -14l25 -215q0 -18 -12 -18l-60 2q-11 0 -18 37l-19 -27q-1 -3 -3.5 -5t-4.5 -2l-2 -1l-233 8q-13 0 -13 12l-8 33q-7 -43 -22 -43h-62q-12 0 -12 18z" />
<glyph unicode="." horiz-adv-x="507" d="M43 182q0 5 15.5 19t38.5 33t34 30q-35 35 -35 49q0 5 2 9l4 6q70 63 136 63h14q47 0 82 -14h-2q57 -20 57 -41v-74q0 -15 4 -43q6 7 19.5 19t23.5 12q23 0 23 -66v-14q0 -65 -51.5 -123.5t-106.5 -58.5q-6 0 -12.5 6t-13.5 16.5t-11 14.5l-26 -17v-6q0 -18 -17 -18 q-48 0 -93.5 38t-66.5 84q-18 41 -18 76z" />
<glyph unicode="/" horiz-adv-x="745" d="M4 -2q0 6 2 10l397 1125q2 16 33 16h56q10 0 38 4l-86 55q-8 3 -8 15l80 225q3 14 12 14l187 29q22 0 22 -16q0 -1 -1 -4.5t-1 -4.5l-356 -800q-5 -11 -14 -11q-2 0 -8 1t-9 1h-8q1 -5 8.5 -20.5t7.5 -22.5q0 -1 -1 -4t-1 -4l-272 -610q-3 -10 -16 -10l-43 -2 q-19 0 -19 14z" />
<glyph unicode="0" d="M35 748q0 142 49 288h-2q43 133 68 133h20q24 0 40.5 14t16.5 38q0 12 -2 16q4 46 4 70q126 142 383 202q179 -19 301 -123q7 -7 7 -14q0 -6 -2 -10l22 -31l10 8q8 4 11 4q8 0 14 -6q110 -97 169.5 -250.5t59.5 -308.5q0 -115 -35.5 -279.5t-68.5 -164.5q-8 0 -22.5 11 t-24.5 26q3 -67 14 -121q-68 -123 -92 -123q-39 0 -75 -39t-58 -90q-77 -41 -183 -41h-47q-100 0 -219 68h2q-65 29 -65 49l12 71q-13 -13 -30.5 -24.5t-22.5 -11.5q-7 0 -13 6q-81 81 -152 226.5t-71 246.5q0 1 1 3t1 3l-12 39zM260 737q0 -113 60 -199.5t157 -127.5 q9 -4 35 -11.5t46 -14.5t24 -11q40 -60 112 -60q68 0 123 42t55 100l-4 28q0 5 4 17q89 95 89 256q0 3 -1.5 12t-1.5 12q36 46 52 84q-42 -24 -54 -24q-8 0 -14 12l-6 16q-113 228 -320 228h-10q-17 0 -53 -4q-8 0 -16 7.5t-20.5 26t-16.5 23.5q0 -5 -0.5 -16.5t-1 -19 t-2 -16.5t-5 -14t-8.5 -6l-10 -6q-96 -38 -154.5 -126.5t-58.5 -207.5z" />
<glyph unicode="1" horiz-adv-x="673" d="M35 0l6 172q0 6 7.5 15t21 21.5t18.5 18.5l-27 6q-18 0 -18 19l6 127q0 18 19 18l168 4l-25 478q27 52 27 77q-13 6 -13 15q0 8 8 16l21 23l-14 10q-2 -2 -4.5 -5t-3.5 -4.5t-3 -2.5t-4 -1.5t-6 -0.5q-16 0 -16 18l-2 55h-127q-19 0 -19 19l2 55q0 8 11.5 19t35.5 27.5 t27 19.5q-10 2 -27 2h-26q-19 0 -19 18l2 90q0 19 19 19q4 0 11 -1l7 -1q51 0 94 33.5t97 101.5q6 6 18 6l139 -8q17 0 17 -19l-4 -137l-25 -25l15 -8q8 -3 8 -16l-6 -166q-41 -62 -41 -133q0 -52 34 -92l-4 -121q0 -11 -6 -17l-33 -32q10 -31 13 -56q22 0 22 -18l-10 -315 l70 22l12 -4q3 1 5 6t5 8l86 31q2 2 6 2q6 0 11.5 -5.5t5.5 -12.5l-13 -359q0 -18 -18 -18l-147 -2q-12 0 -17 10.5t-7.5 35.5t-4.5 34q-14 -8 -36 -29t-39 -38t-23 -17l-269 -6q-18 0 -18 18z" />
<glyph unicode="2" horiz-adv-x="1105" d="M43 1452q0 18 18 18l191 15q20 0 20 -19v-71q147 100 303 100q73 -5 157 -35.5t157 -79.5v2q24 -15 52 -42t28 -40q0 -8 -4 -29.5t-4 -33.5q0 -59 24 -123q3 -1 21 -1.5t29.5 -5t11.5 -15.5v-29q0 -203 -115 -299q-92 -74 -119 -74q-7 0 -24.5 12.5t-24.5 12.5 q-20 0 -43.5 -23t-41.5 -46t-24 -23q-35 -16 -49 -22.5t-53 -25.5t-59.5 -31.5t-52 -33.5t-48 -38.5t-30 -39.5t-15.5 -43l141 -4q47 -27 95 -27q42 0 82 21l309 -8q15 0 18 -17l8 -63q-8 -16 -19 -51t-13 -41v2q-20 -59 -21 -60q5 2 27 16.5t31 14.5q12 0 16 -14l20 -135 q0 -6 -5 -11.5t-11 -5.5l-438 -22q-7 0 -38.5 27.5t-49.5 31.5q-14 -11 -31.5 -29t-28.5 -28.5t-16 -10.5l-350 -16q-19 0 -19 16l25 314q0 75 49 152t127.5 138.5t166 110t175.5 80.5q143 88 143 176v17q0 10 -8 26.5t-8 20.5t4 12l6 6l-28 27q-4 -4 -13 -4q-6 0 -10 4 l-8 6q-32 23 -78 39t-86 16q-14 0 -40 -4t-38 -4h-4q-11 0 -18 9t-13 29.5t-8 24.5q-24 -25 -58 -82t-59 -98t-36 -41l-156 11q-16 0 -16 18l-11 244q65 91 74 102l-53 -20q-4 -2 -10 -2q-17 0 -17 18z" />
<glyph unicode="3" horiz-adv-x="1097" d="M33 518q0 17 16 17l191 -17q-2 0 24 -30t59 -63.5t46 -41.5v2q8 -3 22.5 -10t26.5 -11.5t26 -7.5l43 -69q2 6 5 26.5t8.5 30.5t17.5 10h21q82 0 142 33t60 94v19q0 59 -43 91t-118 32h-17q-18 0 -18 18l-8 186q0 16 16 19q97 8 142.5 37t45.5 92v10q0 3 -2 15t-2 18 q0 15 13 20l6 4l-13 31q-8 -1 -23 -5.5t-20 -4.5l-10 5q-10 6 -26.5 14t-36 15.5t-43 13t-43.5 5.5q-17 0 -23 -2h-22q-11 0 -33 -3t-41 -3q-11 0 -18.5 13.5t-14.5 36t-12 32.5q-23 -88 -29 -121l-39 -33q-6 -5 -20 -26.5t-26.5 -38.5t-18.5 -17l-156 4q-18 0 -18 19 l-9 215q29 44 29 86q0 23 -19.5 55t-19.5 41l-2 60q0 15 17 18l217 25q16 0 16 -19l-10 -59q134 92 282 92h17q56 0 118.5 -18t122.5 -53.5t108 -82.5t77.5 -112t29.5 -135v-35q0 -48 -16 -86l-6 -23q-6 -12 -14 -12q-17 0 -33 16v-57q0 -13 2 -21q0 -34 -46 -79t-75 -60 q127 -67 168 -217l-2 2q4 -12 4 -16l6 -21q0 -3 -2 -7.5t-2 -6.5l-2 -2h2l-2 -2q-14 -14 -25.5 -38t-11.5 -42q0 -26 25 -45l8 -4q10 -5 10 -17t-5 -25t-15.5 -32t-12.5 -24q-65 -120 -147 -175.5t-231 -78.5q-9 0 -36 27.5t-40 33.5q-13 -7 -37 -29t-31 -22 q-108 17 -190 78v-68q0 -18 -19 -18l-194 -4q-19 0 -19 18l-12 229q26 44 35 92l-8 -3q-7 -3 -13 -3t-11 7.5t-5 13.5z" />
<glyph unicode="4" horiz-adv-x="995" d="M-16 469l26 229l256 387q3 9 15 9q14 0 32 -4t40 -9.5t32 -7.5l-59 84q-4 4 -4 10q0 5 4 13l213 321q8 8 16 8l193 -10q7 0 11.5 -6.5t4.5 -13.5l-8 -179q-46 -54 -64 -83q28 14 43 14q17 0 17 -17l-25 -520l205 2q18 0 18 -18l6 -176q0 -19 -16 -19l-176 -14l-2 -82 l160 4q16 0 16 -16l4 -49q0 -10 -30.5 -50.5t-30.5 -66.5q0 -22 12 -38.5t35 -16.5h10q18 0 18 -17l15 -164q0 -18 -19 -18l-260 -4q-29 11 -54.5 27t-41.5 18l-4 -31q-3 -16 -19 -16l-206 -4q-19 0 -19 18l2 217l10 15q-10 3 -10 16l2 166q0 18 19 18l174 -6l-6 74l-234 -4 q-1 0 -28 6t-59 15t-46 16l-6 -29q-3 -12 -19 -12l-145 -2q-18 0 -18 16zM238 696h288l-10 437l-137 -211q-11 -11 -36 -25t-37.5 -30t-12.5 -44q0 -2 4 -22q0 -9 -4 -13z" />
<glyph unicode="5" horiz-adv-x="1069" d="M45 483q0 8 5.5 13.5t12.5 5.5q5 0 13 -4q96 -75 186 -97l27 -10q42 -42 71 -57l11 20q3 8 14 8t28 -2t25 -2q7 0 22 1t23 1q111 0 199 -8l2 29q0 11 10 14q45 22 64.5 44t19.5 67v4q-12 114 -73 154h2q-26 18 -91 28q-5 0 -13 11t-19.5 27t-20.5 24q-9 -12 -17.5 -30 t-14.5 -26t-13 -8l-33 -2q-52 -3 -112 -30t-74 -52h2q-21 -35 -35 -35h-12q-36 0 -174 -6q-19 0 -19 19l5 442q28 50 30 55l-18 15q-10 3 -10 16l4 406q0 18 14 18l848 -78q16 0 16 -16l6 -99q0 -9 -16 -39t-16 -51q0 -64 49 -110l18 -246q0 -20 -18 -20l-178 16 q-17 0 -17 18l-10 170l-199 9q-8 0 -26.5 17t-22.5 19l-10 -24q-3 -8 -16 -8l-240 6l22 -283q118 71 228 74q57 -6 93.5 -10.5t85.5 -12.5t80 -17.5t69.5 -25.5t61.5 -35t48 -47t38 -62t21.5 -78.5t8.5 -98.5v-17q-4 -181 -83 -305.5t-204 -173.5h-78v-8q0 -19 -51 -28 t-98 -9h-23q-121 0 -211 55q-14 4 -14 115v17q-70 -70 -84 -70q-18 0 -50.5 28.5t-52.5 53.5z" />
<glyph unicode="6" horiz-adv-x="1060" d="M51 481l17 484q-7 54 -7 88q0 12 107 67l25 13q-40 9 -75.5 25.5t-35.5 33.5v4q32 134 141.5 220.5t294.5 86.5h33q150 0 231 -35q42 -18 86.5 -57.5t44.5 -77.5q0 -10 -22.5 -52.5t-38.5 -66.5l80 31q4 2 10 2q13 0 23 -49l8 -29q6 -23 6.5 -74.5t7.5 -86.5l4 -95 q0 -20 -16 -20l-178 -4q-19 0 -19 16q-3 48 -15 82t-26 52t-40 30t-42 15t-47 7q-5 1 -8 1l-2 2q-8 0 -12 4l-35 37l-45 -37q-37 -3 -98 -19h2q-49 -11 -72.5 -31.5t-37 -79t-13.5 -171.5q0 -3 1 -8.5t1 -8.5q32 50 98.5 77.5t136.5 27.5h25h14.5h14.5t13 -0.5t14 -2 t12.5 -4t14 -6t13.5 -8.5t15.5 -11.5l15.5 -15.5t18 -20l35 35q4 4 10 4h6q120 -36 192.5 -128t72.5 -220v-16q-1 -93 -32 -184.5t-73.5 -152.5t-87.5 -99t-76 -38q-6 0 -12 9q-2 2 -6.5 9.5t-7.5 8.5l-33 -16q0 -1 3 -7.5t3 -11.5q0 -14 -78.5 -30.5t-120.5 -16.5 q-75 0 -170 31q-38 12 -99.5 62t-61.5 77q0 5 4 21.5t4 29.5q0 46 -26 91t-68 75q-9 41 -21 131zM289 551q0 -56 34.5 -95.5t86.5 -58.5h2q12 -4 22 -10q13 -4 20.5 -24.5t19 -38t36.5 -17.5q16 0 33 10h-2q10 5 29 32.5t32 27.5q58 6 107.5 47t52.5 88v12q0 76 -69.5 121.5 t-160.5 52.5h-16q-73 0 -136.5 -28t-90.5 -78v-41z" />
<glyph unicode="7" horiz-adv-x="1060" d="M8 1458q0 19 17 19l911 45q17 0 20 -17l13 -102q0 -9 -8 -17l-89 -79q12 1 43.5 9.5t47.5 8.5q13 0 16 -16l27 -189q14 -7 14 -18q0 -10 -8 -15q-278 -202 -402 -331l-22 -8q-6 -2 -30.5 -11t-39.5 -10l2 -35q17 -7 17 -18q0 -2 -5 -12q-37 -52 -58 -106t-21 -85 q0 -35 23 -58.5t52 -23.5h35q6 0 11.5 -5t9 -10.5t4.5 -6.5l22 22l125 2q19 0 19 -16l32 -406q0 -14 -20 -14l-219 16q-41 3 -58.5 4.5t-46 5.5t-41.5 11t-30.5 18.5t-27.5 29t-19 42.5l-25 49l-27 -16q-8 -4 -12 -4q-28 0 -47.5 81t-19.5 146q0 112 45 207q3 10 16 10h35v8 q0 51 18 93t40.5 67t69.5 70q3 2 4 3.5t3.5 3.5t4 3.5l3.5 3.5q131 126 320 268l-201 -14q-11 0 -22 15t-13 26q-12 -4 -14 -4l-29 -8l-35 -35l-172 -11l-18 -192q0 -15 -15 -18l-178 -31q-18 0 -18 18l-14 307q-1 12 10 16.5t34.5 5t28.5 1.5q-75 69 -78 72z" />
<glyph unicode="8" horiz-adv-x="1099" d="M47 475q0 58 16.5 115t65 116.5t123.5 92.5q-50 23 -77 51.5t-46 69.5l-3 8q-3 9 -7 10h2q-10 13 -10 29q0 4 3 12.5t8.5 21.5t8.5 23h-22q-21 0 -21 31v30q0 100 41 177v-2q13 29 31.5 57.5t27.5 28.5q5 0 11 -3l2 -2q2 0 2 -2q7 11 16 11l49 -11q6 17 18 36t20 29 t28.5 33t25.5 29l29 7h-2q91 26 188 26q182 0 304 -100q15 -11 34 -30t19 -28q0 -7 -8.5 -19t-16.5 -17l23 -31l22 10q1 0 4 1t5 1q8 0 14 -12l4 -12q36 -86 45 -193v-8q0 -19 -16 -19q-8 0 -22 1t-21 1q3 -11 16.5 -47.5t13.5 -46.5q0 -40 -43.5 -82t-93.5 -67 q37 -17 70 -40t33 -38q0 -14 -19 -54.5t-24 -60.5q14 11 41.5 27t31.5 16q7 0 17 -10l8 -18q21 -56 37 -174v-15q0 -50 -17 -119t-39 -69q-3 0 -11.5 4t-18.5 4l-35 4v-6q0 -8 -1 -21t-1 -18q0 -14 3 -32.5t3 -22.5q0 -9 -4 -13q-161 -161 -283 -161q-9 0 -12 6l-29 24 q-3 -3 -8 -13t-11 -17t-14 -7q-18 0 -63 5h-4q-157 0 -293 124q-3 3 -16 15t-22 21t-17 20t-8 18q0 6 2 8q20 33 127 189q-94 -41 -172 -88q-8 -4 -11 -4q-22 0 -36.5 69t-14.5 121zM377 504q0 -51 40 -84.5t103 -42.5l15 -6h-3q4 -4 7 -4l4 -7v5q1 0 3 -1.5t3 -1.5l18 -10 q12 -4 17 -4q14 0 29 10t22 27l8 10q69 9 90 115v6q0 53 -51.5 86.5t-128.5 38.5q-29 0 -66 -17.5t-51 -17.5q-4 0 -6 2l-18 6l4 -20q0 -8 -4 -10l-19 -29q-16 -22 -16 -37v-14zM377 963q0 -54 48.5 -89.5t125.5 -35.5h16q63 0 114.5 38t51.5 91v4q0 53 -52 88t-128 41h-2 q-9 0 -26.5 19.5t-20.5 21.5q-20 -28 -39 -62q-52 -23 -70 -45.5t-18 -62.5v-8zM535 371q5 0 8 -6q-2 2 -4 2z" />
<glyph unicode="9" horiz-adv-x="1062" d="M49 922v28q0 120 23 232l6 20q2 11 14 14.5t33.5 4t34.5 4.5q-2 5 -11 21t-16.5 30.5t-7.5 19.5q0 16 31.5 45t70.5 57t43 32q55 39 119 54t111 15h45q152 0 239 -49h-2q24 -10 59.5 -34t35.5 -42q0 -5 -10.5 -26.5t-10.5 -36.5q0 -43 31 -43h20q9 0 22 2t19 2 q27 0 46.5 -101t21.5 -186l12 -448q0 -19 -16 -19q-31 0 -68 14q2 -3 19 -20l49 -57q6 -6 6 -13v-4q-36 -151 -47 -185q-47 -137 -147 -202q-71 -47 -179 -69q-55 6 -90 26l-25 -35q-3 -8 -14 -8h-10q-148 0 -221 43q-40 23 -80.5 53t-40.5 48q0 8 9 32t11 35l-10 17l-41 -7 q-11 0 -18 13l-31 92q-14 64 -14 166q0 67 20 67l162 13l20 -15q11 -72 54 -103t112 -46h-2l29 -8q8 -3 12 -15h17q14 -10 33 -25t26 -20q-2 6 -2 21v22q0 11 36 19t87.5 23.5t79.5 43.5q25 36 28 207q-94 -117 -270 -117q-84 0 -163 23t-147.5 69t-110.5 125.5t-42 180.5z M297 887q0 -38 14 -63.5t51 -59.5q25 -55 54 -74l8 21q7 14 16 14q18 0 46 -7t40 -7h15q69 0 135 30.5t96 87.5l-2 39q-6 93 -33 136l-4 6q-4 8 -4 14l-24 31q-2 -2 -11 -2q-6 0 -12 6l-10 4q-50 24 -90 33h-43q-51 0 -92.5 -10.5t-76.5 -33.5t-54 -65t-19 -100zM731 1030 l8 8q1 0 3 1t3 1q-14 0 -14 -10z" />
<glyph unicode=":" horiz-adv-x="516" d="M47 184q0 89 58.5 145t148.5 64q1 0 2 -0.5t3.5 -1.5t4.5 -2v2q11 -2 16.5 -17.5t7.5 -33t15 -31.5t37 -14q12 0 36 12t34 12q21 0 38 -46.5t17 -75.5v-11q-2 -73 -57.5 -138.5t-131.5 -65.5q-8 0 -16.5 11.5t-19 32t-17.5 29.5q-3 -3 -13 -19t-19 -27t-15 -11 q-2 0 -10 4q-57 24 -87 73.5t-32 108.5zM47 735q0 37 16 80v-2q8 21 23.5 41t26.5 20q13 0 52 -10.5t56 -13.5l-2 2l-45 47q-6 9 -6 14q0 12 25.5 19.5t50.5 7.5h10q88 0 144 -50t65 -138q0 -9 -3.5 -12.5t-11 -6.5t-12.5 -8l23 -43l-10 -29q-37 -70 -113 -104h2 q-19 -11 -41 -14q-5 3 -24 14t-27.5 15t-23 9t-25.5 5q-10 0 -26.5 -7.5t-20.5 -7.5q-30 0 -55 34.5t-36.5 73t-11.5 64.5z" />
<glyph unicode=";" horiz-adv-x="493" d="M43 186q0 22 4 50q3 8 14 12l35 12q-8 48 -8 51q0 10 10 15l6 6q24 24 35 24q8 0 25.5 -7t25.5 -7q38 0 62 37l-2 -2q0 6 5.5 11t12.5 5q66 -3 129 -59l13 -15q17 -22 24 -33t13 -34t6 -55q0 -154 -45 -154q-17 0 -27 10h-2q-2 -4 -2 -12v-29q0 -4 2 -9.5t2 -8.5 q0 -2 -4 -10l-12 -11q-146 -146 -271 -157q-11 0 -18 10l-15 27q-2 4 -2 10q0 11 11 14q111 57 114 115l-18 4q-10 7 -10 16l10 49q-14 9 -40.5 21t-41.5 20.5t-28 30t-13 53.5zM43 735q0 84 59 146l2 2q6 6 15 6q12 0 53 -19t55 -22q-20 50 -20 76q0 16 18 16h25 q91 0 149 -58t58 -147v-14q0 -81 -66 -137h-10q-4 0 -12 4l-9 6l2 -2l-51 43q1 -3 11 -31t10 -43q0 -24 -82 -31q-86 5 -146.5 64t-60.5 141z" />
<glyph unicode="&#x3c;" horiz-adv-x="499" d="M-16 672v4l18 135q0 11 10 14l43 19q23 -8 25 -8v8q0 11 12 14l164 72q2 -2 9 -2t9 -2q0 13 13 16l125 53q2 2 8 2q13 0 16 -16l15 -117q0 -10 -13 -14l-237 -88l227 -121q8 -5 8 -16l17 -117q0 -21 -17 -21q-6 0 -8 2l-170 66q-5 2 -11 17.5t-13 40t-9 30.5l-10 -10 q-6 -6 -15 -18t-16 -18.5t-14 -6.5q-1 0 -3 1t-3 1l-170 65q-10 5 -10 15z" />
<glyph unicode="=" horiz-adv-x="745" d="M55 684q0 18 19 18l571 25q16 0 19 -16l32 -213q0 -17 -18 -17l-94 2q-14 0 -17 13l-32 86l-33 -84q-3 -15 -19 -15l-204 6q-6 0 -12.5 4.5t-13.5 11.5l-9 9q-1 -2 -2 -5.5t-1.5 -5t-2 -4t-2 -4t-2 -3t-3 -2t-3.5 -1t-5 -0.5l-145 5q-19 0 -19 18zM66 991q0 19 18 19 l186 -6q16 0 19 -13l4 -26q43 10 100 34l262 -8q16 0 19 -14l31 -186q0 -9 -6 -16t-13 -7h-2l-178 14q-19 3 -19 17q0 4 2 8l3 8l-33 16q-6 2 -17.5 7t-21 8t-17.5 4v-37q0 -18 -16 -18l-274 22q-14 0 -17 17z" />
<glyph unicode="&#x3e;" horiz-adv-x="518" d="M51 508l15 117q0 12 12 16l235 115l-250 86q-12 4 -12 16l17 119q3 16 16 16q6 0 10 -2l144 -67q10 -3 10 -17v-43l24 27q5 8 13 8q6 0 8 -2l178 -84q12 -4 12 -14l17 -117q0 -8 -11 -14l-90 -39q-4 -2 -10 -2q-4 0 -8 4q-14 14 -41 24l-14 -43l-17 -24l-231 -99 q-4 -2 -10 -2q-17 0 -17 21z" />
<glyph unicode="?" horiz-adv-x="1054" d="M25 1475q0 20 18 20l190 -2q19 0 19 -18l2 -80q130 94 321 94q117 0 281 -115l27 -18q6 -6 6 -15q0 -13 -2 -35t-2 -30q0 -9 1 -28.5t1 -28.5q5 3 26 16t34 19t22 6q29 0 48 -60t19 -108q0 -101 -31 -173t-94 -135l-2 -2q-6 -6 -10 -6t-12 4l-33 21q-32 -55 -55 -105 l-17 -8q-81 -51 -145 -72q-69 -24 -91 -55t-22 -78q0 -18 -18 -18l-148 6q-20 0 -20 37q0 67 18.5 109.5t48.5 67t97 63.5l39 22h-2q15 10 52 34t53.5 36t39.5 31t32 35t9 32v10q-2 40 -25 68.5t-50.5 41.5t-56.5 35t-40 48l-23 -23q-4 -4 -10 -4h-47q-17 0 -53 -4l-10 -2 q-8 0 -19.5 10t-27 25t-25.5 22q-19 -36 -19 -55q0 -6 5.5 -18t5.5 -15q0 -6 -7.5 -13t-18 -15.5t-15.5 -14.5v2q-10 -8 -24.5 -29.5t-26 -38t-19.5 -16.5l-151 9q-17 0 -17 16l-8 176q29 107 37 154l-33 6q-5 2 -10.5 7t-5.5 9zM223 184q0 76 58.5 141.5t134.5 65.5h14 q42 0 83.5 -14t41.5 -33q0 -13 -4 -31t-4 -24q0 -54 35 -84q7 1 19 6.5t17 5.5q21 0 21 -16v-31q0 -35 -24 -86t-50 -51q-4 0 -13.5 7.5t-20 18.5t-13.5 13q-4 -14 -6.5 -38t-7 -30.5t-21.5 -14t-53 -9.5q-36 2 -86.5 20.5t-50.5 40.5q0 8 7.5 25t8.5 26h-4q-7 0 -23 -3 t-22 -3q-18 0 -27.5 34t-9.5 64z" />
<glyph unicode="@" horiz-adv-x="1249" d="M80 690v21q10 149 85 277t179 196l43 -10q-4 20 -4 24q0 12 10 19l35 18q73 40 186 43h21q16 0 22 -2q32 4 52 4q76 0 152.5 -29t109.5 -67q96 -69 96 -94l-6 -29l8 6q4 2 10 2q8 0 27 -34.5t37 -93t18 -110.5q0 -88 -41.5 -205.5t-81.5 -117.5q-6 0 -10 2l-90 51 q3 -13 20 -47t17 -47q0 -18 -47.5 -29.5t-98.5 -13.5q-68 17 -110 47q-50 -40 -135 -47q-21 0 -21 20q2 14 2 39v45l-57 -79q-7 -11 -14 -11q-34 0 -60 52.5t-26 91.5q0 37 22 73v-2q19 40 70 70q-66 7 -78 115q0 81 62 123.5t141 42.5q57 0 95 -15t57.5 -44.5t26.5 -63.5 t7 -82v-78q0 -36 57 -45q77 0 110.5 53.5t39.5 161.5q-23 145 -118 218.5t-253 76.5q-84 -2 -166 -36t-148.5 -94t-107.5 -150.5t-41 -194.5q0 -139 73.5 -256.5t205.5 -171.5l6 -7q10 0 12 -2q77 -30 148 -30h22q114 3 215 55q8 4 11 4q5 0 12 -10l35 -51q4 -8 4 -17 q0 -27 -102.5 -52.5t-168.5 -29.5q-98 0 -182 23q-18 3 -18 67q-23 -45 -35 -45l-10 5q-129 61 -230.5 209.5t-101.5 287.5zM555 881q47 -24 47 -70v-12q0 -11 -2 -15q-3 -4 -6 -12.5t-6 -11.5q25 7 48.5 30.5t31.5 45.5q-5 22 -24.5 37.5t-47.5 15.5q-33 0 -41 -8zM592 645 q0 -6 6.5 -14t15.5 -8q1 0 3.5 0.5t7 1.5t8.5 2h-2q27 9 39 65l-2 31q-14 -10 -29 -25h2q-6 -5 -14.5 -12.5t-13.5 -12t-10.5 -10t-8 -10t-2.5 -8.5z" />
<glyph unicode="A" horiz-adv-x="1257" d="M20 -10l13 184q28 25 28 55q0 26 -18 50l8 112q3 17 17 17l149 -27l27 96l-60 8q-16 3 -16 19l4 203q0 6 5.5 12t12.5 6l109 -10l76 254q6 6 12 6l-8 18l24 80l-165 25q-17 3 -17 16l-2 139q23 30 23 64q0 20 -14.5 44t-14.5 28l-2 81q0 19 18 19l506 -23q16 0 19 -14 l32 -149q0 -7 -18 -31t-45 -56t-35 -42q11 3 52.5 24t52.5 21q13 0 16 -17l76 -328v-4q0 -6 -5.5 -12t-11.5 -6v-6q0 -25 20.5 -52.5t20.5 -29.5l84 -375l80 -6q17 0 17 -14q0 -20 -5 -56t-6 -47q5 5 18.5 22t24.5 29.5t24 27t23 22.5t15 8l35 -2q16 0 16 -19l-6 -118 q-12 -30 -12 -50q0 -6 2.5 -17.5t3.5 -16.5l-6 -177q0 -18 -21 -18l-311 20q-24 15 -43 15q-14 0 -31 -10l-115 8q-16 0 -16 18l8 174q0 5 15.5 21.5t15.5 34.5q0 12 -13.5 27t-13.5 26l2 69q0 17 19 17l96 -2l-25 104l-344 19l-26 -109h108q19 0 19 -20l-19 -361 q0 -16 -16 -16l-207 -10q-23 10 -39 10q-24 0 -51 -15l-168 -8q-21 0 -21 21zM494 713l235 6l-117 360l-16 2l-25 -96q-2 -10 -24.5 -27.5t-22.5 -42.5q0 -4 11 -41v-8z" />
<glyph unicode="B" horiz-adv-x="1216" d="M35 264q0 9 6 12l2 3q-8 3 -8 14v57q0 16 16 19l168 24v68q0 6 5.5 13t11.5 7q1 0 3 -1t3 -1l2 2l-13 6q-12 3 -12 17l4 379q9 20 30 61t30 62l-12 -6t-18.5 -8t-14.5 -3q-15 0 -15 19l2 98l-20 -4q-11 0 -20 15.5t-21 15.5q-11 0 -25.5 -23t-19.5 -23l-68 -10 q-16 0 -16 19l2 247q0 7 11 22t11 21q0 4 -10 16t-10 23v64q0 18 14 18l353 -30q16 0 16 -17l8 -121l31 39q8 12 20.5 24.5t18.5 12.5q8 0 14 -6l2 2q-4 4 -4 8q0 10 24.5 32t69.5 42t90 20q32 0 62 -6q3 0 9.5 1t10.5 1q75 0 146 -41h-2q37 -16 70.5 -38t33.5 -39 q0 -9 -5 -22.5t-5 -16.5h4q1 0 10.5 2t16.5 2q32 0 49.5 -75.5t17.5 -131.5q0 -57 -42.5 -147.5t-88.5 -90.5q-9 0 -14 7v-7q0 -25 -66 -49q209 -21 256 -225l-2 4q23 -61 23 -127q0 -217 -84 -360q-1 -2 -15 -7t-32 -14.5t-27 -21.5l4 -2q10 -5 10 -15q0 -8 -6 -14 q-89 -105 -278 -105q-102 0 -185 50h4q-17 3 -20 12q-6 3 -6 10q0 1 1 3.5t1 4.5l-2 2q-5 -8 -13 -8q-22 0 -94 92l8 -137q0 -20 -18 -20h-213q-15 0 -18 14q-3 -14 -19 -14h-121q-18 0 -18 18zM430 754q58 78 213 141h-2q58 20 123 78q16 14 30.5 38.5t23 42t13.5 19.5l3 2 q4 0 6 2l-2 2q-9 0 -12.5 14.5t-7 35t-12.5 41t-35.5 35t-70.5 14.5q-45 -4 -75 -23l-52 -35q-4 -4 -8 -4q-6 0 -10 2q-2 0 -2 2l-2 -2q4 -4 4 -8q0 -5 -7 -13t-16.5 -18t-13.5 -16q-44 -60 -61 -115.5t-25 -148.5zM436 494q41 -70 107.5 -119t152.5 -56q79 5 125 26.5 t80 82.5q4 8 10 31t12.5 39t14.5 16h2q14 0 14 18q0 17 -16 17h-6q-16 0 -19 14q-17 72 -63.5 109t-108.5 37q-19 0 -69 -11q-154 -30 -236 -159v-45z" />
<glyph unicode="C" horiz-adv-x="1159" d="M51 662q0 370 109 557q30 52 75.5 108.5t71.5 56.5q8 0 12 -4h9q10 0 18 6.5t8 14.5v4q-2 2 -2 8q0 9 8 14q138 82 246 82q88 0 152 -30l59 -29q12 -3 12 -16v-11q3 13 15 13q2 0 5 -1t5 -1l33 -17v45q0 19 16 19l187 -4q18 0 18 -21l-14 -250q0 -5 -11.5 -16.5 t-11.5 -26.5q0 -9 8 -23t8 -20l-8 -159q0 -17 -20 -17l-160 12q-8 0 -12 11q-51 78 -114 108.5t-150 30.5q-17 0 -51 -11.5t-50 -11.5l-11 4q-34 13 -36 17l-18 26v-63q0 -4 -25.5 -27t-59 -54t-46.5 -50q-1 -1 -6.5 -11.5t-11 -20.5t-13.5 -18.5t-14 -8.5q-1 0 -4.5 1 t-4.5 1q13 -7 13 -17q0 -2 -1 -4.5t-1 -3.5l-7 -14v2q-8 -27 -8 -66q0 -15 4 -47q-2 -6 -2 -16v-15q0 -47 19 -102q4 -12 25.5 -46.5t21.5 -43.5q0 -7 -8 -12q0 -35 22 -35q4 0 11.5 3t11.5 3q9 0 30 -16.5t41 -35t21 -18.5v2q47 -24 94 -24q74 0 135 22v-2q15 2 64 27 l10 -4q0 6 5 12.5t13 7.5h-2q1 0 3.5 1t3.5 1h-7q24 16 57.5 54t56 67t24.5 29l163 12q21 0 21 -20q-6 -112 -33 -211q-7 -13 -16 -13h-4q-39 -39 -39 -65q0 -9 7 -20t7 -17q0 -2 -1 -4.5t-1 -3.5q-100 -148 -133 -148q-9 0 -16 13q-8 -5 -23 -31q6 -6 6 -12t-20.5 -23.5 t-44.5 -32.5h2q-70 -55 -164 -55h-21q-12 0 -18 2q-24 2 -65 10t-88.5 22t-81 35.5t-33.5 45.5v6q0 20 -10.5 27.5t-27.5 12t-26 13.5q-54 59 -103 144.5t-67 162.5l2 -2q-43 110 -43 226z" />
<glyph unicode="D" horiz-adv-x="1361" d="M47 -10l10 227q0 10 9 16l14 7h-4q-17 0 -17 20l4 102q0 17 17 17l162 10l-23 735l-53 -10q-13 0 -16 12v-4q-4 -11 -17 -14l-53 -10q-7 0 -13 4.5t-6 11.5l-4 229l4 15l-1 1q-4 3 -5 5l-2 98q0 19 19 19l377 -19q6 0 11 -5.5t5 -12.5l-4 -47q51 51 116 79.5t171 32.5 q62 -7 154.5 -37t92.5 -51q0 -4 -2 -8.5t-2 -9.5q0 -11 8.5 -21t18.5 -10h4q17 17 27 17q19 0 50.5 -35.5t49.5 -67.5v2q162 -241 162 -512v-31q0 -16 -2 -26q4 -46 4 -66q0 -99 -27 -188l-6 -8q-8 -8 -18 -8h-9q-16 -19 -16 -43q0 -8 4 -20t4 -15q0 -2 -1 -5t-1 -4 q-61 -125 -124.5 -204.5t-155.5 -132.5h-31q-15 0 -25 2q8 -5 8 -15q0 -21 -64 -36t-110 -15q-65 0 -135.5 17.5t-70.5 44.5q0 10 12 16h2q-15 24 -43 24q-3 0 -14 -3t-15 -3q-6 0 -12 6v-55q0 -18 -19 -18l-380 -19q-19 0 -19 19zM399 756l37 -13q13 -3 13 -18l-15 -215 q11 -2 20.5 -5.5t14.5 -7.5t8.5 -7t5.5 -5l2 -2q54 -52 111.5 -79.5t132.5 -28.5q158 10 246 104l6 4q3 11 14 11h6l3 18q58 87 81 223q-6 62 -28 127q5 22 10 31v10l16 29q-10 0 -27 -5t-22 -5q-9 0 -16 10q-28 70 -113.5 113t-179.5 53h-16q-77 0 -126.5 -29.5 t-117.5 -97.5v-2l-6 -86q-11 -21 -60 -127z" />
<glyph unicode="E" horiz-adv-x="1236" d="M-8 -33l16 96q0 7 5.5 12t13.5 5q6 0 8 -2q8 3 8 22q0 7 -11.5 15.5t-11.5 15.5l46 268q3 15 16 15l53 -6q7 0 17 -14.5t22 -14.5q5 0 13 8t18 8l41 -6l2 55q0 10 10 17l6 4q-2 2 -4.5 3.5t-4.5 2.5t-3.5 2t-2.5 3.5t-1 6.5l4 133l-80 21q-14 3 -14 18l-6 176q0 19 18 19 l74 2l-2 84q0 15 14 18q-14 0 -14 21l-2 110h-27q-10 0 -14.5 5.5t-6 12t-6 12t-14.5 5.5q-11 0 -14 -8v2q-2 -4 -3.5 -8.5t-2.5 -7l-2 -5t-2 -3.5t-3 -2t-4 -1h-6l-53 3q-19 0 -19 18v152q15 18 15 38q0 21 -15 39l3 154q0 18 18 18l231 -8q39 -22 50 -41h10q8 0 35 19l4 4 q3 16 20 16l346 -12q7 0 17 -10h2q7 -7 30 -13q4 -4 7 -4l6 13q3 10 16 10l254 -6q15 0 18 -15l7 -47q0 -13 -10.5 -29t-10.5 -18q0 -7 8 -20l9 -7q3 -6 8 -18t8.5 -20t5.5 -9l33 -198q0 -5 -3.5 -11t-6.5 -6l-11 -12l11 -10q6 -6 6 -13v-112q0 -19 -19 -19l-190 -8 q-19 0 -19 19v159l-114 -8q-12 0 -36 14.5t-36 14.5h-6v-19q0 -18 -16 -18l-248 -20l-35 -213l264 16q19 0 19 -21l6 13q3 10 14 10l63 4q7 0 14 -4.5t7 -11.5l12 -195q0 -6 -5 -13t-11 -7l-133 -9q-20 4 -27 11l-4 -4q-3 -9 -12 -9l-232 -14l9 -217l362 23q5 -4 21.5 -13 t23.5 -14l2 4q-2 2 -2 8q0 16 18 19l78 2l4 133q0 18 19 18l186 2q19 0 19 -20l-21 -359q-4 -4 -6.5 -8.5t-5 -10t-4.5 -9.5l6 -4q6 -6 6 -15l-6 -123q0 -18 -16 -18l-304 -14q-8 0 -14 6l-16 14l-4 -12q-3 -10 -17 -10l-456 -19q-12 0 -27 22.5t-33 22.5q-15 0 -28 -8 t-19.5 -17.5t-13.5 -17.5t-13 -8l-176 -8q-20 0 -20 18z" />
<glyph unicode="F" horiz-adv-x="1208" d="M43 274v109q0 18 16 18l82 -6q7 0 8.5 -2.5t2.5 -8.5t6 -11v2q0 18 16 18l64 -6l4 82q0 13 10 16l12 7h-6q-14 0 -14 20l4 131l-78 -14q-8 0 -14 5.5t-6 12.5v45q0 7 2.5 11t9.5 9.5t10 8.5q-4 -4 -8 -4q-7 0 -13 6t-6 14l-4 94q0 19 19 19l84 2l-2 139q0 7 6 13l2 2 q20 15 20 22q-2 1 -10.5 4.5t-14 8.5t-5.5 14v30h-45q-8 0 -14 5.5t-12 17.5l-7 14q0 -14 -10 -24.5t-19 -10.5l-51 3q-19 0 -19 18v43q9 12 9 16l-2 2q-7 7 -7 15v188q0 14 13 17l4 6q2 2 5 4.5t4.5 4t4 3t5.5 2.5t7 2v2q0 14 -20 26t-20 21v31q0 18 18 18l569 -18 q4 0 23 -15.5t39 -15.5q16 0 33 10l63 15l301 -8q15 0 18 -15l33 -211q0 -7 -15 -20t-15 -17v-8q5 -10 17 -20t21 -17t9 -10l10 -67q0 -10 -6 -13v-147q0 -19 -19 -19l-190 -8q-19 0 -19 19v159q-159 -12 -225 -12q-43 0 -47 4l-27 27q-45 -45 -55 -45l-102 -10l-35 -213 l168 10q27 -19 43 -19q12 0 16.5 11.5t14.5 11.5l124 8q21 0 21 -16l12 -195q0 -6 -5 -13t-11 -7l-197 -13q-26 23 -45 23q-10 0 -10 -6l-4 -8q-4 -13 -14 -13l-138 -8l9 -215l174 12q20 0 20 -20l-2 -72q-41 -41 -41 -86q0 -21 17.5 -38.5t17.5 -24.5l-4 -142 q0 -18 -19 -18l-256 6q-32 14 -82 14q-9 0 -32.5 -6t-32.5 -6l-143 4q-19 0 -19 19l-2 139q8 21 25 45v2q0 18 -19 47zM270 496l19 6q-17 -4 -19 -6zM1141 1233l6 2h-2q-1 0 -2 -1t-2 -1z" />
<glyph unicode="G" horiz-adv-x="1253" d="M35 729q26 50 26 51q0 2 -2 4.5t-7 11t-11 21.5q3 93 31 180v-2q30 118 94.5 242.5t103.5 124.5h2q22 0 37 27q109 109 338 122q117 -15 240 -102l-2 57q0 21 14 21l182 -17q7 0 12 -6t5 -14l-19 -305q-3 -8 -22 -25t-31 -24q4 -15 26.5 -35t22.5 -29l-4 -55 q0 -16 -18 -16l-129 2q-7 0 -13 6q-71 71 -132 104t-138 33l-59 -6q-9 0 -20.5 13.5t-25 33.5t-20.5 27q-8 -41 -8 -82q0 -11 -11.5 -15.5t-13.5 -9.5q-215 -100 -215 -332v-12q0 -39 21.5 -98.5t21.5 -79.5v-15q4 -34 19 -43q10 5 16 5q7 0 14 -7l5 -4q77 -88 223 -106 q24 0 65 8t58 8q8 0 13 -7.5t19 -10.5q8 9 19 33l6 16q77 51 123 113l-174 16q-14 0 -17 14h-2q-3 -12 -14 -12l-123 10q-6 0 -11 5.5t-5 11.5l-21 223q0 16 19 16l123 6q1 0 38.5 -18.5t61.5 -18.5q32 0 59 27l15 8q4 1 14 11l291 12q15 0 18 -17l8 -84l-2 -8q-2 -2 -2 -8 v-8q-6 -15 -6 -29q0 -7 10.5 -13t10.5 -13l14 -113q0 -7 -6 -12.5t-12 -5.5l-72 2l-2 -291q0 -19 -39 -35q5 -24 39 -82v-94q0 -16 -14 -19l-170 -36q-23 0 -23 18l6 82q-71 -61 -140.5 -92t-154.5 -31q-95 0 -172 33q-11 2 -23.5 28.5t-37.5 26.5h-13q-37 0 -82 41.5 t-77 99.5l2 -2q-83 119 -126.5 245t-43.5 300z" />
<glyph unicode="H" horiz-adv-x="1312" d="M29 8l43 266q0 6 10 14.5t10 14.5q0 1 -5 13t-5 26l10 57q3 15 17 15l153 -33v258l-96 -6q-19 0 -19 16l-10 180q0 21 19 21h22q6 0 12 -6l5 -6q3 -3 7.5 -10.5t6.5 -10.5q5 5 6.5 12t1 11.5t2 8t10.5 3.5h11v233l-158 5q-19 0 -19 18v205q0 13 15 16l18 10q-3 2 -8.5 6 t-9 6.5t-7.5 6t-6 7t-2 7.5l3 119q0 18 20 18l467 -26q18 0 18 -17l7 -88q0 -16 -37 -53q43 0 43 -22l18 -207q0 -21 -20 -21l-109 17l-2 -72q-8 -14 -18 -32.5t-15 -26.5q8 -4 29 -31l-2 -78l371 -18v34q0 9 6 15l10 10q20 20 20 25l-4 8l-6 6q-4 -2 -10 -2q-14 0 -14 18 l2 137l-90 -8q-6 0 -11.5 5.5t-5.5 13.5l-16 350q0 18 16 18l488 31q18 0 18 -18l4 -86q-6 -15 -6 -25t8 -18l10 -250q0 -19 -18 -19l-68 -2q-6 4 -11 8.5t-7 7.5t-5.5 9.5t-4.5 7.5h2l-4 4q-5 -3 -21 -21t-24 -18l-35 -2l-31 -702l74 8q7 0 12 -5.5t7 -12t4 -16t3 -11.5v-2 l5 2v14q0 32 18 39l86 10q16 0 16 -18l-8 -184q-18 -24 -18 -43q0 -8 8 -18t8 -19l-4 -101q0 -18 -18 -18l-492 10q-18 0 -18 19l-6 358q0 18 14 18l127 -12l6 254l-395 -25l6 -100q1 -10 -4.5 -15t-12 -5.5t-12 -2t-4.5 -6.5q35 -21 35 -30l2 -82l108 22q13 0 13 -18 l-13 -404q0 -18 -20 -18l-160 10q-6 4 -15.5 10t-14 9t-11 5.5t-12.5 2.5q-11 0 -15.5 -11.5t-17.5 -11.5l-264 19q-16 0 -16 16z" />
<glyph unicode="I" horiz-adv-x="698" d="M43 365q0 20 18 20l52 2q14 -14 41 -31l2 2q-6 3 -6 13v2q0 18 16 18l72 4l-7 422q22 22 41 60q-25 -5 -26 -5q-17 0 -17 19l-4 196l-143 3q-19 0 -19 18v156q0 5 19.5 28t23.5 33q-5 4 -17 9t-19 10t-7 14l3 133q0 18 20 18l520 -26q17 0 17 -17l6 -69q0 -5 -7.5 -16 t-17.5 -23t-12 -15q1 0 9.5 1.5t16.5 1.5q14 0 17 -17l22 -237q0 -17 -16 -17l-88 10q-8 0 -15 9.5t-14 24t-12 20.5v-27q0 -18 -18 -18l-29 2v-703l27 -2q16 0 16 -20q-4 -32 -4 -49q6 7 17.5 25.5t20.5 29t15 10.5l70 -4q16 0 16 -18l-10 -363q0 -18 -17 -18l-495 -43 q-18 0 -21 16l-12 86q0 10 13.5 34t15.5 32l-10 -1q-10 -2 -15 -2q-11 0 -14 17z" />
<glyph unicode="J" horiz-adv-x="874" d="M29 76l8 88q0 4 12 16q-10 3 -10 19l31 2l6 8q4 4 4 8h-14q8 -4 10 -8q-6 5 -13 8q-20 0 -20 21l14 170q0 7 5.5 12.5t11.5 5.5t16 -10q52 -70 143 -70q4 0 12.5 1t12.5 1q16 0 16 -6v-4q0 -2 2 -2l11 -10l8 -19q0 6 4 10v13q0 3 -1 5t-1 5q0 15 14 18q119 21 119 148 l-14 309q0 13 8 16l29 27q-13 -4 -21 -4q-18 0 -18 18l-6 207l-123 13q-17 3 -17 18l-2 182q0 8 8 14.5t23.5 13t17.5 7.5l-7 1q-8 1 -11.5 2l-10.5 3t-10.5 5t-6.5 7.5t-3 10.5v112q0 19 19 19l215 6q9 0 19 -13.5t26 -13.5t27.5 14.5t19.5 14.5l227 6q19 0 19 -18v-90 q-21 -27 -31 -50h4q1 0 5 2.5t7 2.5q6 0 11.5 -6t5.5 -13l4 -203q0 -15 -17 -18l-47 -6q-10 0 -22 10.5t-13 24.5v-23q0 -15 -16 -18l-78 -11l4 -153q0 -8 -3.5 -11.5t-11.5 -7t-13 -8.5q6 -36 30 -63l9 -246l-9 -12q11 -7 11 -15l4 -135v-11q0 -72 -24 -171 q-25 -107 -60 -107v-6q0 -8 -2 -10q-101 -131 -307 -143h-7q-8 -4 -10 -4q-14 0 -14 18q0 4 1 19t1 24l-8 -4q-20 -51 -39 -51q-46 4 -110 31t-64 57z" />
<glyph unicode="K" horiz-adv-x="1247" d="M27 23l22 352q0 16 19 16h45q11 0 14 -8l29 -49l4 2l-6 39q0 18 18 18l70 2v162q0 18 16 18h4q7 7 12 7q3 0 7.5 -1t7.5 -1q1 0 3.5 1t4.5 1q-1 23 -28 55.5t-27 38.5v311l18 29q4 6 11.5 17t9.5 14l-2 2q-7 -9 -19 -9q-8 0 -13 6t-5 15v65l-174 -43q-17 0 -17 19l8 194 q0 6 8.5 15t23 21t20.5 18q-8 4 -22 6.5t-21 6.5t-7 15l5 80q0 19 16 18l573 52q8 0 13.5 -6t5.5 -15l-31 -403q0 -17 -18 -17l-172 -8l-7 -284q58 4 89.5 31.5t66.5 88.5q3 9 16 9q17 0 23 -2v8q0 5 -8 15t-8 20q23 45 37 82l67 178q3 12 12 12q3 0 15 -4l24 -16 q-8 33 -8 67v10q-4 2 -4 11q0 8 4 12q61 92 125 140t160 48q125 0 125 -35l-6 -88q0 -1 -21.5 -37.5t-21.5 -60.5q0 -23 16 -47.5t16 -28.5l-4 -94q0 -16 -18 -16h-41q-13 0 -41 -4t-43 -4q-10 0 -14.5 10t-7.5 33t-5 32q-2 -9 -4.5 -24.5t-4.5 -26.5t-4.5 -22.5t-6 -18.5 t-6.5 -8q-34 -21 -69 -60t-60.5 -76t-61 -79t-69.5 -68q83 -67 145 -194h-2q1 -2 11.5 -15.5t19 -28t8.5 -22.5q-2 -12 -2 -22q0 -31 10 -41l20 14q8 4 11 4q6 0 12 -6q20 -20 59.5 -44.5t70 -42t32.5 -22.5q4 15 18 15q2 0 12 -1t17 -1h24q23 0 23 -17l6 -340 q0 -18 -20 -18q-221 15 -330 145q-4 4 -4 11q0 8 4 12l31 51l-4 2l-35 -33q-8 -8 -15 -8q-21 0 -48 73t-34 126v-2q-64 187 -141 295q-40 -23 -55 -23q-6 0 -12 6l-15 11q0 -3 1 -7.5t1 -7.5q0 -24 -61 -24l4 -232h162q18 0 18 -18l-10 -172q0 -7 -15 -17.5t-16 -13.5 q3 -24 25 -49l-8 -133q0 -17 -17 -17l-352 17q-18 0 -18 18v10q-31 -3 -58 -24l-135 6q-16 0 -16 21z" />
<glyph unicode="L" horiz-adv-x="999" d="M37 12l2 97q31 35 31 57q0 18 -9 27l-16 14q-4 8 -4 12l2 148q0 18 18 18l70 4q10 0 21 -12.5t14 -26.5v21q0 7 4.5 13.5t11.5 6.5l56 4l-5 305q0 9 9 15.5t12 13.5v-2l4 4q-2 7 -14.5 23t-12.5 26l-6 307q-13 0 -16 13q-9 -4 -23 -13l-104 3q-19 0 -19 18v272 q0 14 13 17l26 16q-11 2 -23.5 10.5t-12.5 18.5v49q0 18 20 19l186 -11q6 -2 24 -14t42 -12q28 0 57 20l211 -10q17 0 17 -17l14 -151q0 -9 -8 -17l-47 -43h41q2 2 6 2q10 0 14 -18l14 -147q0 -17 -16 -17l-106 15l-21 22q0 -18 -16 -18l-21 2l-6 -320q0 -7 -6 -12.5 t-12 -5.5q-5 0 -13.5 4t-11.5 10q7 -19 41 -67l-4 -312l143 -8q17 0 17 -14q0 -3 -3.5 -14.5t-7.5 -14.5l4 -2l37 37q4 4 13 4l75 -4l7 149q0 19 20 19l186 -10q19 0 19 -19l-8 -158l-54 -71q-7 -7 -10 -17v-2q3 1 10.5 8t16 12t14.5 5t12.5 -6.5t6.5 -14.5l-11 -307 q0 -18 -20 -18l-103 6q-31 28 -63 39l3 -7q3 -7 3 -10q0 -6 -6.5 -12t-15.5 -6l-250 14q-7 0 -12 6t-5 13v4q-14 -2 -41 -21l-389 21q-16 0 -16 18z" />
<glyph unicode="M" horiz-adv-x="1517" d="M43 369q0 16 18 15l177 11v72q0 8 8.5 19t9.5 14l-12 8q-8 3 -8 16l-5 277q0 18 15 18h6q-18 18 -23 27l-4 241l-143 3q-19 0 -19 18v209q0 11 9 14l32 29h-22q-19 0 -19 18l3 113q0 18 16 18l143 -14q17 -3 17 -16q0 -7 -2 -11q15 -6 47 -6q31 0 65 21q107 -9 160 -62v2 q52 -46 78.5 -136.5t30.5 -178t12 -194t24 -164.5l-16 -27q-1 -7 -14 -29l4 -2q1 0 10 8.5t16 8.5t17 -13l16 -32q24 -50 60 -50h6q43 3 67 43.5t33 110t13.5 145.5t16.5 171.5t34 166.5h2q0 6 5 11.5t11 5.5t8 -2l29 -11q0 -1 10 -4v9q-2 2 -2 6t2 6l-10 12q-2 22 -6 35 l-13 29q32 50 58 77.5t70 47t104 20.5l239 2q19 0 19 -18l-2 -45q0 -7 -11.5 -19t-29.5 -27t-23 -20q25 10 43 10q19 0 19 -16l-6 -266q0 -19 -17 -19l-63 6q-1 0 -13 4l-69 9l-2 -76q-17 -27 -17 -47q0 -25 15 -60l-10 -370q-13 -23 -13 -52q0 -22 10 -49l-2 -65h43 q19 0 19 -19v-34q2 1 25.5 28t35.5 27h64q6 0 12 -5t6 -12l-4 -49q-4 -7 -9.5 -21.5t-8.5 -19.5q5 0 9.5 -8t4.5 -12l-14 -223q0 -16 -17 -19l-196 -20q-6 0 -14.5 5.5t-8.5 12.5l-6 -14q-3 -10 -14 -10l-244 -27q-16 0 -16 18v306q0 5 4.5 9.5t13 10t12.5 8.5h-12 q-18 0 -18 19v51q0 18 18 18l145 2l17 357q0 3 1 6t2.5 4.5t5.5 3.5t6.5 3t8.5 3.5t9 3.5h-15q-16 0 -16 21l10 245q-34 17 -55 17q-16 0 -25 -12h2q-26 -44 -35 -117l-22 -178q0 -19 -16 -19h-5l15 -20l-19 -135q-11 -80 -60.5 -131.5t-115.5 -51.5h-20q-19 0 -19 19v8h-4 q-5 -15 -8 -19t-10 -4q-39 0 -68.5 25t-46.5 62t-30.5 94t-20 106t-15.5 115t-16 104q0 1 1 6.5t1 6.5l8 22l-8 4q-10 3 -10 12q-13 58 -27 90t-36 35l6 -710l102 18q18 0 18 -20l-4 -68q0 -7 -10.5 -18t-26.5 -24.5t-22 -20.5l2 -2q5 1 19 10.5t22 9.5q6 0 11 -5.5t5 -14.5 l-6 -215q0 -16 -16 -19l-207 -29q-20 0 -20 19l-3 2q-7 -4 -30 -27l-180 -24q-14 0 -17 16l-24 205q0 8 13 15.5t31 15t25 12.5l-18 6t-21.5 7.5t-19.5 8t-15.5 9.5t-5.5 10z" />
<glyph unicode="N" horiz-adv-x="1220" d="M37 -10l12 194q0 6 24.5 25t30.5 29h-30q-19 0 -19 18l11 141q0 17 14 17l33 -2q11 0 24 -29v4q0 16 19 16l98 -12v647l-59 19q-13 7 -13 16q0 7 1 10t1 7l-14 -13q-8 -8 -14 -8q-1 0 -2 1t-2 1l-84 27q-13 3 -13 18l-8 215q0 5 2.5 9t10 9.5t12.5 10.5h-6q-19 0 -19 18 l-2 70q0 15 16 18l226 25q107 0 182 -90l-2 2q49 -68 80.5 -125t54.5 -131q34 -117 63 -261.5t44.5 -234t40 -163t57.5 -93.5l4 539q0 9 8 14l25 17h-15q-18 0 -18 18l2 72l-121 39q-14 3 -14 18l-6 172q0 9 5 14.5t10 7.5l5 1q0 5 -2.5 11t-5 10t-8.5 12t-8 10l-4 108 q0 19 18 19h111q12 -2 23 -22.5t26 -20.5q24 0 52.5 21.5t33.5 21.5l211 -2q18 0 18 -21l-10 -149q0 -12 -14 -15l-11 -8q-2 -2 -4 -2t-4 -2v-16q0 -8 2.5 -17.5t5 -16t8 -18.5t7.5 -18l-4 -94q0 -19 -21 -19l-154 11l-6 -416q-15 -15 -24 -27q3 -3 12.5 -5.5t9.5 -14.5 l-4 -234l187 2q18 0 18 -18v-55q0 -11 -25 -36t-30 -36q5 -9 30 -26t25 -27l2 -168q0 -16 -16 -19l-201 -22q-60 0 -76 8q-37 18 -37 98q0 1 1 4.5t1 5.5q-7 -7 -14.5 -19t-13 -19t-11.5 -7q-25 0 -72.5 62t-47.5 86q0 5 5.5 18.5t6.5 20.5h-6q-9 -6 -17 -6t-14 14v2 q-69 147 -86 340q-3 86 -37 184l-16 78q0 10 6 16l20 21h-4q-6 -6 -14 -6q-16 0 -16 16q-27 131 -82 172l-19 -364q0 -6 -6 -12.5t-12 -6.5q-4 0 -6 2l-27 6q5 -13 26 -38.5t21 -30.5l-12 -217l47 -4q18 -4 18 -35v-17q0 -20 -2 -24h2q2 6 4.5 24.5t8 30.5t16.5 12l51 -8 q15 -3 14 -18l-10 -209l-22 -21h2q18 0 18 -18l-6 -119q0 -18 -16 -18l-269 -15q-11 0 -14 7q-6 3 -6 6h2l-2 2q-4 8 -4 10q0 3 1 8t1 8l-4 5q-8 -18 -19 -33l-10 -15l-121 -6q-20 0 -20 21zM215 -10q0 -2 4 -6q2 -2 8 -2q-6 2 -10 6z" />
<glyph unicode="O" d="M39 831q7 86 47 220.5t70 134.5q3 0 9.5 -3t17 -8t20.5 -8q-3 4 -14 17t-17 22t-6 13q0 6 6 12l35 49q14 23 40.5 50.5t43.5 27.5q13 0 37.5 -8t31.5 -9l2 5q-28 21 -28 40q0 29 101 67.5t177 55.5q126 -12 222 -69q120 -70 120 -99q0 -6 -12 -30q22 18 37 18q2 0 10 -4 l37 -39q106 -113 141 -260l-2 -4q2 -4 2 -14q0 -7 -4 -11.5t-4 -5.5h4q19 0 29 -78.5t10 -138.5v-39q0 -66 -17.5 -166t-37.5 -100l-27 -6q2 -4 8 -13.5t10.5 -17.5t4.5 -12v-6q-34 -93 -94.5 -198t-87.5 -105q-7 0 -17 9.5t-12 10.5v-20q0 -5 1 -15.5t1 -15.5q0 -6 -6 -12 q-111 -111 -264 -111h-52q-45 0 -115.5 19t-70.5 40v11q0 16 4 36q-12 -1 -36.5 -7.5t-33.5 -6.5q-4 0 -12 4q-163 109 -254 383h-2q-34 106 -49 221q11 11 22 51t11 56q0 20 -18.5 38t-18.5 29zM260 737q0 -54 29 -139q4 -12 22.5 -44t18.5 -38q0 -1 -1 -3.5t-1 -4.5 l-11 -25l5 -2q1 1 5.5 6.5t8 8t8.5 2.5q6 0 12 -6l9 -9q88 -92 245 -106h13q12 0 38 6t41 6q5 0 17 -8l18 -16l2 4q-2 4 -6 8.5t-4 9.5q0 10 12 16l7 5h-3q90 47 137 104t68 150q3 7 16 14.5t33 17t31 17.5q-8 3 -28.5 4t-32 5.5t-11.5 16.5q0 4 1.5 10.5t1.5 10.5 q0 90 -66 181.5t-150 129.5l-12 6q-10 3 -10 15q0 2 1 7t1 11l-12 -16q-6 -9 -13 -9q-15 0 -46 6.5t-48 6.5h-14q-56 0 -109 -21q-8 -4 -10 -4q-9 0 -12 10l-6 9q0 -6 1 -11t1 -6q0 -11 -8 -14q-189 -107 -189 -322z" />
<glyph unicode="P" horiz-adv-x="1136" d="M25 25l4 116q0 14 14 17l33 16q-6 -2 -27 -2q-18 0 -18 18l10 203q0 7 6 13t14 6l154 -31l12 156q0 12 11 16l63 18q-5 3 -26 10.5t-31.5 15.5t-10.5 19l35 422l-53 6q-8 0 -14.5 11t-13 30.5t-9.5 24.5v-2q-3 -14 -22 -14l-19 -23q-8 -8 -16 -8l-80 16q-14 3 -14 19 l-2 137q0 8 8.5 14t30.5 14t24 9h-8.5h-9.5h-9t-9.5 1t-8.5 2t-7.5 2.5t-5.5 3.5t-4 5.5t-1 7.5v181q0 18 18 18l373 -10q18 0 18 -21l-6 -141q50 63 70 63q7 0 14.5 -9t13.5 -9q9 0 20 12.5t11 30.5v21q0 26 66 47.5t102 21.5h18q74 0 141 -30.5t113 -88.5q1 -2 16.5 -21.5 t22.5 -29.5t18 -27.5t16 -31t5 -25.5q0 -8 -11 -27.5t-11 -27.5q0 -13 10 -23h18q2 2 9 2t12 -7t9 -22t6 -26t5 -31t4 -24q-4 -207 -53 -287q-2 -7 -17 -17t-28.5 -27t-13.5 -42v-14q-23 -38 -104 -104t-103 -66q-6 0 -8 2q0 -12 -36.5 -20.5t-64.5 -8.5q-127 0 -256 119 l11 -262q0 -15 -17 -21q19 -3 19 -18l10 -262q0 -19 -16 -19l-80 -2q-13 0 -25 23v-4q0 -19 -18 -19l-283 -4q-18 0 -18 19zM430 885q40 -58 99.5 -90.5t127.5 -32.5h13q2 0 8 1t10 1q5 0 11.5 -6t17.5 -20t20 -23l8 -13q-8 40 -8 41v19q0 6 17.5 19t42.5 31t37 32 q9 11 21 31t20.5 32.5t13.5 12.5l10 -5l2 3q-4 2 -11 10.5t-7 15.5q0 9 4 36.5t4 41.5v18q0 69 -42.5 104.5t-107.5 35.5q-5 0 -14 -1t-14 -1q-83 0 -154 -48.5t-125 -130.5z" />
<glyph unicode="Q" horiz-adv-x="1363" d="M41 670q0 8 1 31t1 36v94q0 14 10 17l8 2q16 5 39 16q-20 7 -35.5 20t-15.5 27q14 80 55.5 181t89.5 173t78 72q4 0 14 -2t17 -2q27 0 35 31v18q0 14 10 17l14 8h-2l29 16q99 56 217 76h21q71 0 175.5 -40.5t104.5 -69.5q0 -4 -8 -20t-10 -21l26 20q4 4 11 4q4 0 12 -4 q68 -64 125.5 -151.5t85.5 -182.5v-8q2 -2 2 -8q0 -3 -7 -15.5t-7 -25.5q0 -41 32 -59q21 -15 21 -185v-14.5v-18.5t-0.5 -18t-2 -18.5t-4 -14t-6.5 -11t-10 -3.5q17 -3 17 -19v-8q0 -7 -5.5 -12.5t-13.5 -5.5q-6 0 -10 2q21 -21 21 -27q-21 -137 -48 -137q-6 0 -30 4 q30 -26 30 -37v-8q-13 -31 -47 -88.5t-60 -101t-26 -47.5q43 -35 107 -35q18 0 39 6l49 8q7 0 11.5 -6t8 -15.5t7.5 -13.5q3 5 6 19.5t6 19.5l10 15q19 4 33 16.5t21 22.5t12 10q8 0 14 -6t6 -13l-14 -252l-66 -69q27 8 47 8q15 0 15 -21v-32q0 -21 -60 -21h-6 q-44 0 -125 14q-106 18 -106 48l6 28q-26 -26 -33 -26q-1 0 -4 1t-4 1q-62 27 -100.5 56.5t-79.5 82.5q-64 -27 -133 -33q-9 0 -17 8l-16 21v-10q0 -19 -19 -19h-10q-124 0 -213 55h2q-20 8 -28.5 17.5t-12 23.5t-6.5 19l-4 -4q-6 -6 -14 -6q-7 0 -11 4q-106 82 -189 249.5 t-83 346.5zM246 807l4 -2q8 -8 8 -14q0 -4 -1 -11.5t-1 -11.5v-53q0 -82 41 -165t96 -101q8 -5 8 -15q0 -6 -2 -10l2 2q6 6 13 6q6 0 8 -2q74 -42 172 -55q-18 48 -31.5 121t-13.5 135v22q0 37 20 37l99 -2q14 0 25.5 -36t11.5 -64q0 -3 -5.5 -12t-13 -21t-10.5 -20 q24 12 33 12q10 0 14 -12v4q1 0 8.5 -20t21 -49.5t27.5 -47.5l21 14q8 4 12 4q7 0 12.5 -6.5t12.5 -20.5t12 -22q-3 7 -6 19.5t-6 19.5h2l-6 19l-3 4q0 5 7 12l14 16q91 91 104 256q-5 91 -51 174t-123 136t-164 53h-16q-72 0 -139 -31l-12 -6q-50 -3 -93 -25l7 -24 q0 -8 -5 -13l-6 -8q-38 -33 -71 -114l-19 -45zM1114 639l2 -2l29 -31l-4 6q-2 4 -2 9q0 10 12 18h-37z" />
<glyph unicode="R" horiz-adv-x="1210" d="M37 1442q0 20 18 20l369 15q15 0 18 -17l13 -123q125 170 295 170h18q61 0 125.5 -16.5t64.5 -48.5v-8q0 -15 8.5 -25t24.5 -10h17q34 0 74.5 -83t54.5 -147q-33 -50 -39 -98q2 0 11.5 3t16.5 3q9 0 15 -6t6 -12v-15q0 -120 -41 -210l-23 -50q-6 -12 -14 -12 q-13 0 -59 41q3 -12 18.5 -47t15.5 -45v-10l-26 -41q-53 -79 -129 -127h2q-65 -43 -131 -43h-6q35 -49 86 -78t104 -35q13 0 19 -14t8.5 -35t3.5 -25q11 55 24 67q8 7 19 7h31q12 0 37.5 2t35.5 2q19 0 19 -18v-103q-13 -37 -13 -67q0 -39 15 -60l4 -131q0 -7 -5.5 -12.5 t-13.5 -5.5q-43 0 -96 11.5t-57 27.5l-12 24v-4q0 -7 -6.5 -12.5t-12.5 -5.5q-22 0 -22 20v6q0 19 18 19q9 0 14 -8l-10 20l2 2q-2 0 -13 -7.5t-11 -10.5v-4q0 -8 -6 -13.5t-13 -5.5q-6 0 -8 2q-62 28 -135.5 93t-73.5 94q0 3 3 16.5t3 22.5v12h-35q-11 0 -14 8l-25 43v-2 q-47 80 -53 182q-59 18 -98 66l8 -109q0 -20 -16 -20q-9 0 -27 2t-22 2q10 -8 28 -18.5t29.5 -18t11.5 -12.5l15 -228q0 -5 -28.5 -31t-35.5 -42q7 1 26 11.5t27 10.5q13 0 17 -18l10 -168q0 -21 -18 -21l-267 45q-7 3 -11.5 10t-6 12t-3.5 16.5t-3 13.5q-4 -9 -7 -18.5 t-4.5 -13.5t-5 -6.5t-10.5 -2.5l-121 20q-14 3 -14 19l2 227q0 9 8 14q-1 3 -4 7.5t-4 7.5l2 84q0 18 18 18l177 -2l8 266q0 14 10 17l33 14q0 8 -6.5 11.5t-14 3.5t-13.5 4t-5 14l12 387l-43 -2q-11 0 -14.5 4.5t-4.5 12t-5 11.5l-11 -22q-5 -8 -16 -8l-88 -7 q-6 0 -12.5 5.5t-6.5 11.5l-16 213q0 17 14 20l21 6l-27 11q-10 3 -10 14zM457 885q91 -123 237 -123q7 0 18 1t13 1q7 0 20 -17.5t27 -17.5h6q2 6 2 16v21q0 11 11 14l47 25h-2q90 72 90 199v4q-4 73 -54 120.5t-114 47.5q-12 0 -47 -9.5t-54 -9.5q-8 0 -12 8 q0 -13 -12 -16q-123 -45 -168 -145z" />
<glyph unicode="S" horiz-adv-x="1122" d="M31 485q0 19 16 19l201 14q7 0 23.5 -20t35.5 -44.5t29 -31.5q8 -6 26 -16t28.5 -18.5t10.5 -16.5v-33l7 24q4 15 18 15q13 0 44.5 -8.5t47.5 -8.5q145 0 201 84l-2 -2q18 30 18 68q0 27 -10 65v-4q-52 92 -238 121q-107 17 -183.5 43t-136 68.5t-89 107.5t-29.5 154v14 q0 68 19.5 151t50.5 83l24 -6l-12 22q-4 8 -4 12q0 5 6 11q96 122 311 149h-2q6 2 19 2h20q19 0 19 -18v-6q0 -7 2 -9l6 -4l10 27q3 12 17 12q154 -3 274 -75v36q0 19 20 19l183 -10q16 0 16 -21l-4 -70q0 -6 -17.5 -23.5t-17.5 -31.5q0 -13 12 -22h-4q2 -2 4 -2v2 q8 0 11 -9q6 -6 6 -14l-19 -272q0 -14 -12 -17l-47 -12q-11 0 -16 8l-4 10q-2 -4 -4 -12.5t-5 -12t-8 -5.5l-78 -25q-2 -2 -8 -2q-8 0 -14 14q-31 79 -64 110t-90 36q-14 0 -19.5 14t-6.5 15q-1 -1 -3.5 -8t-8 -12t-15.5 -5q-20 4 -37 4h-14q-26 0 -74 -10h2 q-50 -16 -73 -44t-23 -57q0 -5 -10.5 -12.5t-26 -17t-21.5 -15.5l-2 -4q8 1 27.5 6t26.5 5q9 0 12.5 -7.5t5.5 -7.5h2q45 -38 207 -65q14 -3 14 -19q0 -3 -1 -8t-1 -6v-14l6 -2l11 20q3 16 16 16h6q139 -29 239.5 -88t100.5 -120q0 -13 -43 -62l2 -2q2 1 22.5 13t28.5 12 q20 0 35 -66t19 -127q-43 -58 -43 -129q0 -24 6 -51l-8 -17q-66 -144 -189 -192q-16 -16 -39 -16q-8 0 -14 2.5t-8 5.5t-4 7l-2 3q0 -35 -63 -56.5t-128 -21.5q-63 0 -127 12h-2q-73 0 -160 66l2 -43q0 -18 -16 -18l-68 -5q-10 0 -15.5 8t-9.5 22t-7 20q-4 -10 -6 -25 t-6 -21t-15 -6l-59 -2q-21 0 -21 19l-12 293q0 5 3.5 9.5t10 9.5t12 8.5t14 8.5t11.5 7q-5 3 -21 11t-25 15t-9 15zM502 1470v5l2 -5h-2zM1008 1300q2 0 4 -2v-8q-1 1 -2 5t-2 5z" />
<glyph unicode="T" horiz-adv-x="1042" d="M14 1460q0 19 19 19l882 41q19 0 19 -17l4 -73q-3 -8 -10.5 -21t-12 -23t-4.5 -18h11q2 2 8 2q11 0 14 -16l33 -412q0 -20 -19 -20h-28q-7 0 -23 23.5t-26 29.5q0 -5 3 -17t3 -18q0 -16 -19 -16l-71 2q-19 0 -19 18l2 150l-26 -2q-8 0 -12 2t-7 8.5t-4 7.5q-4 -4 -5.5 -8 t-1.5 -6.5t-2.5 -4t-8.5 -1.5l-90 -7l8 -278q0 -3 -8 -15t-19 -29t-16 -28h12q3 0 8 1t8 1q19 0 19 -18l8 -352l164 30q18 0 18 -18l-2 -51q0 -2 -9.5 -15.5t-22 -32.5t-17.5 -32q4 0 13 3t16 3q16 0 16 -19l-4 -231q0 -18 -18 -18l-199 -9q-18 0 -18 19v10q-7 -3 -20.5 -17 t-20.5 -14l-314 -14q-18 0 -18 18l2 146q12 27 12 43q0 18 -12 39l4 162q0 18 20 18l191 -12l-6 116q-1 11 4.5 15t13 2.5t17 1t14.5 10.5h-2q2 2 6 2q-5 11 -31 31.5t-26 28.5l-19 462l-49 13q-12 3 -12 18v41l-4 -4v2q-21 -41 -37 -41l-45 8l6 -139q0 -18 -16 -18l-183 -9 q-20 0 -20 19l-15 364q0 8 4 12.5t10.5 7t17.5 9.5t22 18q-4 2 -16 7t-16.5 7.5t-12 7t-10.5 9t-3 10.5z" />
<glyph unicode="U" horiz-adv-x="1292" d="M29 1436v39q0 18 18 18l500 -12q18 0 18 -21l-4 -61q0 -5 -8 -13l-33 -34q4 -3 14.5 -3t17 -3.5t5.5 -16.5l-14 -252q0 -16 -17 -16l-92 16l-4 -491q-24 -24 -43 -58l27 7q15 0 18 -15q27 -119 191 -119h18q6 -2 21 -2q6 0 13 1t9 1q6 0 16 -10l7 -20h4q4 8 6.5 15.5 t3.5 10t3.5 6t6.5 7.5q104 21 107 122l-17 383q33 41 41 74q-14 -14 -26 -14q-8 0 -13.5 5.5t-5.5 12.5l-2 86l-86 11q-16 3 -16 18l-2 125q2 5 25.5 34.5t23.5 47.5q0 10 -15 22l7 -2q-6 4 -17 6t-17.5 6t-6.5 15v106q0 19 18 19l498 12q18 0 18 -18v-68q-1 -1 -6 -16v2 q-12 -35 -12 -60q0 -13 10 -26t10 -19l4 -168q0 -15 -16 -18l-176 -23l6 -229q-18 -24 -18 -55q0 -32 22 -68l10 -289q0 -72 -14.5 -152.5t-40.5 -80.5q-8 0 -14 6l-29 27v-8q0 -12 10 -38.5t10 -41.5q0 -6 -4 -6q-57 -78 -156.5 -122t-232.5 -44q-52 0 -110 10.5t-58 30.5 l9 36h-11q-8 0 -24 -11t-21 -11q-8 0 -12 4q-179 114 -182 440l37 326q0 9 8 14l16 11h-6q-16 0 -16 16l22 192l-209 33q-14 3 -14 19l-6 272q0 19 41 29l-6 6q-2 2 -12.5 8.5t-17.5 13t-7 13.5z" />
<glyph unicode="V" horiz-adv-x="1220" d="M2 1470q0 19 21 19l184 -12q3 0 22.5 -15.5t42.5 -15.5q26 0 36.5 3t43.5 17l209 -14q17 0 17 -14l-17 -166l-29 -39q-19 -21 -34 -49q8 4 30 4q9 0 15 -6t6 -15l-10 -88q-3 -18 -17 -18l-96 18l88 -352q-16 -37 -16 -57q0 -32 20 -52v3l12 -7q12 -4 15 -14l71 -289 l35 170q3 15 19 15q3 0 9.5 -1t10.5 -1q2 0 6 1t6 1v2q-16 2 -29.5 9.5t-13.5 18.5l113 549l-63 15q-17 3 -17 18l-2 360q0 19 19 19l122 2q7 0 13 -5.5t6 -13.5v-4q1 0 3.5 -8.5t5 -17.5t3.5 -10q2 3 9 22.5t14.5 29t17.5 9.5l266 8q19 0 19 -18l2 -129q-23 -41 -23 -62 q0 -15 12.5 -29.5t12.5 -21.5l2 -113q0 -15 -16 -18l-160 -23l-55 -245l-58 -60q4 2 11.5 2t9.5 2q8 0 15 -4t7 -10q0 -1 -1 -3t-1 -3l-137 -623q-11 -17 -12 -22q2 -2 2 -17l-31 -141q-3 -14 -16 -14l-256 53q-12 3 -15 12l-104 373q0 8 5 13.5t21.5 14t18.5 9.5 q-1 7 -11 12.5t-18 5.5h-10q-4 -2 -8 -2q-12 0 -15 13l-106 376q0 5 4 17q2 4 6.5 10.5t5.5 9.5q-6 -6 -12 -6q-10 0 -16 14l-60 220l-149 -13q-21 0 -21 19l-4 98q0 8 9.5 14.5t9.5 24.5q0 43 -21 84z" />
<glyph unicode="W" horiz-adv-x="1712" d="M8 1475q0 18 19 18l497 -12q19 0 19 -21l-6 -90q0 -5 -7 -12l-55 -51q3 0 18 4t21 4q18 0 18 -21l-12 -217q0 -16 -16 -16l-84 16l115 -459q-2 -16 -13 -30h8q10 0 19 -15l55 -213l123 484q10 10 21 10q20 -4 32 -4q26 0 52.5 20t43.5 40t19 20q18 0 51 -33h-2 q33 -33 47 -80l21 -108q0 -7 -4 -11l-4 -6l4 4l-12 -20t-15 -21v-2l20 11q2 2 9 2q6 0 11 -4.5t5 -10.5l64 -280l127 495q26 27 30 29h-4q-16 0 -16 14q0 5 2 9l39 157l-64 15q-14 3 -14 18l-2 164q0 13 12 16l-4 12q-8 3 -8 15l-2 153q0 19 18 19l332 8q15 0 18 -14l7 -13 q2 -2 10 -2q11 0 31 15.5t26 15.5l39 2q19 0 19 -18l6 -355q0 -15 -17 -18l-84 -10q-5 0 -10 5t-11.5 18t-8.5 16h-5l7 -31q0 -13 -17 -16l-30 -5l-74 -337q-60 -108 -60 -238v-16l-116 -533q-3 -14 -17 -14l-258 53q-11 4 -14 12l-125 416l-53 -190q-7 -17 -19 -17 q-5 0 -11.5 5.5t-8.5 6.5q0 -2 7 -27t13 -36l-55 -197q-3 -12 -20 -12l-222 21q-18 4 -18 16q0 4 14.5 31t14.5 47q0 36 -21 71t-53 56q-8 3 -8 12l-68 332q0 12 4 24l6 27l21 23l-25 4q-19 0 -22 16l-70 365l-100 30q-9 2 -12 15t-3.5 34t-1.5 27l-22 -47q-5 -10 -17 -10 l-75 22q-13 3 -13 19z" />
<glyph unicode="X" horiz-adv-x="1214" d="M43 -2l29 364q0 13 16 17l31 4q58 -23 84 -23q-10 5 -10 17q0 15 16 18l57 6l242 336l-107 131q-4 8 -4 11q0 5 7 13.5t8 10.5h-25q-1 0 -3 -1t-3 -1q-6 0 -14 8l-129 158l-164 18q-17 3 -17 21l15 164q0 16 18 16q5 0 6 -1l2 -1l2 2q1 0 7 2t8 2h8q3 0 8 1t8 1 q-5 9 -32 29.5t-27 34.5l8 88q3 16 18 16l424 -2q19 0 19 -18v-162q-5 -7 -25 -41l2 2q-5 -9 -17.5 -26.5t-19.5 -28.5q1 0 16 8t25 8q8 0 13.5 -5.5t5.5 -12.5v-72q0 -18 -17 -18l-69 -7l131 -225l94 133q5 8 17 8q1 0 3 -1t3 -1q-9 3 -9 13q0 5 9 14l37 53l-62 11 q-16 3 -16 18l-8 211l10 10q-13 10 -13 19l-4 135q0 18 19 18l459 8q16 0 16 -18l-2 -162q0 -11 -10 -14l-19 -15q29 0 29 -20l-4 -166q0 -16 -17 -16l-165 -19l-117 -149q-5 -8 -15 -8q-16 0 -16 10h-4q-5 -2 -10.5 -2t-7.5 -2q2 -5 7 -14t8 -15t3 -10t-4 -8l-88 -115 l117 -191l-7 -81q-2 -6 -2 -17.5t-2 -17.5q9 6 22.5 29.5t22.5 23.5q11 0 17 -12l76 -121l186 -2q18 0 18 -19l-6 -77q-16 -22 -41 -50v2q-3 -8 -16 -18q5 2 12.5 6.5t12.5 7t8 2.5q18 0 18 -20l-10 -184q0 -16 -17 -19l-247 -28l-23 6l-12 10l-6 12q-2 -3 -4.5 -12.5 t-6.5 -16t-12 -6.5l-153 -18q-17 0 -17 18v144q0 9 11.5 23.5t11.5 23.5q0 27 -23 57v156q0 18 21 18l90 -4l-162 215l-21 -33q-5 -8 -12 -8q-2 0 -10 4l-14 4l2 -2q1 -8 5 -20t5 -16l-94 -144l86 2q18 0 18 -18v-352q0 -19 -16 -19l-248 -12q-13 0 -16 6l-13 18 q-14 -2 -32 -16t-25 -14l-148 -9q-18 0 -18 21z" />
<glyph unicode="Y" horiz-adv-x="1290" d="M41 1098l6 190q14 16 14 27q0 1 -6 6t-6 12l8 164q0 19 21 19l180 -13q16 0 16 -18l2 -29q20 45 39 45l232 -12q18 0 18 -19l-14 -380q0 -19 -16 -19l-101 10l15 -174q0 -110 139 -110h26q6 0 11.5 -5t13.5 -15.5t14 -16.5v20q0 16 17 19q164 18 164 168l6 114l-107 11 q-16 0 -16 18l-2 53q22 36 22 74q0 17 -14 40.5t-14 29.5l-7 176q0 18 19 18l174 2q5 -7 27 -20v6q0 16 16 16l276 6q19 0 19 -18l-4 -223q0 -15 -8 -15l-45 -38l2 -5q2 0 11.5 3.5t16.5 3.5q8 0 14.5 -6.5t6.5 -12.5v-86q0 -16 -17 -16l-155 -17l2 -145q-46 -66 -58 -94 q3 0 17 4t22 4q7 0 14 -6.5t7 -12.5l4 -292q-1 -11 -3 -65t-7 -79q-3 -13 -12.5 -17t-26.5 -4t-25 -3q4 -10 23.5 -34t19.5 -34v-2q-71 -271 -321 -330h-6q-10 0 -13 11l-16 26q-6 -6 -13.5 -20.5t-16 -23.5t-23.5 -9h-15q-4 0 -11.5 -1t-10.5 -1q-17 6 -79 22t-105.5 30 t-43.5 22l-20 383q0 18 20 18h4q23 -11 124.5 -37.5t119.5 -48.5v10q0 16 17 19q219 24 219 159v17l-4 90q-75 -92 -119 -92q-8 0 -15 12.5t-8 13.5v-26q0 -29 -90 -29q-126 0 -212.5 60t-129.5 172q-2 2 -2 8q0 15 18 61.5t21 67.5q-6 -3 -17.5 -11t-21.5 -14t-16 -6 q-27 0 -27 188v41l-160 -4q-18 0 -18 19z" />
<glyph unicode="Z" horiz-adv-x="1148" d="M53 1458q0 21 19 21l315 14q8 0 13.5 -8.5t13 -23t16.5 -23.5q1 3 3 8q17 45 30 50q3 1 6 1l541 25q7 0 12.5 -6.5t5.5 -12.5t-2 -8l-121 -229q-7 -13 -16 -13q-4 0 -8 4l-13 7q1 -2 9 -16t8 -21q0 -1 -1 -4t-1 -4l-340 -656q-7 -6 -26 -18.5t-28 -20.5h3q7 0 12.5 -6 t5.5 -12t-2 -8l-53 -105l125 2q23 0 45 -73q1 3 5.5 6.5t4.5 9.5v10q0 8 7 27.5t20 19.5l186 4l2 109q0 7 5.5 13.5t16 13.5t15.5 12q-3 3 -13 7t-17 9.5t-7 14.5l2 61q0 7 5 12.5t13 5.5l174 -16q17 0 17 -18l8 -263l-30 -50q-12 -25 -17 -40l39 -10q12 -3 12 -16l8 -262 q0 -19 -16 -19l-291 29q-8 0 -11 5t-4 12.5t-3 10.5l-2 3q0 2 -2 4h-2q-6 -31 -23 -31l-602 59q-16 3 -16 15q0 6 2 10l323 665q3 0 10 5t9 6h-2q27 13 49 30h-17q-20 0 -20 17q0 6 2 10l137 279l-145 -11q-14 0 -19 9t-5 24.5t-1 18.5q0 -3 -20 -28.5t-29 -25.5l-90 -6 l2 -219q0 -18 -16 -18l-164 -15q-15 0 -15 17l-20 276l14 41v-2l6 21l-2 -7v11q0 16 -14 34.5t-14 24.5z" />
<glyph unicode="[" horiz-adv-x="372" d="M43 -68l12 111q3 16 19 16l131 2v672q0 11 26 37q-2 0 -4 2h-2q-20 0 -20 21v677l-127 -40q-25 0 -25 20l6 92q0 17 17 17l241 18q21 0 21 -18v-318q-31 -46 -43 -84q12 4 24 4q7 0 13 -6t6 -12l2 -1225q0 -18 -21 -18l-258 18q-18 0 -18 14zM221 774l4 -2l-2 2h-2z" />
<glyph unicode="\" horiz-adv-x="745" d="M-23 1475q0 16 23 16l186 -29q10 0 13 -14l80 -225q0 -12 -9 -15l-86 -55q28 -4 39 -4h56q30 0 32 -16l398 -1125q2 -4 2 -10q0 -14 -19 -14l-43 2q-13 0 -16 10l-273 610q0 1 -1 4t-1 4q0 6 8 22t9 21h-8q-3 0 -9 -1t-8 -1q-8 0 -14 11l-356 800q0 1 -1.5 4.5t-1.5 4.5z " />
<glyph unicode="]" horiz-adv-x="372" d="M-39 1513q0 18 16 21l314 35h4q13 0 16 -17l13 -122q0 -7 -6 -12t-13 -5h-125l-4 -674q0 -6 -32.5 -49.5t-39.5 -64.5l46 22q4 2 10 2q16 0 16 -18l-2 -508l137 -84q11 -7 11 -14l4 -97q0 -9 -5.5 -14.5t-13.5 -5.5l-221 18q-16 0 -16 17l-93 1347q0 16 15 19l47 16 q-8 8 -26 17.5t-30 18t-12 17.5z" />
<glyph unicode="^" horiz-adv-x="552" d="M29 948l49 135q1 6 17 14t31 21.5t15 34.5q0 17 -9 35.5t-9 19.5q0 9 2 11l51 135q3 10 14 10l142 12q15 0 18 -12l168 -414q0 -20 -18 -20l-101 2q-13 0 -16 10l-37 90q4 9 8 41q-4 -4 -12 -4q-9 0 -16 10l-47 119l-115 -260q-3 -10 -17 -10h-102q-16 0 -16 20z" />
<glyph unicode="_" horiz-adv-x="866" d="M-27 -131l4 59q0 17 19 17l524 20q9 0 15 -6l12 -10q5 -6 16.5 -16t14.5 -13q4 49 24 49l201 6q13 0 16 -8l55 -106q3 -6 3 -11q0 -16 -19 -16l-412 10q-12 0 -16 11l-10 22q-2 -2 -8.5 -17.5t-18.5 -15.5l-401 9q-19 0 -19 16z" />
<glyph unicode="`" d="M346 1673q0 4 2 8l45 136q1 6 6.5 11t10.5 5q4 0 6 -2l379 -119q12 -3 12 -18l-2 -68q0 -18 -17 -18l-423 51q-19 3 -19 14z" />
<glyph unicode="a" horiz-adv-x="915" d="M47 190v17q11 98 25 113q6 6 12 6h18q2 -2 11 -2q23 0 41 24t18 53q0 13 -2 19t-2 8q0 9 8 14l12 9l45 28h-6q-76 0 -118.5 52.5t-42.5 130.5q0 133 137 225v-2q69 57 147 57l41 6q14 0 17 -14l6 -43h6q2 4 4.5 19t7 24.5t12.5 9.5q215 0 267 -194v-11q0 -2 4 -14l6 -33 l-16 -22l2 2l-25 -41l16 6q1 0 4.5 1t4.5 1q8 0 14 -10t6 -19l-10 -153q9 -66 65 -66h74q18 0 18 -16l7 -101q-27 -59 -27 -118v-27l4 2q6 6 14 6q14 0 17 -16l10 -148q0 -7 -5.5 -12.5t-12.5 -5.5l-158 16q-16 3 -16 15q0 38 10 65q-3 0 -6 10h-2q-5 -25 -18.5 -53 t-24.5 -28q-28 0 -55.5 18.5t-43.5 44.5q-111 -80 -241 -80q-121 0 -121 35q0 7 2 17.5t2 11.5v10q-10 -4 -30 -18.5t-25 -14.5q-37 0 -72 71.5t-35 114.5zM244 741q40 0 80 -34l8 -11q6 -6 6 -12q0 -9 -8 -14l-15 -13q1 0 10 6.5t13 6.5q22 0 22 -45q0 -30 -10 -50l2 3 q-14 -43 -45 -74q9 5 36.5 18.5t37 19t31 17.5t31.5 21t23.5 22t21 27t12.5 30q-7 45 -41.5 81t-85.5 36q-21 0 -65.5 -12t-63.5 -23zM334 342q0 -23 15.5 -43t41.5 -20q20 0 39 8l10 2h6q11 0 15 -4l2 2q-2 2 -2 10q0 4 7.5 20.5t17.5 42.5t14 48l-2 92q-2 -2 -47 -33.5 t-81 -66t-36 -58.5z" />
<glyph unicode="b" horiz-adv-x="1005" d="M10 1442q0 20 17 20l317 17q21 0 21 -19v-475q-31 -55 -31 -61q6 6 12 6t12.5 -6t6.5 -13v-90q165 121 276 121q67 0 123 -39v2q43 -21 43 -37q-8 -36 -8 -84l-2 -4q2 -2 2 -6v-8q2 3 9.5 13t13 16.5t12.5 14.5t12.5 12.5t9.5 4.5q5 0 14 -6l13 -10q60 -70 82 -170v2 q10 -30 26 -168q-43 -54 -43 -129q0 -47 21 -90l-6 -20q-41 -134 -122 -196.5t-190 -62.5h-4q-120 0 -266 173l4 -142q0 -13 -16 -16l-113 -12q-7 0 -32.5 12t-43.5 12q-28 0 -54 -19t-32 -20l-53 -6q-14 0 -14 14l16 203q1 3 5.5 7t11 9t8.5 7l6 4h-8q-19 0 -19 20l12 123 q0 13 15 16l88 15l-6 194q0 8 13 15t33.5 14t26.5 10l-2 8q-33 -8 -37 -10l3 2q-6 -6 -25 -6q-14 0 -14 19l-13 471l-90 -11q-14 0 -14 17l-10 137q0 11 13.5 21.5t30.5 18t30.5 21.5t13.5 31q-36 4 -47 4h-13q-3 0 -10 -1t-10 -1q-17 0 -17 17zM78 207q4 2 12 10l-10 -8z M379 453q40 -78 106 -123t133 -45q5 0 13 1t12 1q10 0 14 -15l21 -43q3 40 14 78q70 32 70 133q0 5 -1 13t-1 12v6q0 95 -35.5 149t-91.5 54h-8q-15 -1 -50 -15t-51 -14q-6 0 -12 6l-12 11q-1 -5 -2.5 -17t-3.5 -17t-7 -5q-78 -59 -108 -111v-59z" />
<glyph unicode="c" horiz-adv-x="880" d="M43 451q0 57 6 99t13.5 65t23 39t25.5 21t30.5 12t28.5 11v4q-61 0 -61 21q0 4 4 12q38 78 127.5 148.5t160.5 70.5h2q2 2 9 2t12 -9t11.5 -23t13.5 -21q15 6 37 24.5t28 18.5q13 0 51.5 -17.5t65.5 -33.5h-2q4 -3 13 -7t13 -7l56 -58q0 -59 14 -59q2 0 6.5 1t7.5 1 q14 0 17 -10l8 -15v2q36 -74 39 -116v-13q0 -73 -50 -124.5t-112 -51.5q-21 0 -66 15l-14 8q-14 4 -14 69h-41q-27 0 -27 76v15q3 47 35 79q-46 19 -84 19q-65 0 -110 -39t-63.5 -91.5t-18.5 -111.5q0 -81 38 -127v-22l17 2q52 -40 123 -49q34 0 62 7t43 14t40 22l39 18 l184 14q12 0 15 -6l14 -12l4 -19q-1 -3 -2.5 -9t-7 -22.5t-11 -32t-13 -34t-14.5 -32t-15 -22.5t-15 -9t-13.5 1.5t-10.5 2.5l-4 2q-5 -16 -21 -45.5t-22 -48.5l-17 -15v2q-71 -77 -184 -77h-18q-9 -3 -19 -3h-16q-137 0 -244 113l-6 25q-2 0 -2 1q0 3 -2 5h-6q-10 0 -15 8 q-30 43 -49 97t-26.5 95.5t-20.5 129.5z" />
<glyph unicode="d" horiz-adv-x="1007" d="M6 375q0 8 1 25t1 26v18q0 86 21 162q35 28 57.5 64t22.5 69q0 7 -4.5 20t-4.5 17q0 2 4.5 9t4.5 14q67 125 233 135q9 0 17 -13.5t17 -37t13 -31.5l8 51q0 7 6.5 17t14.5 10q49 0 107 -34.5t102 -86.5l8 178q0 4 2.5 8.5t7.5 9t9.5 8t10 8t7.5 5.5l-29 16q-6 6 -6 15 l10 284q5 5 16 28.5t27 23.5q8 0 12 -2l5 -5q2 4 2 15q0 14 -9 29h-4q-7 -7 -12 -7q-4 0 -17.5 15t-13.5 26l2 39q0 19 21 19l266 -15q16 0 16 -18l5 -84q0 -7 -7 -14.5t-18 -16t-16 -14.5l4 2l2 2q6 6 14 6q6 0 11 -5.5t5 -12.5v-2q0 -16 -14 -19h6q17 0 17 -18l8 -189 q0 -15 -17 -18l-122 -27l53 -725l47 29q4 4 10 4t11.5 -5.5t5.5 -12.5l-2 -123q0 -13 -20.5 -21.5t-20.5 -23.5q0 -16 19 -40t19 -32l-2 -123q0 -18 -18 -18l-299 -11q-18 0 -18 17l-11 137q-65 -76 -86 -76q-3 0 -9.5 7t-16.5 18t-15 16q-15 -64 -43 -89t-110 -25 q-58 0 -115 27.5t-104 76.5t-76 125t-29 164zM236 465q1 -41 11.5 -71.5t22.5 -44t21.5 -26t9.5 -20.5q0 -6 -2 -17.5t-2 -17.5l18 19q8 4 11 4q7 0 27.5 -4.5t29.5 -5.5q72 0 174 79q43 34 64 93l-3 55q-54 77 -117 120.5t-120 43.5t-96 -51.5t-49 -155.5zM903 1329h21 q14 0 20 2h-6q-9 0 -14.5 5.5t-5.5 11.5q0 4 4 12z" />
<glyph unicode="e" horiz-adv-x="874" d="M41 424v18q0 11 2 17v8q0 103 37 190q0 4 13 13t26.5 28t13.5 47v13l35 49q50 50 121 100l57 31q23 0 23 -20l14 24q3 14 33 14h28q148 0 250 -141q0 -17 -6 -44t-6 -38q5 2 16 8.5t20 11.5t13 5q9 0 14 -8q12 -17 22.5 -38.5t17 -39t12 -46t8.5 -42.5t5.5 -46.5t3 -41 t2 -42t1.5 -34.5q0 -19 -18 -19l-273 5q-26 0 -26 53q-3 -5 -8 -20t-10.5 -23t-14.5 -8l-221 4q0 -42 48.5 -80t106.5 -51l29 -50q4 19 8 29.5t13 16t15.5 7t25 4t32.5 5.5q19 4 46 30.5t34 26.5l187 -4q20 0 20 -29q0 -33 -24.5 -86t-71.5 -110l2 4q-18 -18 -34 -23.5 t-44 -5.5l-2 -10q-3 -14 -14 -14h-5l-18 -49l-12 -9q-72 -40 -152 -43q-79 5 -152.5 40t-125.5 98v-3q-37 37 -37 58q0 4 2 6l22 74h-2q-2 -2 -2 -8l-8 -29q-3 -17 -16 -17q-29 0 -52.5 91t-23.5 143zM274 569l310 -4q-14 32 -55 54t-93 22h-16q-8 0 -14 -2q-5 0 -17 4 l-22 25l-7 -11q-3 -6 -10 -6v-4q-6 -6 -10.5 -18t-11.5 -15l-4 -4q-32 -20 -50 -41z" />
<glyph unicode="f" horiz-adv-x="638" d="M33 553l12 174l68 66l-50 41q-6 6 -6 16l4 41q0 13 15 16l71 17v84q0 108 15 190q0 6 6.5 10.5t18.5 9.5t16 7l-19 45q-2 2 -2 6q0 15 15 35v-2l6 20l57 82q90 90 170 90q49 0 116.5 -27t67.5 -65l-8 -106q0 -7 -7.5 -15.5t-14.5 -13t-9 -4.5l23 -25q6 -6 6 -14l-10 -174 q-3 -17 -19 -17q-11 0 -16 11q-40 79 -96 79q-15 0 -19 -2l2 2q-79 -34 -79 -124l-7 -68l111 -4q16 0 16 -21l-4 -98q0 -6 -4 -10t-11.5 -8t-10.5 -6l8 -21q2 -2 2 -8q0 -4 -3 -10.5t-7 -6.5l6 -6q16 0 16 -18l-8 -156q0 -15 -16 -18l-93 -12l5 -140l114 2q19 0 19 -20 l-4 -70q0 -18 -76 -61l65 -113l-4 -137q0 -19 -18 -19l-144 -4q-21 0 -30 56l-103 -56l-118 -4q-19 0 -19 19l4 114q0 16 13 19l18 6l-29 53l6 219q0 7 5.5 14t11.5 7q1 0 3 -1t3 -1l66 -21l-9 129l-92 9q-16 0 -16 18z" />
<glyph unicode="g" horiz-adv-x="1077" d="M78 -135q0 39 34 83.5t81 78.5q-49 26 -66 47l-18 28q-3 3 -3 7q0 7 26 33t32 40h-17q-9 0 -14.5 5.5t-5.5 11.5q0 8 6 14l6 6q1 0 12.5 7.5t29 19t28.5 18.5q-19 11 -41.5 34.5t-22.5 33.5q0 5 16 26t19 27q-6 -5 -23 -11.5t-24 -6.5q-23 0 -38 59.5t-15 108.5v20 q0 80 27 171t57 91h20q48 0 70 74l47 31h-2q46 32 115 32h16q35 0 117 -16l14 -2q9 -2 12.5 -13.5t5 -32t3.5 -28.5q32 43 51 43q6 0 10 -2l12 -6l-2 2q81 -45 115 -108q33 63 84.5 104t118.5 41q18 0 18 -18l-6 -252q0 -7 -6 -14t-12 -7q-11 0 -37 11.5t-39 11.5 q-46 0 -70 -35q2 -10 2 -35v-31q0 -147 -37 -147h-4q-14 0 -28.5 -11t-14.5 -24q0 -9 10.5 -17t12.5 -14q0 7 -4 11q10 -3 10 -13q0 -8 -14 -22l-7 -11q-52 -70 -131 -98h2q-43 -16 -53 -16q-4 0 -12 8l-8 6q-4 1 -8.5 4t-9 8t-7.5 7l4 -5q6 -9 6 -14q0 -6 -6 -12l-8 -8 q-50 -4 -84 -4h-27q-54 0 -92.5 -10.5t-38.5 -24.5q0 -21 105 -29q89 29 170 29q97 0 214.5 -37t117.5 -68q0 -5 -7 -19t-8 -22q6 2 24 12.5t23 10.5q10 0 30 -22.5t34 -43.5v2q33 -47 33 -104v-8q0 -38 -18.5 -90t-41.5 -52q-4 0 -8 2l-33 17l19 -31q4 -4 4 -10 q0 -8 -6 -14q-53 -62 -154.5 -97t-228.5 -35q-174 0 -326 84h2q-45 20 -45 35q0 7 9 25t9 26q0 21 -20 21q-7 0 -24 -13.5t-23 -13.5q-19 0 -32 42t-13 85v23zM272 -139q0 -22 60 -41t149 -19h25q116 0 206 19.5t93 42.5q-5 15 -51 30t-111 19h-8q-14 0 -23 24l-10 25 q-47 -9 -82 -41q-45 0 -86 -8h2l-76 -16q-27 -6 -38 -8.5t-25.5 -7t-19.5 -9t-5 -10.5zM309 549q2 -50 41 -84.5t96 -34.5q56 0 95 35t45 88v4q0 28 -23.5 75.5t-40.5 47.5q-8 0 -12 -2l-25 -6q-20 4 -39 4h-4q-52 0 -86.5 -37.5t-46.5 -89.5zM500 244h2l-2 2v-2z" />
<glyph unicode="h" horiz-adv-x="1060" d="M43 1458q0 19 18 19l324 24q21 0 21 -18l-7 -148q0 -7 -15.5 -21.5t-35.5 -32t-26 -26.5q3 0 6 1t6 1q4 0 8 -2l14 5q3 0 5.5 1t5.5 1h4q2 2 8 2t11 -6t5 -13l-14 -414q143 115 248 115q32 0 69 -11t37 -32q0 -6 -2 -8l-18 -55l41 32q9 9 12 9t12 -9q72 -80 107 -178 t35 -256v-22q2 -4 2 -17v-8l92 2q18 0 18 -16l6 -82q-52 -72 -53 -74q25 21 45 21q12 0 15 -17l20 -202q0 -13 -16 -17l-428 -53q-14 0 -17 16l-14 129q0 6 4 12.5t11.5 14t13.5 12.5t16.5 13t13.5 10q-2 6 -6.5 12.5t-7.5 10t-11 11t-10 9.5l-26 26q-15 0 -15 17l-12 125 q0 14 17 14l108 8l4 72q0 101 -25 156t-63 55h-2q-7 0 -30 -11.5t-37 -11.5q-11 0 -17 15l-2 10q-22 -28 -31 -70q-14 -14 -69 -88l-2 -45q0 -8 -8 -15t-24 -15.5t-22 -12.5q6 -2 17 -2h12q4 2 10 2q13 0 13 -18v-25l86 -2q18 0 18 -18l-16 -367q0 -18 -17 -18l-53 -4 q-10 0 -21 15.5t-23 31.5t-26 16q-16 0 -23 -18.5t-12.5 -37t-17.5 -18.5l-194 -16q-18 0 -21 16l-18 191q0 16 12 22q-16 0 -16 17l-13 147q0 18 15 21l118 22l-2 399q0 9 10 16t25.5 15t22.5 15h-39q-19 0 -19 18v223l-112 2q-19 0 -19 19l-8 194q0 10 14.5 28t14.5 28 q-3 4 -11.5 13.5t-15 18t-6.5 13.5z" />
<glyph unicode="i" horiz-adv-x="540" d="M37 553l12 158q0 10 13 16t35.5 11t33.5 10q-6 3 -17.5 9.5t-19.5 11t-17 11t-13.5 12.5t-4.5 13l7 86q0 16 18 16l281 8q18 0 18 -18l-6 -285q-27 -34 -27 -65q0 -18 13.5 -35.5t13.5 -22.5l-2 -92h106q19 0 19 -20l-8 -133q-3 -5 -11 -15.5t-12 -18t-4 -13.5h8 q14 0 14 -19l-6 -182q0 -19 -18 -19l-156 -4q-28 25 -51 25q-12 0 -26.5 -12.5t-22.5 -12.5l-135 -4q-19 0 -19 19l4 178q0 19 39 41l27 24h-6l-19 19q0 6 2 8l-30 16q-9 3 -9 17l2 108q0 7 5.5 14t11.5 7q1 0 3 -1t3 -1l86 -23l-6 131l-113 9q-16 0 -16 18zM123 231 q7 0 14 7h-6q-1 -1 -2 -3t-2 -2q-2 -2 -4 -2zM131 238l4 4h-2zM137 240h2l-2 4v-4zM150 1464q0 19 16 19l194 10q19 0 19 -18v-371q0 -19 -19 -19q-8 0 -15 7.5t-15 20.5t-15 20q-3 -8 -1.5 -18t-2.5 -19t-16 -9l-107 3q-18 0 -18 16l-6 113q0 8 16.5 26.5t16.5 36.5 q0 17 -10.5 27t-20.5 17.5t-10 16.5z" />
<glyph unicode="j" horiz-adv-x="636" d="M6 -346l8 110q3 12 11 15l24 37l-20 16q-6 6 -6 16l10 136q0 7 5 12.5t11 5.5q10 0 17 -10q53 -68 124 -68q73 0 113.5 41t40.5 115l-6 174q0 9 17.5 32t17.5 33t-19.5 23.5t-19.5 22.5l-6 155l-107 19q-14 3 -14 18l-8 215q0 10 12.5 21t24.5 14q-15 0 -27 6.5t-12 17.5 l-4 101q0 18 18 18h336q18 0 18 -18l2 -326q-35 -60 -35 -94q0 -12 5.5 -17.5t12 -5.5t12 -4t5.5 -14l4 -373q-21 -311 -63 -311h-4q12 -9 12 -25q-49 -103 -113.5 -148.5t-185.5 -51.5h-8q-41 0 -122 26.5t-81 65.5zM43 -219q8 0 8 -19q0 19 -8 19zM334 1462q0 21 16 21 l193 10q20 0 20 -18v-166q-21 -24 -33 -45h15q18 0 18 -19v-141q0 -19 -18 -19l-172 5q-19 0 -19 16z" />
<glyph unicode="k" horiz-adv-x="1044" d="M57 1446q0 18 17 18l311 27q16 0 16 -18v-199q-6 -7 -20.5 -24t-26.5 -32t-22 -32h18q8 0 18 1t15 1q18 0 18 -19v-288q-22 -28 -22 -58q0 -34 24 -61l3 -209q65 81 180 158l6 215q0 18 18 18h74q7 0 21.5 -14t35 -28.5t41.5 -14.5q40 0 60 26l12 17l2 2q2 3 4.5 5.5 t5.5 5t6.5 4t6.5 1.5l77 2q19 0 19 -18l2 -121q0 -8 -16.5 -27t-38.5 -41t-27 -28q8 0 31.5 4t36.5 4q7 0 11.5 -5.5t4.5 -12.5l2 -136q0 -18 -18 -18l-258 -10q-13 -2 -31.5 -5t-32.5 -5t-25 -5l82 -55q7 -7 7 -12q0 -6 -7 -13l-2 -2h2q3 0 7 1t6 1q21 0 59 -63l193 23 q7 0 11.5 -6t4.5 -13l-4 -178q0 -8 -6 -12.5t-17 -6.5t-21 -2.5t-25 -1t-21 -0.5q8 -10 30.5 -28t40 -32.5t17.5 -19.5l-2 -129q0 -18 -21 -18l-133 12q-8 0 -13 6.5t-5 12.5q-3 -17 -15 -17l-196 15q-17 0 -17 18l9 305q0 133 -86 154q-54 -29 -76 -74h78q18 0 18 -18 l10 -383q0 -19 -16 -19l-131 13q-7 0 -12.5 8t-13 25t-11.5 24q-16 -9 -36 -29t-28 -20l-174 18q-16 0 -16 17l-10 182l16 27l-12 10q-8 3 -8 12l-9 115q0 20 21 20l102 -8l-14 350q0 5 5.5 12t15 17t14.5 16q-8 12 -18.5 20.5t-15.5 13t-5 11.5l-12 260l-66 -8 q-16 0 -16 19z" />
<glyph unicode="l" horiz-adv-x="561" d="M61 8v107q31 57 31 110q0 47 -29 90l3 80q0 6 6 11.5t12 5.5l104 -17l11 369q0 13 10 16l39 19q13 3 35 12q-6 4 -30 16t-37 22t-13 19l4 199l-121 29q-14 3 -14 18l-4 168q0 11 8 14l20 15q-30 11 -30 30l-3 129q0 19 19 19l297 -14q18 0 18 -19l-2 -43q-1 -13 -17 -23 t-16 -24q0 -4 5 -10t10 -6v2q16 -3 16 -19l-6 -123l-55 -53q12 4 35 4q16 0 16 -18l-37 -768l146 20q8 0 14 -5.5t6 -12.5l-2 -156q0 -11 -8 -14l-60 -41h25q43 0 43 -21l-2 -145q0 -18 -19 -18l-409 10q-19 0 -19 16z" />
<glyph unicode="m" horiz-adv-x="1417" d="M12 -8l15 201q25 45 32 67q0 1 -16 27v-2q-3 0 -10 26l6 86q0 17 16 17l111 -21v129l-121 21q-14 3 -14 18l-13 334q0 18 17 18l121 11q9 0 29 -13.5t34 -13.5q38 0 76 41l47 2q15 0 18 -14l27 -121q127 137 215 137h12q26 -4 67.5 -27.5t41.5 -46.5q0 -3 -9 -18t-9 -29 q0 -2 4 -22h4q7 0 21 4t18 4q6 0 11 -9t9.5 -21.5t7.5 -16.5q152 178 264 178q25 0 60 -18.5t69 -51t58 -85t24 -111.5q0 -8 -13 -20t-13 -23q-1 -4 11 -15q11 -12 23 -38q11 -24 11 -60v-6l-2 -119l96 4q18 0 18 -18v-66q-10 -23 -10 -65v-8q10 -3 10 -19l3 -235 q0 -19 -17 -19l-100 10q-17 3 -17 19q0 15 5.5 42.5t5.5 39.5l-23 10q-20 -20 -51 -80l-4 -10q-7 -10 -19 -10l-182 18q-16 0 -16 16l-8 101q0 11 8.5 17.5t19.5 6.5q5 0 13 -4v9q-48 22 -48 40l-12 175q0 7 5.5 13.5t11.5 6.5l75 6v74q0 211 -53 217h-6q-6 0 -18.5 -5 t-16.5 -5q-6 0 -6 4h-2q-39 0 -51 -66q-33 -39 -68 -92l8 -129l68 6q16 0 16 -18l-4 -193q0 -12 -6 -14l-12 -8q-12 -6 -21 -15q39 0 39 -20v-125q0 -18 -18 -18l-361 -15q-18 0 -18 19l-2 217q0 16 31 35h-15q-18 0 -18 18v117q0 18 20 18l72 -6l-4 70q-3 208 -55 217h-3 q-6 0 -15.5 -4t-14.5 -4q-4 0 -12 5t-13 5q-13 0 -22 -16t-9 -25v-12q0 -9 -11.5 -25t-28 -36t-23.5 -32l-6 -135l57 -2q19 0 19 -20l-21 -365q0 -16 -16 -16l-56 -2q-12 0 -29.5 18.5t-29.5 20.5q-25 -2 -59 -21l-54 -20q-5 -8 -12 -8l-143 -9q-21 0 -21 21z" />
<glyph unicode="n" horiz-adv-x="1038" d="M14 905q0 19 17 19l141 12q12 0 27.5 -31t29.5 -31q5 9 12 28t14 29.5t17 10.5l86 8q7 0 13 -6t6 -12v-119q120 129 225 129q47 0 112.5 -37.5t65.5 -73.5q0 -5 -0.5 -10t-1 -8t-0.5 -4q0 -3 1 -10t1 -11v-34q19 -7 54 -15q26 0 42.5 -102.5t16.5 -198.5v-22q2 -4 2 -17 v-8l92 2q19 0 19 -16l8 -111q-26 -34 -53 -112q37 14 51 14q11 0 14 -18l12 -125q0 -15 -16 -19l-428 -53q-13 0 -16 16l-43 402q0 14 16 14l106 8l5 72q0 93 -25.5 154t-63.5 61q-12 0 -16 9.5t-2.5 21.5t-1.5 22q-4 -6 -27 -35.5t-32 -48.5l-11 -8q-49 -47 -96 -111 l-4 -141l84 -2q18 0 18 -18l-14 -367q0 -18 -16 -18l-174 -15q-4 0 -12.5 5t-8.5 10q-24 -10 -33 -19l-147 -12q-16 0 -19 16l-34 377q0 18 16 21l119 22l4 141l-119 -6q-20 0 -20 19l-4 129q0 4 1.5 7.5t4.5 7.5t6.5 7t9.5 7.5t10.5 7.5t13 8.5t13.5 9.5l-45 6 q-17 3 -17 19z" />
<glyph unicode="o" horiz-adv-x="880" d="M43 465q0 39 6.5 76.5t16.5 80.5t14 70l8 17q3 12 16 12q42 0 78.5 47t36.5 96q0 13 6 15q96 75 185 75q19 0 30 -7t13.5 -15t5 -23t4.5 -22q27 55 41 55h6q36 -5 102 -35.5t66 -62.5q0 -1 -1 -4.5t-1 -5.5l-17 -50q13 3 21 11l2 2q4 1 10.5 5.5t9.5 4.5q9 0 42.5 -53.5 t33.5 -71.5q0 -6 -7.5 -16.5t-18.5 -23.5t-15 -19h8q8 0 21.5 2t21.5 2q15 0 29.5 -51t22.5 -107q-3 -106 -31 -195l-12 -24v-12q-23 -56 -76 -115l-14 -14q-7 -7 -15 -7h-4q-51 0 -57 -57q-80 -64 -191 -76q-164 0 -280.5 142.5t-116.5 353.5zM158 377q11 1 37 9.5t41 8.5 q9 0 18 -12q17 -43 67 -69.5t107 -26.5h14q19 0 19 -19v-20l4 -6q172 123 172 213q0 72 -57 129q-4 4 -18.5 12t-25 16t-10.5 15q0 8 2 10h-2q-3 -14 -16 -14q-16 0 -46 9t-32 9q-92 -3 -138 -53t-56 -123q-18 -18 -46 -49.5t-34 -38.5z" />
<glyph unicode="p" horiz-adv-x="1011" d="M31 934q0 18 18 18l154 -2q10 0 25 -21.5t26 -25.5q7 7 16 19.5t15.5 19t13.5 6.5h53q19 0 19 -18l6 -150q48 56 119 103l4 4q4 0 11.5 5t16.5 5q8 0 28.5 -6t33.5 -6h14q10 57 55 57q46 0 125 -27h-2q15 -6 25 -18t13.5 -22.5t13 -18.5t26.5 -8h4q12 0 15 -8l10 -15 q49 -71 72 -147l-3 2q17 -42 17 -51q0 -7 -6 -13l-47 -53q35 15 55 15q14 0 14 -17l13 -55v-23q0 -325 -230 -465l-18 -10q-8 -4 -13 -4q-6 0 -12 9.5t-12 11.5q-9 -29 -25 -38t-61 -12q-147 11 -248 134v-271l31 -2q15 0 18 -16l2 -2q0 18 21 18l41 -2q18 0 18 -18l2 -353 q0 -18 -18 -18l-439 2q-18 0 -18 18l-2 332q0 16 14 19l111 22l-6 166q14 17 14 31q0 12 -9 24.5t-9 20.5l-21 424l-82 18q-14 3 -14 19l-4 143q0 6 12 22t14 25l-28 31zM381 406q61 -100 162 -146q5 -2 8.5 -10.5t7 -22.5t6.5 -20q3 6 7.5 13.5t6.5 10.5t4.5 7t5 5t4.5 2.5 t6 2t7 0.5h10h21q120 17 135 211q-4 79 -41.5 125.5t-89.5 46.5h-8q-2 2 -29 2q-43 0 -116 -51t-107 -121v-55z" />
<glyph unicode="q" horiz-adv-x="1042" d="M27 377q0 48 27.5 99t27.5 77q0 9 -7 30t-7 31q0 20 42 91.5t99 138.5t90 67q5 0 14.5 -5t20 -12t14.5 -9q0 4 -2 17t-2 22q0 28 109 28h18q92 -3 170 -41l29 -14q13 -5 22 -104q5 8 14 30t17.5 36.5t15.5 14.5q4 0 11 -1t10 -1h20q20 -1 36.5 15.5t28.5 33.5t23 17 l88 -4q6 0 11.5 -7t5.5 -14l-8 -131q0 -9 -9 -12l-32 -22q-9 -5 -28 -18.5t-28 -18.5q8 -2 34 -4.5t41.5 -8t14.5 -18.5l-8 -162q0 -18 -22 -18l-88 18l-2 -98q0 -7 -5 -13t-10 -6l15 -18l-2 -111q-21 -21 -23 -34l-6 -5q4 -8 4 -12v-2q2 -3 12.5 -14.5t10.5 -20.5v-176 q0 -6 -15.5 -19t-37.5 -30t-31 -27h63q18 0 18 -18v-49l125 -27q15 -3 15 -18l-6 -355q0 -18 -19 -18l-454 -2q-19 0 -19 18l4 340q0 16 17 19l133 18l-6 293q-40 -65 -105.5 -106t-101.5 -41q-17 0 -17 22q4 54 4 88l-32 -45q-4 -4 -11.5 -14.5t-13.5 -19t-13.5 -17 t-13.5 -13.5t-10 -5q-115 12 -197.5 122.5t-82.5 272.5zM250 326l4 -2q15 0 18 -13l13 -18q30 -41 94 -47h4q55 0 123 44.5t123 117.5l-4 73q0 35 -19 65t-41.5 46t-41.5 30t-19 21t2 15.5t2 9.5q0 18 -21 24q-8 -5 -20.5 -18t-22.5 -23t-14 -10q-71 -2 -121.5 -61 t-50.5 -185q0 -15 4 -47q0 -8 -6 -14z" />
<glyph unicode="r" horiz-adv-x="923" d="M43 397q0 23 14 23q1 0 3 -1t3 -1l119 -29v143l-106 5q-19 0 -19 18l-2 111q0 7 8.5 15.5t16.5 8.5v12q16 19 16 29q0 7 -3.5 11t-12 9.5t-14.5 12.5l-7 6q-6 6 -6 12v136q0 18 19 18l155 2q8 0 20.5 -16t16.5 -19l12 23q3 12 17 12l94 2q19 0 19 -18l2 -86q69 81 174 96 q8 0 13 -6t5 -15v-4q6 -16 23 -16q19 0 46.5 23.5t32.5 23.5q38 0 92 -49t54 -82q0 -4 -6 -10l-2 -4h6q18 0 29.5 -39t11.5 -62v-28q0 -144 -94 -197h-13l-20 -10q-28 -4 -43 -4q-38 0 -77.5 7t-39.5 25q0 5 2 9l4 18l-16 -12q-8 -4 -10 -4q-20 0 -37 37.5t-17 56.5v22 q0 83 80 133q-15 9 -28 9q-6 0 -23 -5.5t-25 -5.5q-6 0 -8.5 2.5t-3.5 6t-2.5 12.5t-3.5 16q-30 -30 -33 -73q-58 -64 -78 -175l-2 3v-146l103 8q16 0 16 -18l-2 -94q0 -7 -6.5 -14t-11.5 -7l2 -2q14 -3 14 -18l-6 -252q0 -19 -19 -19l-83 -2q-8 0 -30.5 12.5t-37.5 12.5 q-42 0 -84 -33l-168 -8q-7 0 -13.5 4.5t-6.5 11.5l-5 82q0 8 14.5 26.5t33 41.5t24.5 35q-29 -11 -61 -11q-17 0 -17 17z" />
<glyph unicode="s" horiz-adv-x="944" d="M45 393q0 19 16 19l209 -41q44 -52 115.5 -83.5t132.5 -31.5q34 0 62 22t28 48q0 28 -34.5 39.5t-112.5 11.5h-37q-191 9 -266 78l4 -2q-70 50 -70 67q0 2 4 10l21 31q0 6 2 8l4 4l-6 7l-27 -15q-4 -2 -10 -2q-19 0 -19 76q0 90 49 160.5t138 113.5l4 2q1 0 4 3l29 10 q1 0 4 1t4 1q8 0 14.5 -14t14 -34.5t14.5 -29.5q3 10 3 34.5t4 40t17 15.5h33q43 6 90 6q30 0 66 -4q9 0 22 -15.5t19 -15.5l14 5l5 3q5 3 9 3q7 0 22.5 -10.5t16.5 -10.5v17q0 18 21 18l192 -16q17 0 17 -19l-4 -63q0 -3 -14 -18t-28 -38t-14 -45q0 -42 21 -51h-4l10 -6 q12 -6 12 -18l-12 -119q0 -7 -6 -12t-14 -5l-170 11q-4 0 -25.5 21.5t-40.5 43.5l-20 21q0 4 7 20t7 27q0 2 -4 14q-14 -5 -28 -26t-19 -21q-2 0 -42 11.5t-59 11.5q-45 0 -82 -29v2q-22 -22 -22 -35q0 -59 209 -78h18q94 0 162 -26q10 -5 10 -17q0 -8 -6 -14q9 -27 33 -27 q5 0 14.5 6.5t14.5 6.5q27 0 52.5 -46.5t30.5 -74.5l5 -37q0 -8 -2 -10v2l-3 -4l3 2q0 -11 -11 -11h-12q-6 -6 -10 -6t-8 4q-17 -14 -17 -32q0 -8 22.5 -23.5t22.5 -28.5q0 -47 -61 -112.5t-105 -65.5q-11 0 -20 17t-19 24q-25 -5 -65 -38.5t-45 -33.5h-2q-14 -2 -39 -2h-78 q-95 0 -143 35v-10q0 -18 -17 -18l-182 -13q-20 0 -20 17l-7 110q0 11 2.5 15t7 4.5t5.5 1.5v2q24 27 24 51q-1 23 -23.5 39t-23.5 29zM111 571v2h2z" />
<glyph unicode="t" horiz-adv-x="606" d="M-6 915q0 5 26.5 15.5t61 26.5t49.5 34q6 6 16 6h7q-4 4 -4 11q0 2 4 10q62 95 77 317q0 17 19 17l94 2q18 0 18 -19l-2 -231q0 -4 -4 -12l-22 -23q2 -1 5 -2l4.5 -1.5t4 -1.5t4 -2l3 -2t2.5 -2.5t1.5 -3t1 -3.5t0.5 -4v-86l148 -23q14 -3 14 -18l4 -125 q0 -9 -12.5 -20.5t-13.5 -14.5q10 0 19 -5.5t9 -15.5l7 -198q0 -8 -5 -13.5t-12 -5.5l-45 4q-46 34 -74 62v-27q0 -24 -14 -24q-1 0 -3 1t-3 1l-10 2q0 -2 -1 -5.5t-1 -5.5q0 -4 1 -11.5t1 -12.5v-25q0 -16 2 -22q0 -9 -4 -13l-13 -18l17 -10q16 -16 24.5 -41t24.5 -31l-2 2 q4 -1 8.5 -2t6.5 -1.5t3 -0.5q52 0 105 86q5 8 14 8q20 0 20 -20l-4 -113l-8 -10v2q0 -1 -1 -2t-1 -2q-31 -31 -31 -57q0 -30 23 -50l6 -10q6 -6 6 -14l-4 -58l-2 -8l1 -2q1 -2 1 -6l-2 -49q-57 -57 -147 -57h-9q-27 0 -66.5 13.5t-39.5 33.5q0 9 3 28.5t3 28.5q0 78 -51 90 h-2q-10 0 -22 -6t-19 -6q-25 0 -45.5 90.5t-26.5 169.5q0 8 8 16l9 9q-21 11 -21 24l6 64h-112q-19 0 -19 18l-4 113q0 20 51 41v4h-35q-18 0 -18 18zM68 713l4 2q0 2 -2 2zM541 109q1 0 3 -1.5t3 -1.5q0 -1 1 -1.5l3 -1.5t4 -3q-3 9 -14 9zM561 293l2 2z" />
<glyph unicode="u" horiz-adv-x="1036" d="M23 553l2 176q0 8 7 16.5t19.5 20.5t20.5 22q-7 4 -20 7.5t-20 8.5t-7 15l2 72q0 15 16 19l115 16q11 0 26.5 -19t34.5 -24l19 8q12 3 20 16v3q0 12 5 19.5t10 10t8 2.5l157 25q8 0 13.5 -6t5.5 -13l2 -399q0 -19 -17 -19h-4l-78 7q-8 -57 -8 -113q0 -62 17 -115 q-2 -6 -2 -20v-23q4 2 12 2l20 -8q27 -27 80 -27q103 0 178 140v76q9 4 31 26h-2q-1 0 -4 -1t-4 -1q-19 0 -19 19v53l-92 -10q-20 0 -20 18l-17 350q0 19 19 19l409 16q19 0 19 -16l2 -35q-19 -32 -37 -88q4 1 14 7.5t17 6.5q15 0 18 -16l31 -275q0 -14 -14 -14l-142 14 v-131l115 -2q18 0 18 -20l-8 -125q0 -6 -19.5 -28t-19.5 -38q0 -11 5.5 -15.5t12 -4.5t11.5 -4.5t4 -14.5l-10 -166q0 -7 -7 -11.5t-14 -4.5l-120 6q-5 0 -8.5 2.5t-5.5 7.5t-3 8.5l-3 10.5l-1 6q-15 0 -34 -15.5t-27 -15.5l-101 6q-16 0 -16 19l8 110q-95 -122 -227 -122 q-32 0 -74 10q-8 1 -11.5 6t-3.5 11t-1 16t-4 18l-25 -21q-8 -8 -16 -8q-11 0 -11 8q-99 57 -137 193l-6 29q4 5 8 18q-16 5 -16 72q0 109 16 213l-98 -10q-14 0 -14 18z" />
<glyph unicode="v" horiz-adv-x="1009" d="M16 920q0 18 21 18l225 -16q23 0 29 -93q5 9 13.5 33t17 38.5t20.5 14.5l168 -12q16 0 16 -14l-37 -363q-3 -16 -14 -16q-6 0 -10 2l-19 6l21 -76q-15 -44 -16 -57q8 8 20 8q8 0 14 -14l37 -131l58 282l-15 5q-14 3 -14 18l-10 365q0 18 18 18l166 2q21 -12 33 -12t26 14 l166 4q19 0 19 -18v-82q0 -8 -9.5 -21t-9.5 -24q0 -17 10.5 -25.5t10.5 -15.5l2 -185q0 -15 -17 -18l-159 -20l-47 -185l-15 -12q6 -6 6 -14l-39 -154q-10 -10 -22 -16l12 -23l-37 -151q-3 -15 -16 -15l-61 8q-12 0 -15 13l-10 32v-2l-2 4q0 5 -2 7l-4 4q-2 -3 -7.5 -14.5 t-8.5 -16.5t-9.5 -10.5t-13.5 -5.5l-111 16q-13 0 -16 12l-80 238q-2 2 -2 6q0 7 5 17.5t5 11.5q0 15 -15.5 22t-17.5 17l-71 211l-156 -7q-20 0 -20 19v63q0 3 2.5 6.5t7.5 9.5t10.5 11t15 14t17.5 17h-10q-6 -2 -27 -2q-18 0 -18 18zM291 309l8 -2q-1 0 -3 1t-3 1h-2z" />
<glyph unicode="w" horiz-adv-x="1470" d="M33 858v64q0 18 18 18l324 -8q18 0 18 -19q0 -4 -1 -12t-1 -12q0 -21 2 -25h2q1 2 5.5 21.5t11.5 32t18 12.5h55q19 0 19 -21l-21 -385q0 -8 -5.5 -13t-12.5 -5q-2 0 -10 4l71 -246l72 309l35 64q3 8 16 8h60q11 0 16 -8l16 -29q0 21 3.5 30t17.5 9l78 2q15 0 18 -14 l92 -399l80 296l-12 3q-14 3 -14 18l-7 213q0 18 19 18q8 0 12 -4l8 -8l4 4l-45 55l-2 87q0 18 19 18l391 8q18 0 18 -18v-74q-41 -44 -41 -86q0 -45 31 -55h2q10 -10 10 -19l2 -119q0 -15 -16 -18l-160 -20l-35 -138q-40 -28 -61 -47q7 0 16 1t13 1q18 0 18 -16q0 -1 -1 -3 t-1 -3l-90 -350q-3 -15 -16 -15l-244 35q-14 0 -17 12l-43 152q10 16 13 39q-8 -4 -13 -4q-9 0 -12 14l-49 176l-94 -412q-3 -14 -21 -14l-235 21q-14 0 -17 14l-55 248q0 8 16.5 29t16.5 34q0 7 -6 12.5t-14 8.5l-7 4h2q-8 4 -24 10l-10 14l-31 136l-80 12q-11 3 -14 12 q-8 -8 -13 -8q-1 0 -3 1t-3 1l-80 12q-14 3 -14 19l-6 258q0 7 5.5 13.5t16.5 15t15 12.5q-4 0 -10.5 -1t-10.5 -1q-18 0 -18 18z" />
<glyph unicode="x" horiz-adv-x="1024" d="M59 922q0 18 19 18l153 -4q7 0 16 -11t20.5 -30t17.5 -27q-4 28 -4 45q0 21 18 21l156 -4q18 0 18 -21l-24 -356l69 -39l51 33l-22 379q0 20 20 20l285 -18q10 0 15.5 -20t17.5 -40t37 -20h6q18 0 18 -17l19 -253q0 -18 -15 -21l-119 -22q-6 0 -10 3.5t-10 14t-10 16.5 h-2l6 -34q0 -12 -8 -15l-140 -71l54 -17q12 -4 12 -18q0 -3 -3 -9t-3 -8q9 4 18 9t14 7.5t9 2.5l55 -17h-2l131 -22q14 -3 14 -19l-4 -112q0 -4 -17 -31.5t-17 -50.5t12 -43.5t12 -24.5l-4 -90q0 -18 -16 -18l-359 -13q-18 0 -18 19l-2 141q0 15 8 15l22 20h-12 q-18 0 -18 18v189q0 13 8 18l-31 21l-55 -37q8 -3 8 -14l6 -375q0 -19 -16 -19l-139 15q-8 0 -14 10.5t-12 27.5t-9 23q-3 -23 -13.5 -39t-21.5 -16l-150 16q-16 3 -16 19l-4 69q0 6 16.5 27t16.5 43q0 24 -21.5 53.5t-21.5 36.5l-6 111q0 18 20 18l129 -8l59 33q1 0 3.5 1 t3.5 1q7 0 20 -8.5t23 -8.5t16 6v7q0 2 -4 8.5t-4 9.5q0 11 8 16l37 21l-141 55l-154 6q-18 0 -18 19l-5 184q0 4 10.5 19.5t10.5 25.5q0 7 -10.5 21t-10.5 22z" />
<glyph unicode="y" horiz-adv-x="1060" d="M47 -350q2 2 2 4l33 129q0 5 8 10.5t20.5 13t18.5 13.5q-5 7 -12.5 16t-12 15t-4.5 10q0 1 1 3t1 3l45 164q0 6 5.5 10t11.5 4q11 0 18 -10q52 -98 142 -98q7 0 13.5 1t8.5 1q7 0 25 -21t26 -22v43q0 7 8 13t26.5 16t31.5 20l-80 239q0 1 -1 2t-1 2q0 6 9.5 16t24 23 t19.5 19q-28 4 -41 4h-16q-16 0 -19 14l-86 262l-147 -39q-4 -2 -8 -2q-17 0 -17 21l2 133q0 9 14.5 25t14.5 24q0 6 -13.5 17t-13.5 22l2 121q0 18 19 18l117 6q6 0 22.5 -17t30.5 -17q13 0 39.5 20.5t34.5 20.5l155 6q19 0 19 -19l2 -344q0 -15 -15 -18l-36 -10l26 -101 q0 -5 -7 -16.5t-7 -20.5q0 -20 20 -28.5t21 -14.5l33 -112l86 299l-27 -8q-18 0 -18 18l2 100q0 5 10 16.5t10 26.5q0 13 -10 29.5t-10 19.5l4 160q0 19 16 19l127 14q9 0 15 -6.5t11.5 -17.5t8.5 -15q0 43 18 43l221 23q17 0 17 -21l-21 -391q0 -18 -18 -18l-88 -3 q-16 0 -19 15l-6 10h-6q0 -3 1 -4t1 -4q0 -19 -18 -19l-25 -2l-67 -190q-28 -14 -72 -49q4 -3 15.5 -5.5t19.5 -7t8 -12.5q0 -2 -1 -4.5t-1 -3.5l-90 -258l2 4q-1 -5 -2 -16.5t-1.5 -17t-2 -15t-3 -14t-4.5 -10t-7 -7.5t-9 -2t-16 4t-13 6l-18 -32l37 -29q4 -2 4 -8 q0 -45 -33.5 -94.5t-70.5 -83.5q-106 -101 -166 -101q-5 0 -17 11.5t-18 13.5v-21q0 -26 -94 -26h-6q-103 0 -181 78q-8 4 -8 12zM123 750l6 -2q0 2 -2 2h-4z" />
<glyph unicode="z" horiz-adv-x="1005" d="M43 854v55q0 19 18 19l187 8q6 0 16.5 -15.5t24.5 -37.5t24 -31q4 16 4 22v48q0 18 19 18l399 16q19 0 19 -18v-20q0 -9 2 -13q2 5 6.5 17t7.5 18l2 4q0 6 6 11.5t13 5.5l79 4q9 0 15 -5.5t6 -11.5t-4 -10l-146 -229q-7 -11 -14 -11h-2q-28 0 -47 -22.5t-19 -52.5 q0 -3 3.5 -13t3.5 -16q0 -2 -4 -10l-148 -236h53q7 0 16.5 -9t21 -22t16.5 -18l4 35q0 16 18 16l76 2l4 125q0 19 20 19l58 -4q6 0 20.5 -22t20.5 -26q4 5 4 16.5t3 19t15 7.5l43 -2q19 0 19 -18l6 -170q-26 -33 -33 -64h16q19 0 19 -18l8 -227q0 -19 -16 -19l-471 43 q-6 0 -15 10t-12 23q-7 -4 -16 -11t-15.5 -11.5t-11.5 -4.5l-264 25q-17 3 -17 18q0 8 5 13l139 194q31 16 51 43q0 1 -3 6t-3 9q0 8 4 14l168 231l-195 -10l4 -92q0 -18 -16 -18l-158 -13q-17 0 -20 17l-19 196q0 7 25 38t25 52v7q4 16 4 18q0 20 -35 55l-12 10 q-9 2 -17 8.5t-8 14.5z" />
<glyph unicode="{" horiz-adv-x="518" d="M27 692v68q0 13 8 16q87 46 122 106t56 169q0 5 23.5 23t23.5 34q0 8 -12 25t-12 22q0 26 30 84q30 75 68.5 122.5t114.5 82.5q2 2 8 2q7 0 12.5 -5.5t5.5 -13.5l2 -127q0 -13 -12 -16q-41 -20 -65.5 -68.5t-33 -100.5t-23.5 -127.5t-34 -125.5q-2 -6 -17.5 -18 t-15.5 -31v-14q0 -1 1.5 -3t1.5 -3q0 -26 -52 -66q9 -8 17.5 -17t15 -16.5t13.5 -21t11.5 -20t10.5 -23l8 -22t8 -25.5t7 -23.5t7 -26t7 -24.5v2l22 -78q11 -32 28.5 -111.5t31.5 -99.5q9 -14 38 -34t29 -29l-8 -138l-24 -14q-65 33 -117.5 98.5t-77.5 129.5t-25 112 q0 4 13.5 16.5t13.5 30.5q0 24 -16 37l-37 23q-26 74 -60.5 128.5t-93.5 92.5q-2 -2 -6 -2q-6 0 -11 5.5t-5 14.5z" />
<glyph unicode="|" horiz-adv-x="186" d="M-43 1458q0 18 14 21l154 26q18 0 18 -18l-10 -307l-33 -39q-8 0 -8 -11l6 9l-6 -15h8q7 0 9 2q10 0 12 -2h8v-8l1 -2q1 -2 1 -6l-39 -1235q0 -18 -16 -18l-43 -5q-8 0 -14.5 6t-6.5 13l-2 690q0 9 6 12l33 35l-2 4q-16 -6 -24 -6q-15 0 -15 17z" />
<glyph unicode="}" horiz-adv-x="518" d="M18 1425l25 19q75 -27 118 -77.5t77 -129.5v-6q-2 -6 -2 -21v-53l2 2q4 4 10 4q11 0 18 -14l10 -39q2 -7 11 -43t12 -46t12 -42t15.5 -44.5t17.5 -38t22.5 -38.5t27 -30.5t34 -28.5t39.5 -19q12 -3 12 -16l-2 -74q0 -13 -12 -16q-39 -19 -67 -52.5t-41 -60.5t-33 -78v2 l-25 -57q-57 -40 -57 -88v-4q0 -4 -1 -8l-1 -4q0 -11 7 -29t7 -23l-16 -57q-15 -43 -43.5 -89t-72 -84t-85.5 -38q-12 0 -12 19l2 141q0 15 12 18q24 6 41 25.5t28.5 55t17 62t13.5 74.5l8 29l-2 -2q32 216 129 297l-10 10q-6 6 -6 15q0 8 6 30.5t6 34.5v8q-2 0 -18 10.5 t-27 10.5q-4 0 -12.5 -1t-11.5 -1q-6 0 -9 3t-4.5 7t-5 14.5t-6.5 18.5l-8 20q-9 44 -16.5 104t-12.5 97t-16 76.5t-31.5 63.5t-52.5 36q-12 3 -12 14z" />
<glyph unicode="&#xa1;" horiz-adv-x="561" d="M33 350q0 18 14 21l90 22l47 637q3 17 15 17q6 0 12 -3l117 -49q12 -4 12 -14l31 -211q0 -13 -29 -47t-29 -49q0 -22 20.5 -35t41 -21t20.5 -18l25 -174l61 -33q8 -3 8 -16l11 -201q0 -11 -8 -14l-27 -23q20 0 27.5 -3.5t7.5 -16.5l6 -123q0 -19 -21 -19l-407 23 q-17 0 -17 16l-12 148q10 20 23 86q-4 0 -10 -2t-7 -2q-11 0 -14 18zM57 1278v29q0 82 61.5 134.5t145.5 57.5q62 -5 114 -39t77 -88q13 -29 16 -57q0 -8 -6 -17l-66 -45q-23 -20 -82 -59l99 6q18 0 18 -16q0 -30 -57.5 -63.5t-100.5 -33.5h-12q-60 0 -120 35t-60 70 q0 14 14.5 49.5t14.5 36.5q-6 -4 -20 -11t-17 -7q-19 0 -19 18z" />
<glyph unicode="&#xa2;" horiz-adv-x="880" d="M61 666q0 19 1 36t3.5 34t4.5 28.5t6.5 29t6.5 25.5t7.5 27.5t7.5 25.5q9 13 47 25.5t43 15.5v5q-61 0 -61 20t12.5 43t32.5 43t44.5 39.5t49 35.5t44.5 28t33 19l13 7l-16 285q0 17 14 20l156 27q16 0 16 -19l-8 -307q4 2 17 2q3 -1 59 -24l55 -27h-2q15 -11 27 -14 l26 -31q12 -14 20.5 -35.5t13 -35.5t9.5 -15q1 0 6 1t9 1q13 0 16 -10l6 -15q38 -72 41 -114v-13q0 -74 -50.5 -125t-113.5 -51q-29 0 -63 15l-14 8q-15 2 -15 69h-41q-13 0 -16 13l-6 10l-6 -268q12 4 26 10t31.5 14.5t26.5 12.5l38 18l185 16q11 0 14 -6l14 -12l5 -18 l-37 -105q-24 -55 -41 -55q-5 0 -10.5 0.5t-9 0.5t-6 0.5t-3.5 0.5q-2 -5 -19.5 -38t-23.5 -54l-16 -15v2q-71 -77 -185 -77l-10 -342q0 -19 -16 -19l-47 -2q-17 0 -17 18v345q-113 11 -207 110l-6 23q-2 2 -2 4t-2 4h-6q-67 0 -111 330zM256 692q0 -85 39 -127v-22l16 2 q37 -29 84 -43v37q0 6 4 14l33 35l-2 2q-9 -1 -14.5 -3.5t-7.5 -2.5q-17 0 -17 16l-20 318l-33 -23q-82 -73 -82 -203zM506 879q10 20 26 36q-9 5 -24 9z" />
<glyph unicode="&#xa3;" horiz-adv-x="919" d="M41 350q0 14 14 17l117 28l8 137l-104 5q-19 0 -19 20l27 338q0 13 12 16l68 21q15 133 39 221q3 8 27 23t57.5 34t48.5 31l-72 49q-12 6 -12 17q0 2 4 10q70 88 135 129t144 41q89 0 189.5 -24t100.5 -56l21 -338q0 -9 -5.5 -14.5t-13.5 -5.5q-30 0 -71.5 41t-75.5 90 l-96 -45h-49q-67 0 -101.5 -42.5t-34.5 -121.5v-19q0 -12 2 -18l99 2q18 0 18 -18l4 -107q0 -10 -13 -22t-39 -28l-26 -16l39 -92l29 4q16 0 16 -16l4 -70q0 -15 -16 -18l-135 -18v-146l422 -20q15 0 18 -15l56 -331q0 -7 -5.5 -12t-13.5 -5l-303 -14q-79 48 -133 59 l-10 -53q-3 -14 -19 -14l-264 -11q-15 0 -18 15z" />
<glyph unicode="&#xa5;" horiz-adv-x="1009" d="M14 1464q0 19 21 19l467 -29q16 0 16 -20l-20 -318q0 -13 -15 -16l-37 -10l84 -306l48 297h-5q-8 0 -14 5t-6 14l10 366q0 17 17 17l391 20q20 0 20 -20l-39 -393q-3 -17 -20 -17l-137 6l-148 -458l205 32q16 0 16 -20l-6 -111q0 -16 -16 -16l-199 -12l10 -84l185 -13 q16 0 16 -18l-2 -76q0 -18 -18 -18l-197 2l-8 -273q0 -18 -19 -18l-258 -10q-17 0 -20 18v264l-174 4q-19 0 -19 15l11 114q3 17 18 17l193 -6l-13 96l-164 -14q-17 0 -20 14l-18 113q0 8 5.5 14t12.5 6l176 6l-166 432l-125 15q-16 0 -16 16z" />
<glyph unicode="&#xa8;" d="M338 1702v4q0 42 28.5 72t67.5 30h8q42 0 70.5 -27t28.5 -69v-6q0 -42 -31.5 -71t-71.5 -29q-39 0 -69.5 28t-30.5 68zM647 1706v2q0 42 30.5 72t74.5 30h4q41 0 68.5 -31t29.5 -71v-4q0 -38 -30.5 -69t-73.5 -31q-41 0 -68 28t-35 74z" />
<glyph unicode="&#xa9;" horiz-adv-x="1703" d="M76 721q0 156 61 298.5t164 245t244.5 163.5t296.5 61q209 0 385.5 -103t279.5 -279.5t103 -385.5q0 -155 -61 -296.5t-163.5 -244.5t-245 -164t-298.5 -61q-155 0 -296.5 61t-244.5 164t-164 244.5t-61 296.5zM166 719q0 -138 53.5 -264t144.5 -217t217 -145t265 -54 q137 0 263.5 54t218 145t146 217t54.5 264q0 137 -54.5 263.5t-146 218.5t-218 147t-263.5 55q-139 0 -265 -55t-217 -147t-144.5 -218t-53.5 -264zM541 780q0 35 14 76l16 45q4 6 17 12t31 11.5t24 7.5v4q-49 0 -49 18q0 30 44.5 74t104 76.5t99.5 32.5q6 0 10.5 -7 t9.5 -18t10 -16q8 3 19.5 12t21 15.5t11.5 6.5q10 0 51 -18l47 -22h-2q15 -11 22 -13l43 -45q5 -47 13 -47q3 0 6 1t6 1q11 0 14 -10l6 -10v2q30 -66 33 -95v-8q0 -61 -43.5 -101t-91.5 -40q-23 0 -53 10l-10 8q-13 0 -13 56h-32q-23 0 -23 59v10q3 36 29 66q-52 14 -68 14 q-77 0 -117.5 -58t-40.5 -134v-27q6 -43 31 -74v-18l14 2q48 -41 113 -41q17 0 34 4t24.5 7t26 12.5t22.5 11.5l30 14l154 10q8 0 10 -2l10 -12l7 -14v2q2 0 2 -2q0 -12 -26 -70.5t-42 -58.5q-8 0 -15.5 2t-9.5 2l-6 -15q-16 -28 -28 -59l-13 -12v2q-59 -62 -151 -62h-15 q-2 -2 -14 -2h-14q-123 0 -201 90l-6 21q0 2 -2 4l-4 -2q-34 0 -62 105t-28 206z" />
<glyph unicode="&#xab;" horiz-adv-x="573" d="M14 682l19 133q0 4 8 12l223 166q4 4 12 4q5 0 10.5 -4t6.5 -10l22 -121l209 129q8 4 11 4q18 0 18 -22l-27 -115l-137 -127l129 -98l19 -119q0 -22 -17 -22q-2 0 -10 4l-191 108l-8 -104q-3 -19 -18 -19q-6 0 -10 4l-260 181q-9 6 -9 16zM160 752l78 -54l12 109z" />
<glyph unicode="&#xad;" horiz-adv-x="622" d="M78 831q0 19 10 19l195 10q5 0 12 -19t14.5 -47t9.5 -34q8 104 23 104l170 10q9 0 12 -14l25 -215q0 -18 -12 -18l-60 2q-11 0 -18 37l-19 -27q-1 -3 -3.5 -5t-4.5 -2l-2 -1l-233 8q-13 0 -13 12l-8 33q-7 -43 -22 -43h-62q-12 0 -12 18z" />
<glyph unicode="&#xae;" horiz-adv-x="991" d="M86 1124q0 159 118 274t294 115q179 0 298 -112.5t119 -276.5q0 -102 -54 -190.5t-150.5 -142.5t-212.5 -54q-176 0 -294 115t-118 272zM164 1124q0 -124 92 -219.5t240 -95.5q144 0 249 91.5t105 223.5q0 120 -102.5 217t-251.5 97q-148 0 -240 -95.5t-92 -218.5z M369 907v420h149q60 0 95.5 -35.5t35.5 -97.5q0 -42 -16 -68.5t-53 -50.5l75 -168h-88l-71 154h-45v-154h-82zM451 1149h69q45 0 45 45q0 49 -45 49h-69v-94z" />
<glyph unicode="&#xaf;" d="M346 1747q0 18 19 18l409 17q16 0 19 -17l24 -112q0 -13 -18 -13l-432 9q-19 0 -19 18z" />
<glyph unicode="&#xb0;" horiz-adv-x="954" d="M117 1208q0 78 26.5 140.5t75.5 104t110 68t136 40.5q106 -10 195 -60t131 -141q-7 -21 -7 -35q0 -53 35 -94v-23q-5 -83 -44 -162t-112.5 -134.5t-162.5 -55.5h-19q-46 0 -121 23q-8 2 -17 23.5t-11 23.5q-4 2 -6 8l-17 -16q-7 -11 -12 -11q-2 0 -10 4 q-71 40 -116.5 122t-53.5 175zM193 1210q0 -152 143 -235l24 -12q11 -6 26 -10t24 -6t30.5 -5t26.5 -4h6q114 0 190 78t76 194v13q0 98 -78.5 178t-179.5 80h-16q-12 0 -39 -5.5t-43 -5.5q-8 0 -14 9l-4 2q-19 -19 -51.5 -47.5t-49 -45.5t-36 -44t-27.5 -59.5t-8 -74.5z" />
<glyph unicode="&#xb1;" horiz-adv-x="749" d="M49 430q0 19 19 19l221 8l-2 69q10 23 22 35h-6q-18 0 -18 19v45l-121 -9q-18 0 -21 17l-20 198q0 8 5.5 13.5t12.5 5.5h29q10 0 17 -14t16.5 -28.5t27.5 -14.5q14 0 23 22v-2q1 3 1 15t3.5 19t13.5 7h15l4 170q0 18 18 18l162 2q16 0 16 -18l2 -166l50 -4q16 -3 16 -16 q0 -3 -8 -43q4 3 17.5 18t25.5 25t20 10h15q18 0 18 -19l8 -190q0 -18 -16 -18l-139 14l-7 -170l193 8q15 0 18 -14l37 -217q0 -17 -18 -17l-86 2q-9 0 -15.5 9t-9 17t-2.5 11l-28 -28q-7 -7 -15 -7l-340 7q-10 0 -14 5.5t-7 20.5t-7 25q-2 -4 -7.5 -21t-10.5 -22.5 t-13 -5.5l-92 2q-19 0 -19 18zM375 426q7 -13 15.5 -37.5t10.5 -28.5q1 6 5.5 30.5t7.5 37.5z" />
<glyph unicode="&#xb2;" horiz-adv-x="659" d="M94 1634q0 11 10 11l95 6q10 0 10 -9v-36q73 51 151 51q52 -5 124.5 -37.5t72.5 -60.5q0 -4 -2 -15t-2 -16q0 -32 12 -62q2 0 8 -1t10.5 -1.5t8.5 -3t4 -6.5v-14q0 -104 -57 -150q-44 -37 -60 -37q-3 0 -11.5 6.5t-12.5 6.5q-13 0 -32.5 -22.5t-21.5 -22.5 q-30 -14 -46.5 -22t-45.5 -25t-44.5 -34.5t-16.5 -35.5l69 -2q24 -15 48 -15q19 0 41 11l155 -4q8 0 8 -9l4 -30q-3 -7 -8 -23.5t-8 -23.5v2l-10 -31q2 1 12.5 8.5t15.5 7.5q9 0 9 -8l10 -67q0 -9 -8 -9l-219 -10q-4 0 -19 13.5t-24 15.5q-7 -5 -16 -13.5t-14.5 -14 t-8.5 -5.5l-174 -8q-11 0 -11 8l13 156q0 73 80.5 139t179.5 102q71 44 71 88v9q0 5 -4 13t-4 9q0 4 2 6l2 4l-14 13q-2 -2 -6 -2l-4 2l-4 4q-37 26 -82 26q-7 0 -20 -2t-19 -2h-2q-5 0 -9 5t-7.5 15t-4.5 13q-12 -13 -28.5 -41.5t-29 -49t-17.5 -20.5l-78 5q-9 0 -9 10 l-6 121l37 51l-31 -10q-8 0 -8 8z" />
<glyph unicode="&#xb3;" horiz-adv-x="710" d="M127 1163q0 8 8 8l94 -8q-1 0 12.5 -14.5t30.5 -31t23 -21.5v2q27 -14 37 -15l22 -34q1 3 2.5 12.5t4.5 14.5t8 5h10q42 0 72 17t30 47v10q0 29 -22.5 45.5t-59.5 16.5h-8q-8 0 -8 8l-4 94q0 8 8 8q49 5 71.5 19.5t22.5 46.5v4q0 2 -1 7.5t-1 8.5q0 8 6 10l2 2l-6 17 l-10.5 -3.5t-9.5 -2.5l-5 2l-14 7t-18 8t-21.5 6.5t-21.5 2.5h-23q-6 0 -17 -2t-19 -2q-5 0 -9 7t-7.5 18t-6.5 16q-5 -17 -14 -59l-21 -17q-3 -3 -10 -13.5t-13 -19t-10 -8.5l-77 2q-9 0 -9 9l-4 108q15 23 15 43q0 11 -10.5 27t-10.5 20v31q0 8 8 8l109 12q8 0 8 -8 l-6 -30q70 47 141 47h8q78 0 154 -58t76 -143v-18q0 -22 -8 -43l-4 -11q-3 -6 -7 -6q-11 0 -16 8v-39q0 -17 -22 -38.5t-37 -30.5q62 -34 84 -109h-2q2 -2 2 -8l4 -10q0 -1 -1 -3t-1 -3l-2 -2q-19 -24 -19 -41q0 -14 12 -23l5 -2q6 -3 6 -8q0 -7 -17 -41q-33 -59 -74.5 -87 t-115.5 -40q-4 0 -17.5 14t-19.5 17q-7 -3 -19 -14t-16 -11q-52 8 -94 39v-35q0 -8 -10 -8l-97 -2q-10 0 -10 8l-6 115q12 19 19 47q-1 0 -5 -2t-6 -2q-8 0 -8 10z" />
<glyph unicode="&#xb4;" d="M352 1700q0 13 13 16l378 107h7q11 0 14 -11l49 -131q0 -17 -14 -20l-422 -55q-14 0 -17 18z" />
<glyph unicode="&#xb5;" horiz-adv-x="1036" d="M41 553l2 176q0 8 7 16.5t19.5 20.5t20.5 22q-7 4 -20 7.5t-20 8.5t-7 15l2 72q0 15 16 18l115 17q11 0 27 -19t35 -24l18 8q12 3 20 16v2q0 12 5 20t10 10.5t8 2.5l158 25q8 0 13 -6t5 -13l2 -399q0 -19 -16 -19l-82 7q-8 -57 -8 -113q0 -65 16 -115q-2 -6 -2 -20v-23 q4 2 12 2l21 -8q27 -27 80 -27q103 0 178 140v76q9 4 31 26h-2q-1 0 -4.5 -1t-4.5 -1q-18 0 -18 19v53l-92 -10q-21 0 -21 18l-16 350q0 19 18 19l410 16q18 0 18 -16l2 -35q-17 -28 -36 -88q4 1 13.5 7.5t16.5 6.5q16 0 19 -16l30 -275q0 -14 -14 -14l-141 14v-131l114 -2 q19 0 19 -20l-8 -125q0 -6 -19.5 -28t-19.5 -38q0 -11 5.5 -15.5t12 -4.5t11.5 -4.5t4 -14.5l-11 -166q0 -7 -6.5 -11.5t-13.5 -4.5l-121 6q-5 0 -8.5 2.5t-5.5 7.5t-3 8.5l-3 10.5l-1 6q-15 0 -34 -15.5t-27 -15.5l-100 6q-17 0 -17 19l9 110q-95 -122 -228 -122 q-84 0 -90 28h-10q-51 0 -70 -31v3q-2 -2 -2 -7q0 -19 91 -34t91 -29q0 -6 -2 -10l-61 -154l-12 10l4 -10q-43 11 -105 31q15 79 17 125q-74 -57 -105 -88q-54 27 -84 67t-30 82q0 11 4 35l6 27q55 -11 151 -23q-15 15 -51.5 45t-52.5 47q29 29 57 41q-20 38 -28 78l-7 29 q5 7 9 18q-17 5 -17 72q0 102 17 213l-99 -10q-14 0 -14 18z" />
<glyph unicode="&#xb6;" horiz-adv-x="835" d="M14 905q5 69 54 122.5t118 53.5l490 -30l-12 127q0 16 18 16l82 -4q18 0 18 -19l4 -284q0 -19 -18 -19l-145 6l-50 -735q-4 -18 -16 -18q-6 0 -12 6l-25 18q-6 3 -6 13l-41 684l-12 10l-47 -743q-3 -15 -19 -15q-15 0 -18 12l-10 54l53 700l-60 8q-12 -59 -59 -97 t-100 -38h-13q-73 0 -120 53t-54 119z" />
<glyph unicode="&#xb7;" horiz-adv-x="507" d="M61 733q0 5 16 19t39 33t34 30q-35 35 -35 49q0 4 2 8l4 7q70 63 135 63h14q47 0 82 -14h-2q58 -20 58 -41v-74q0 -15 4 -43q6 8 19.5 19.5t23.5 11.5q22 0 22 -66v-14q0 -65 -51.5 -123.5t-106.5 -58.5q-6 0 -12 6t-13 16t-11 14l-27 -16v-6q0 -18 -16 -18 q-48 0 -93.5 38t-66.5 84q-19 43 -19 76z" />
<glyph unicode="&#xb8;" horiz-adv-x="954" d="M242 -180q0 8 4 12l65 96q9 9 13 9q2 0 12 -5q62 -45 113 -45q14 0 29.5 8.5t15.5 20.5q0 16 -83 44t-83 42q0 6 2 8l69 140l15 6q2 2 8 2t8 -2q126 -54 190 -119t64 -133q0 -72 -60.5 -116t-144.5 -44q-44 0 -140.5 23.5t-96.5 52.5z" />
<glyph unicode="&#xb9;" horiz-adv-x="481" d="M98 936l2 86q0 3 4 7.5t11.5 11t9.5 8.5l-14 4q-9 0 -9 8l2 63q0 11 11 11l84 2l-13 237q13 30 13 39q-6 3 -6 8t4 9l10 10l-6 6q-8 -8 -11 -8q-8 0 -8 10l-2 27h-63q-8 0 -8 10v26q0 4 6 10t17.5 14t12.5 9q-4 2 -12 2h-14q-8 0 -8 8v45q0 11 10 11l8 -2q25 0 45.5 16 t50.5 51q0 4 8 4l70 -4q8 0 8 -10l-2 -68l-12 -12l8 -4q4 -4 4 -8l-4 -84q-20 -33 -20 -66q0 -26 18 -47l-2 -59q0 -4 -4 -8l-16 -17q6 -15 6 -28q12 0 12 -9l-6 -157l35 10l6 -2q2 1 3 3.5t3 4.5l43 14l2 2q10 0 10 -10l-8 -178q0 -8 -8 -8l-74 -2q-6 0 -8.5 5.5t-3.5 17 t-2 16.5q-7 -3 -18 -13.5t-20 -19t-11 -8.5l-136 -2q-8 0 -8 8z" />
<glyph unicode="&#xbb;" horiz-adv-x="534" d="M12 504q0 4 2 6l25 115l143 125l-133 102q-6 6 -6 14l-10 103q0 20 18 20q2 0 10 -4l162 -123l17 121q3 16 16 16q7 0 16 -6l224 -200l16 -101q0 -13 -8 -18l-219 -187q-8 -4 -13 -4q-11 0 -18 17l-23 123l-188 -131q-10 -5 -12 -5q-8 0 -13.5 5t-5.5 12zM293 799 l18 -107q0 -3 -1 -6t-1 -6l86 49z" />
<glyph unicode="&#xbc;" horiz-adv-x="1343" d="M76 61l481 730q11 1 59.5 7t75.5 11q-45 23 -84 59l492 746q5 8 16 8q13 0 19 -14l53 -181q0 -12 -4 -16l-203 -256q-28 4 -39 4q-32 0 -65 -10l41 -74l-799 -1012l2 3l-15 -25zM166 733l2 86q0 3 4 7.5t11.5 11t9.5 8.5l-15 4q-8 0 -8 8l2 64q0 10 10 10l84 2l-12 237 q12 28 12 39q-6 3 -6 9q0 4 4 8l10 10l-6 6q-2 -2 -3.5 -4.5t-2.5 -3t-4 -0.5q-8 0 -8 10l-2 27h-64q-8 0 -8 10v27q0 4 6.5 10t17.5 13t13 9q-4 2 -12 2h-15q-8 0 -8 9v45q0 10 10 10l9 -2q25 0 45.5 16t50.5 52q0 4 8 4l70 -4q8 0 8 -11l-2 -67l-12 -13l8 -4q4 -4 4 -8 l-4 -84q-21 -35 -21 -65q0 -25 19 -47l-2 -60q0 -4 -4 -8l-17 -16q6 -15 6 -29q13 0 13 -8l-7 -158l35 10l6 -2q2 1 3.5 3.5t3.5 4.5l43 15l2 2q10 0 10 -10l-8 -179q0 -8 -9 -8l-73 -2q-6 0 -9 5.5t-4 17.5t-2 16q-7 -3 -18 -13.5t-20 -19t-11 -8.5l-135 -2q-8 0 -8 8z M733 233l12 115l129 195q0 4 7 4q9 0 28 -4.5t25 -5.5l-31 41q0 1 -1 3t-1 3t1 3t1 3l107 160q4 4 8 4l96 -4q8 0 8 -11l-4 -90q-24 -29 -31 -41q12 6 21 6q8 0 8 -8l-12 -260l102 2q11 0 11 -10l2 -88q0 -8 -9 -8l-88 -9v-40l80 2q8 0 8 -9l2 -24q0 -5 -15 -25t-15 -33 q0 -28 22 -28h6q9 0 9 -8l8 -80q0 -11 -10 -11l-130 -2q-15 6 -28 14t-21 9l-2 -14q0 -9 -8 -9l-104 -2q-9 0 -9 9v108l7 6q-7 4 -7 8l3 84q0 9 8 9l88 -2l-4 36l-117 -2q-1 0 -14 3t-29.5 7.5t-22.5 8.5l-4 -15q0 -6 -8 -6l-74 -2q-8 0 -8 8zM860 348h139v217l-69 -104 q-5 -6 -17 -13t-19 -14.5t-7 -21.5q0 -2 1 -6t1 -7q0 -4 -2 -6z" />
<glyph unicode="&#xbd;" horiz-adv-x="1261" d="M27 61l481 730q11 1 59.5 7t75.5 11q-45 23 -84 59l492 746q5 8 16 8q12 0 18 -14l54 -181q0 -12 -4 -16l-203 -256q-28 4 -39 4q-33 0 -66 -10l41 -74l-798 -1012l2 3l-15 -25zM98 735l2 86q0 3 4 7.5t11.5 11t9.5 8.5l-14 4q-9 0 -9 8l2 64q0 10 11 10l84 2l-13 238 q13 30 13 38q-6 3 -6 9q0 4 4 8l10 10l-6 6q-8 -8 -11 -8q-8 0 -8 10l-2 27h-63q-8 0 -8 10v27q0 4 6 10t17 13t13 9q-6 3 -12 3h-14q-8 0 -8 8v45q0 10 10 10l8 -2q25 0 45.5 16t50.5 52q0 4 8 4l70 -4q8 0 8 -11l-2 -67l-12 -13l8 -4q4 -4 4 -8l-4 -84q-20 -33 -20 -65 q0 -26 18 -47l-2 -60q0 -4 -4 -8l-16 -16q6 -15 6 -29q12 0 12 -8l-6 -158l35 10l6 -2q2 1 3 3.5t3 4.5l43 15l2 2q10 0 10 -10l-8 -179q0 -8 -8 -8l-74 -2q-6 0 -8.5 5.5t-3.5 17t-2 16.5q-7 -3 -18 -13.5t-20 -19t-11 -8.5l-136 -2q-8 0 -8 8zM684 725q0 10 10 10l94 6 q11 0 11 -8v-37q74 52 151 52q52 -5 124.5 -38t72.5 -61q0 -4 -2 -15t-2 -16q0 -31 12 -61q2 0 8 -1t10.5 -1.5t8.5 -3t4 -6.5v-15q0 -102 -58 -149q-44 -37 -59 -37q-3 0 -12 6t-13 6q-13 0 -32 -22.5t-21 -22.5q-23 -11 -29.5 -14t-30.5 -14.5t-35 -19.5t-27 -20t-23 -24 t-8 -24l69 -2q24 -15 47 -15q21 0 41 10l156 -4q8 0 8 -8l4 -31q-3 -7 -8 -23.5t-8 -23.5v2l-10 -30q1 1 12 8.5t16 7.5q9 0 9 -8l10 -68q0 -8 -8 -8l-220 -10q-4 0 -19 13t-24 15q-7 -5 -16 -13.5t-14.5 -13.5t-8.5 -5l-174 -8q-10 0 -10 8l12 155q0 73 81 139.5t180 102.5 q71 44 71 88v8q0 5 -4 13t-4 10q0 4 2 6l2 4l-14 12q-2 -2 -6 -2l-4 2l-5 4q-39 27 -81 27q-7 0 -20 -2t-19 -2h-2q-5 0 -9 5t-7.5 15t-4.5 13q-12 -13 -29 -41.5t-29.5 -49t-17.5 -20.5l-77 4q-9 0 -9 10l-6 121l37 52l-31 -11q-8 0 -8 8z" />
<glyph unicode="&#xbe;" horiz-adv-x="1298" d="M100 995q0 9 9 9l94 -9q-1 0 12.5 -14.5t30 -31t22.5 -21.5v2q27 -14 37 -15l23 -34q1 3 2 9.5t2 11t3.5 8t6.5 3.5h10q42 0 72.5 17t30.5 47v10q0 29 -22.5 45.5t-59.5 16.5h-8q-9 0 -9 8l-4 94q0 8 8 8q49 5 72 19.5t23 46.5v4q0 2 -1 7.5t-1 8.5q0 8 6 10l2 2l-6 17 l-7.5 -2.5t-8 -2.5t-5.5 -1l-6 2q-5 3 -13 7t-18 8t-21.5 6.5t-21.5 2.5h-22q-6 0 -17 -2t-20 -2q-5 0 -9 7t-7.5 18t-6.5 16q-6 -17 -14 -59l-20 -17q-3 -3 -10 -13.5t-13 -19t-10 -8.5l-78 3q-8 0 -8 8l-4 108q14 21 14 43q0 11 -10 27t-10 20v31q0 8 8 8l108 13q8 0 8 -9 l-6 -30q70 47 142 47h8q78 0 153.5 -58t75.5 -143v-18q0 -22 -8 -43l-4 -11q-3 -6 -6 -6q-12 0 -17 8v-38q0 -17 -22 -39t-37 -31q62 -34 84 -109h-2q2 -2 2 -8l4 -10q0 -1 -1 -3t-1 -3l-2 -2q-18 -23 -18 -41q0 -14 12 -23l4 -2q6 -3 6 -8q0 -9 -16 -41q-32 -59 -74 -87 t-117 -40q-4 0 -17.5 14t-19.5 17q-7 -3 -18.5 -14t-15.5 -11q-53 8 -95 39v-35q0 -8 -10 -8l-96 -2q-10 0 -10 8l-7 115q12 19 19 47q-1 0 -4.5 -2t-5.5 -2q-3 0 -6 3.5t-3 6.5zM104 61l482 730q11 1 59.5 7t75.5 11q-45 23 -84 59l491 746q5 8 17 8t18 -14l54 -181 q0 -11 -5 -16l-202 -256q-28 4 -39 4q-33 0 -66 -10l41 -74l-799 -1012l3 3l-15 -25zM737 233l13 115l129 195q0 4 6 4q9 0 28 -4.5t25 -5.5l-31 41q0 1 -1 3t-1 3t1 3t1 3l107 160q4 4 8 4l96 -4q8 0 8 -11l-4 -90q-21 -25 -30 -41q12 6 20 6t8 -8l-12 -260l102 2 q11 0 11 -10l2 -88q0 -8 -9 -8l-88 -9v-40l80 2q8 0 8 -9l3 -24q0 -5 -15.5 -25t-15.5 -33q0 -28 22 -28h6q9 0 9 -8l8 -80q0 -11 -10 -11l-129 -2q-15 6 -28.5 14t-21.5 9l-2 -14q0 -9 -8 -9l-104 -2q-8 0 -8 9v108l6 6q-6 3 -6 8l2 84q0 9 8 9l88 -2l-4 36l-117 -2 q-1 0 -14 3t-29.5 7.5t-22.5 8.5l-4 -15q0 -6 -8 -6l-74 -2q-8 0 -8 8zM864 348h140v217l-70 -104q-5 -6 -17 -13t-19 -14.5t-7 -21.5q0 -2 1 -6t1 -7q0 -4 -2 -6z" />
<glyph unicode="&#xbf;" horiz-adv-x="1054" d="M25 383q0 102 30 172t95 135v2q8 4 12 4q2 0 10 -4l33 -18q34 59 55 104l16 8q55 31 112 59.5t78 38.5t41 26t24 32.5t4 48.5q0 19 18 19l149 -6q21 -2 21 -35q0 -44 -8 -77t-19 -54.5t-39.5 -44.5t-51 -37t-71.5 -42q-11 -6 -16 -9h2q-12 -8 -51 -33t-53.5 -36 t-38 -30.5t-32.5 -36t-9 -34.5v-9q2 -50 40 -92.5t107 -60.5q8 -4 14.5 -19.5t10.5 -19.5l22 22q4 4 17 4h41q8 0 27 2t26 3l12 2q4 0 15 -8.5t28.5 -25.5t26.5 -24q18 30 18 56q0 5 -6 16t-6 14q0 6 6.5 13.5t19 17t17.5 14.5v-2q7 7 22 29t28 38.5t20 16.5l149 -8 q19 0 19 -16l8 -176q-29 -107 -39 -156l33 -4q6 -1 11 -6.5t5 -10.5l8 -145q0 -20 -18 -20h-191q-18 3 -18 20v80q-84 -57 -158 -75.5t-168 -18.5q-110 0 -280 114l-25 19q-8 5 -8 12q0 13 3 36.5t3 31.5q0 21 -4 57q-10 -4 -40.5 -22.5t-39.5 -18.5q-29 0 -48 59.5 t-19 108.5zM422 1274v31q0 37 23.5 88t50.5 51q3 0 7.5 -3t10.5 -8.5t11 -10.5t10.5 -11t7.5 -8q6 19 9.5 38t4.5 25.5t8.5 13.5t20.5 9.5t43 5.5q30 0 84.5 -20.5t54.5 -42.5q0 -2 -18 -50h6q4 0 20 3.5t23 3.5q17 0 20 -19v-2q17 -49 17 -78q0 -76 -58 -141.5t-135 -65.5 h-14q-40 0 -82.5 15.5t-42.5 34.5q0 13 5 30t5 23q0 54 -35 84q-9 -1 -21.5 -8t-19.5 -7q-16 0 -16 19z" />
<glyph unicode="&#xc0;" horiz-adv-x="1257" d="M39 -10l12 184q29 26 29 55q0 25 -19 50l9 112q3 17 16 17l150 -27l26 96l-59 8q-17 3 -17 19l4 203q0 6 6 12t13 6l108 -10l76 254q6 6 13 6l-9 18l25 80l-166 25q-16 3 -16 16l-2 139q22 28 22 64q0 20 -14.5 44t-14.5 28l-2 81q0 19 19 19l506 -23q15 0 18 -14 l33 -149q0 -7 -18 -31t-45 -56t-35 -42q11 3 52 24t52 21q13 0 16 -17l76 -328v-4q0 -6 -5 -12t-11 -6v-6q0 -25 20.5 -52.5t20.5 -29.5l84 -375l80 -6q16 0 16 -14q0 -20 -4.5 -56t-5.5 -47q5 6 18 22t24.5 29t24 27.5t22.5 22.5t15 8l35 -2q16 0 16 -19l-6 -118 q-12 -30 -12 -50q0 -6 2.5 -17.5t3.5 -16.5l-6 -177q0 -18 -21 -18l-311 20q-24 15 -43 15q-14 0 -31 -10l-114 8q-17 0 -17 18l9 174q0 5 15 21.5t15 34.5q0 12 -13 27t-13 26l2 69q0 17 18 17l96 -2l-24 104l-344 19l-27 -109h109q18 0 18 -20l-18 -361q0 -16 -17 -16 l-207 -10q-23 10 -38 10q-25 0 -52 -15l-168 -8q-20 0 -20 21zM319 1673q0 2 3 8l45 136q1 6 6 11t10 5q4 0 6 -2l379 -119q12 -3 12 -18l-2 -68q0 -18 -16 -18l-424 51q-19 3 -19 14zM512 713l236 6l-117 360l-17 2l-24 -96q-2 -10 -24.5 -27.5t-22.5 -42.5q0 -8 10 -41v-8 z" />
<glyph unicode="&#xc1;" horiz-adv-x="1257" d="M39 -10l12 184q29 26 29 55q0 25 -19 50l9 112q3 17 16 17l150 -27l26 96l-59 8q-17 3 -17 19l4 203q0 6 6 12t13 6l108 -10l76 254q6 6 13 6l-9 18l25 80l-166 25q-16 3 -16 16l-2 139q22 28 22 64q0 20 -14.5 44t-14.5 28l-2 81q0 19 19 19l506 -23q15 0 18 -14 l33 -149q0 -7 -18 -31t-45 -56t-35 -42q11 3 52 24t52 21q13 0 16 -17l76 -328v-4q0 -6 -5 -12t-11 -6v-6q0 -25 20.5 -52.5t20.5 -29.5l84 -375l80 -6q16 0 16 -14q0 -20 -4.5 -56t-5.5 -47q5 6 18 22t24.5 29t24 27.5t22.5 22.5t15 8l35 -2q16 0 16 -19l-6 -118 q-12 -30 -12 -50q0 -6 2.5 -17.5t3.5 -16.5l-6 -177q0 -18 -21 -18l-311 20q-24 15 -43 15q-14 0 -31 -10l-114 8q-17 0 -17 18l9 174q0 5 15 21.5t15 34.5q0 12 -13 27t-13 26l2 69q0 17 18 17l96 -2l-24 104l-344 19l-27 -109h109q18 0 18 -20l-18 -361q0 -16 -17 -16 l-207 -10q-23 10 -38 10q-25 0 -52 -15l-168 -8q-20 0 -20 21zM371 1700q0 13 12 16l379 107h6q11 0 14 -11l49 -131q0 -17 -14 -20l-422 -55q-13 0 -16 18zM512 713l236 6l-117 360l-17 2l-24 -96q-2 -10 -24.5 -27.5t-22.5 -42.5q0 -8 10 -41v-8z" />
<glyph unicode="&#xc2;" horiz-adv-x="1257" d="M39 -10l12 184q29 26 29 55q0 25 -19 50l9 112q3 17 16 17l150 -27l26 96l-59 8q-17 3 -17 19l4 203q0 6 6 12t13 6l108 -10l76 254q6 6 13 6l-9 18l25 80l-166 25q-16 3 -16 16l-2 139q22 28 22 64q0 20 -14.5 44t-14.5 28l-2 81q0 19 19 19l506 -23q15 0 18 -14 l33 -149q0 -7 -18 -31t-45 -56t-35 -42q11 3 52 24t52 21q13 0 16 -17l76 -328v-4q0 -6 -5 -12t-11 -6v-6q0 -25 20.5 -52.5t20.5 -29.5l84 -375l80 -6q16 0 16 -14q0 -20 -4.5 -56t-5.5 -47q5 6 18 22t24.5 29t24 27.5t22.5 22.5t15 8l35 -2q16 0 16 -19l-6 -118 q-12 -30 -12 -50q0 -6 2.5 -17.5t3.5 -16.5l-6 -177q0 -18 -21 -18l-311 20q-24 15 -43 15q-14 0 -31 -10l-114 8q-17 0 -17 18l9 174q0 5 15 21.5t15 34.5q0 12 -13 27t-13 26l2 69q0 17 18 17l96 -2l-24 104l-344 19l-27 -109h109q18 0 18 -20l-18 -361q0 -16 -17 -16 l-207 -10q-23 10 -38 10q-25 0 -52 -15l-168 -8q-20 0 -20 21zM281 1671q0 12 10 19l239 145q1 0 4.5 1t4.5 1q2 0 5 -1t5 -1l256 -143q10 -7 10 -17q0 -4 -4 -12l-29 -41q-5 -8 -14 -8l-213 61l-240 -63q-10 0 -16 12l-16 41q-2 2 -2 6zM512 713l236 6l-117 360l-17 2 l-24 -96q-2 -10 -24.5 -27.5t-22.5 -42.5q0 -8 10 -41v-8z" />
<glyph unicode="&#xc3;" horiz-adv-x="1257" d="M39 -10l12 184q29 26 29 55q0 25 -19 50l9 112q3 17 16 17l150 -27l26 96l-59 8q-17 3 -17 19l4 203q0 6 6 12t13 6l108 -10l76 254q6 6 13 6l-9 18l25 80l-166 25q-16 3 -16 16l-2 139q22 28 22 64q0 20 -14.5 44t-14.5 28l-2 81q0 19 19 19l506 -23q15 0 18 -14 l33 -149q0 -7 -18 -31t-45 -56t-35 -42q11 3 52 24t52 21q13 0 16 -17l76 -328v-4q0 -6 -5 -12t-11 -6v-6q0 -25 20.5 -52.5t20.5 -29.5l84 -375l80 -6q16 0 16 -14q0 -20 -4.5 -56t-5.5 -47q5 6 18 22t24.5 29t24 27.5t22.5 22.5t15 8l35 -2q16 0 16 -19l-6 -118 q-12 -30 -12 -50q0 -6 2.5 -17.5t3.5 -16.5l-6 -177q0 -18 -21 -18l-311 20q-24 15 -43 15q-14 0 -31 -10l-114 8q-17 0 -17 18l9 174q0 5 15 21.5t15 34.5q0 12 -13 27t-13 26l2 69q0 17 18 17l96 -2l-24 104l-344 19l-27 -109h109q18 0 18 -20l-18 -361q0 -16 -17 -16 l-207 -10q-23 10 -38 10q-25 0 -52 -15l-168 -8q-20 0 -20 21zM307 1651q0 6 2 8q29 63 75 98t101 35q23 0 49 -6.5t57.5 -16.5t49.5 -14h-2q40 -12 68 -12q18 0 43.5 21.5t40.5 21.5l77 -27q11 -5 11 -16q0 -47 -60 -92t-123 -45h-6q-57 0 -139 28v-2q-63 19 -74 19 q-9 0 -36.5 -23.5t-43.5 -23.5q-1 0 -3 1t-3 1l-72 30q-12 3 -12 15zM512 713l236 6l-117 360l-17 2l-24 -96q-2 -10 -24.5 -27.5t-22.5 -42.5q0 -8 10 -41v-8z" />
<glyph unicode="&#xc4;" horiz-adv-x="1257" d="M39 -10l12 184q29 26 29 55q0 25 -19 50l9 112q3 17 16 17l150 -27l26 96l-59 8q-17 3 -17 19l4 203q0 6 6 12t13 6l108 -10l76 254q6 6 13 6l-9 18l25 80l-166 25q-16 3 -16 16l-2 139q22 28 22 64q0 20 -14.5 44t-14.5 28l-2 81q0 19 19 19l506 -23q15 0 18 -14 l33 -149q0 -7 -18 -31t-45 -56t-35 -42q11 3 52 24t52 21q13 0 16 -17l76 -328v-4q0 -6 -5 -12t-11 -6v-6q0 -25 20.5 -52.5t20.5 -29.5l84 -375l80 -6q16 0 16 -14q0 -20 -4.5 -56t-5.5 -47q5 6 18 22t24.5 29t24 27.5t22.5 22.5t15 8l35 -2q16 0 16 -19l-6 -118 q-12 -30 -12 -50q0 -6 2.5 -17.5t3.5 -16.5l-6 -177q0 -18 -21 -18l-311 20q-24 15 -43 15q-14 0 -31 -10l-114 8q-17 0 -17 18l9 174q0 5 15 21.5t15 34.5q0 12 -13 27t-13 26l2 69q0 17 18 17l96 -2l-24 104l-344 19l-27 -109h109q18 0 18 -20l-18 -361q0 -16 -17 -16 l-207 -10q-23 10 -38 10q-25 0 -52 -15l-168 -8q-20 0 -20 21zM356 1702v4q0 42 29 72t68 30h8q42 0 70 -27t28 -69v-6q0 -42 -31.5 -71t-70.5 -29t-70 28t-31 68zM512 713l236 6l-117 360l-17 2l-24 -96q-2 -10 -24.5 -27.5t-22.5 -42.5q0 -8 10 -41v-8zM666 1706v2 q0 42 30 72t74 30h4q41 0 68.5 -31t29.5 -71v-4q0 -38 -30.5 -69t-73.5 -31q-41 0 -67.5 27.5t-34.5 74.5z" />
<glyph unicode="&#xc5;" horiz-adv-x="1257" d="M39 -10l12 184q29 26 29 55q0 25 -19 50l9 112q3 17 16 17l150 -27l26 96l-59 8q-17 3 -17 19l4 203q0 6 6 12t13 6l108 -10l76 254q6 6 13 6l-9 18l25 80l-166 25q-16 3 -16 16l-2 139q22 28 22 64q0 20 -14.5 44t-14.5 28l-2 81q0 19 19 19l506 -23q15 0 18 -14 l33 -149q0 -7 -18 -31t-45 -56t-35 -42q11 3 52 24t52 21q13 0 16 -17l76 -328v-4q0 -6 -5 -12t-11 -6v-6q0 -25 20.5 -52.5t20.5 -29.5l84 -375l80 -6q16 0 16 -14q0 -20 -4.5 -56t-5.5 -47q5 6 18 22t24.5 29t24 27.5t22.5 22.5t15 8l35 -2q16 0 16 -19l-6 -118 q-12 -30 -12 -50q0 -6 2.5 -17.5t3.5 -16.5l-6 -177q0 -18 -21 -18l-311 20q-24 15 -43 15q-14 0 -31 -10l-114 8q-17 0 -17 18l9 174q0 5 15 21.5t15 34.5q0 12 -13 27t-13 26l2 69q0 17 18 17l96 -2l-24 104l-344 19l-27 -109h109q18 0 18 -20l-18 -361q0 -16 -17 -16 l-207 -10q-23 10 -38 10q-25 0 -52 -15l-168 -8q-20 0 -20 21zM444 1683q4 6 16.5 20t18.5 23l-33 27q10 59 50 101.5t104 48.5l25 -58q26 13 102 31q44 -26 68 -72l4 -10l-127 -123q89 4 133 12q-9 -59 -56.5 -104t-101.5 -45q-3 0 -8 1t-8 1h-10q-71 0 -122.5 40.5 t-54.5 106.5zM512 713l236 6l-117 360l-17 2l-24 -96q-2 -10 -24.5 -27.5t-22.5 -42.5q0 -8 10 -41v-8zM578 1718q0 -20 14.5 -34.5t34.5 -14.5q22 0 36.5 14.5t14.5 34.5q0 21 -13.5 36t-33.5 15h-4q-21 0 -35 -13.5t-14 -37.5z" />
<glyph unicode="&#xc6;" horiz-adv-x="1562" d="M51 344q0 21 17 21q12 0 18 -13q11 -25 12 -30l107 59q3 6 14 10h4l17 84l-54 8q-16 3 -16 19l14 184q0 16 19 16l96 9l27 86q72 53 112 75l-53 89q-4 8 -4 10t2 4l39 123l-199 -15q-20 0 -20 19l6 153l92 93q-82 82 -82 100v49q0 19 19 19l829 -19q15 0 18 -14l13 -80 q89 17 209 65v5q0 18 18 18h53q14 0 17 -14l57 -283q0 -11 -12 -14l-60 -21q6 -15 27 -41.5t39 -47.5t18 -26l6 -106q0 -7 -4.5 -12.5t-11.5 -5.5l-188 -17q-21 0 -21 17l-12 172l-229 -11l-5 -153q0 -12 -8 -15l-49 -41l55 -63l-2 -100l135 6q19 0 19 -21l-16 -196 q0 -17 -19 -17l-139 2v-96l287 23l-11 129q0 16 21 16l166 -8q16 0 16 -17l43 -538q0 -21 -16 -21l-445 -24q-5 0 -19.5 20t-35 51t-31.5 45l-16 21q-15 -14 -42.5 -52.5t-49 -68t-27.5 -29.5l-141 -10q-21 0 -21 19l-8 432q0 18 19 18l41 -2l-5 96h-272l-16 -110l116 14 q7 0 12 -6t5 -12l-13 -389q0 -19 -20 -19l-186 10q-8 0 -16.5 19t-17 47t-13.5 37h-7q-43 0 -82 -22.5t-59 -57.5q-3 -8 -16 -8l-31 2q-16 0 -16 16zM535 711l165 10l-16 340l-82 24z" />
<glyph unicode="&#xc7;" horiz-adv-x="1159" d="M70 662q0 371 108 557q29 51 75.5 108t72.5 57q8 0 12 -4h8q10 0 18.5 6.5t8.5 14.5v4q-2 2 -2 8q0 9 8 14q138 82 246 82q87 0 151 -30l60 -29q12 -3 12 -16v-11q3 13 14 13q2 0 5 -1t5 -1l33 -17v45q0 19 17 19l186 -4q18 0 18 -21l-14 -250q0 -5 -11 -16.5t-11 -26.5 q0 -9 8 -23t8 -20l-8 -159q0 -17 -21 -17l-159 12q-9 0 -13 11q-51 78 -114 108.5t-150 30.5q-17 0 -50 -11.5t-50 -11.5l-11 4q-34 13 -36 17l-19 26v-63q0 -4 -25.5 -27t-59 -54t-46.5 -50q-1 -1 -6.5 -11.5t-11 -20.5t-13.5 -18.5t-14 -8.5q-1 0 -4 1t-4 1q12 -6 12 -17 q0 -2 -1 -4.5t-1 -3.5l-6 -14v2q-8 -27 -8 -66q0 -15 4 -47q-2 -6 -2 -16v-15q0 -50 18 -102q4 -12 25.5 -46.5t21.5 -43.5q0 -7 -8 -12q0 -35 23 -35q4 0 11 3t11 3q9 0 30 -16.5t41 -35t21 -18.5v2q47 -24 95 -24q74 0 135 22v-2q14 2 63 27l10 -4q0 5 5.5 12t13.5 8h-2 q1 0 3 1t3 1h-6q24 16 57 54t55.5 67t24.5 29l164 12q20 0 20 -20q-6 -116 -32 -211q-6 -13 -17 -13h-4q-39 -39 -39 -65q0 -9 7.5 -20t7.5 -17q0 -2 -1.5 -4.5t-1.5 -3.5q-100 -148 -133 -148q-9 0 -16 13q-8 -5 -23 -31q7 -7 7 -12q0 -6 -20.5 -23.5t-45.5 -32.5h2 l-22 -14q32 -50 32 -94q0 -72 -60.5 -116t-143.5 -44q-44 0 -141 23.5t-97 52.5q0 8 4 12l66 96q9 9 12 9q2 0 12 -5q62 -45 113 -45q14 0 29.5 8.5t15.5 20.5q0 17 -45.5 34.5t-100 31t-100 38t-45.5 52.5v6q0 20 -10 27.5t-27 12t-26 13.5q-54 59 -103 144.5t-67 162.5 l2 -2q-43 110 -43 226z" />
<glyph unicode="&#xc8;" horiz-adv-x="1236" d="M10 -33l17 96q0 17 18 17q6 0 8 -2q8 3 8 22q0 7 -11 15.5t-11 15.5l45 268q3 15 16 15l54 -6q7 0 17 -14.5t22 -14.5q5 0 12.5 8t17.5 8l41 -6l2 55q0 10 10 17l7 4q-2 2 -5.5 4t-6 3t-4 3.5t-1.5 7.5l4 133l-80 21q-14 3 -14 18l-6 176q0 19 18 19l74 2l-2 84 q0 15 14 18q-14 0 -14 21l-2 110h-27q-10 0 -14.5 5.5t-6 12t-6 12t-14.5 5.5q-11 0 -14 -8v2l-4 -10t-2.5 -7.5t-2 -4.5t-3 -3t-4 -1.5t-6.5 -0.5l-54 3q-18 0 -18 18v152q14 17 14 38q0 22 -14 39l2 154q0 18 18 18l232 -8q38 -21 49 -41h10q8 0 35 19l4 4q3 16 21 16 l346 -12q6 0 16 -10h2q7 -7 31 -13q4 -4 6 -4l6 13q3 10 17 10l253 -6q16 0 19 -15l6 -47q0 -13 -10 -29t-10 -18q0 -7 8 -20l8 -7q3 -6 8.5 -18t9 -20t5.5 -9l32 -198q0 -5 -3.5 -11t-6.5 -6l-10 -12l10 -10q6 -6 6 -13v-112q0 -19 -18 -19l-191 -8q-18 0 -18 19v159 l-115 -8q-12 0 -36 14.5t-36 14.5h-6v-19q0 -18 -16 -18l-248 -20l-35 -213l265 16q18 0 18 -21l6 13q3 10 14 10l64 4q7 0 13.5 -4.5t6.5 -11.5l13 -195q0 -6 -5.5 -13t-11.5 -7l-133 -9q-19 4 -26 11l-5 -4q-3 -9 -12 -9l-231 -14l8 -217l362 23q5 -4 21.5 -13t23.5 -14 l3 4q-3 3 -3 8q0 16 19 19l78 2l4 133q0 18 18 18l187 2q18 0 18 -20l-20 -359q-1 0 -17 -28l6 -4q7 -7 7 -15l-7 -123q0 -18 -16 -18l-303 -14q-8 0 -14 6l-17 14l-4 -12q-3 -10 -16 -10l-457 -19q-12 0 -27 22.5t-32 22.5q-15 0 -28 -8t-19.5 -17.5t-13.5 -17.5t-13 -8 l-176 -8q-21 0 -21 18zM365 1673q0 4 2 8l45 136q2 6 7 11t9 5t6 -2l379 -119q12 -3 12 -18l-2 -68q0 -18 -16 -18l-424 51q-18 3 -18 14z" />
<glyph unicode="&#xc9;" horiz-adv-x="1236" d="M10 -33l17 96q0 17 18 17q6 0 8 -2q8 3 8 22q0 7 -11 15.5t-11 15.5l45 268q3 15 16 15l54 -6q7 0 17 -14.5t22 -14.5q5 0 12.5 8t17.5 8l41 -6l2 55q0 10 10 17l7 4q-2 2 -5.5 4t-6 3t-4 3.5t-1.5 7.5l4 133l-80 21q-14 3 -14 18l-6 176q0 19 18 19l74 2l-2 84 q0 15 14 18q-14 0 -14 21l-2 110h-27q-10 0 -14.5 5.5t-6 12t-6 12t-14.5 5.5q-11 0 -14 -8v2l-4 -10t-2.5 -7.5t-2 -4.5t-3 -3t-4 -1.5t-6.5 -0.5l-54 3q-18 0 -18 18v152q14 17 14 38q0 22 -14 39l2 154q0 18 18 18l232 -8q38 -21 49 -41h10q8 0 35 19l4 4q3 16 21 16 l346 -12q6 0 16 -10h2q7 -7 31 -13q4 -4 6 -4l6 13q3 10 17 10l253 -6q16 0 19 -15l6 -47q0 -13 -10 -29t-10 -18q0 -7 8 -20l8 -7q3 -6 8.5 -18t9 -20t5.5 -9l32 -198q0 -5 -3.5 -11t-6.5 -6l-10 -12l10 -10q6 -6 6 -13v-112q0 -19 -18 -19l-191 -8q-18 0 -18 19v159 l-115 -8q-12 0 -36 14.5t-36 14.5h-6v-19q0 -18 -16 -18l-248 -20l-35 -213l265 16q18 0 18 -21l6 13q3 10 14 10l64 4q7 0 13.5 -4.5t6.5 -11.5l13 -195q0 -6 -5.5 -13t-11.5 -7l-133 -9q-19 4 -26 11l-5 -4q-3 -9 -12 -9l-231 -14l8 -217l362 23q5 -4 21.5 -13t23.5 -14 l3 4q-3 3 -3 8q0 16 19 19l78 2l4 133q0 18 18 18l187 2q18 0 18 -20l-20 -359q-1 0 -17 -28l6 -4q7 -7 7 -15l-7 -123q0 -18 -16 -18l-303 -14q-8 0 -14 6l-17 14l-4 -12q-3 -10 -16 -10l-457 -19q-12 0 -27 22.5t-32 22.5q-15 0 -28 -8t-19.5 -17.5t-13.5 -17.5t-13 -8 l-176 -8q-21 0 -21 18zM399 1700q0 13 13 16l379 107h6q11 0 14 -11l49 -131q0 -17 -14 -20l-422 -55q-13 0 -16 18z" />
<glyph unicode="&#xca;" horiz-adv-x="1236" d="M10 -33l17 96q0 17 18 17q6 0 8 -2q8 3 8 22q0 7 -11 15.5t-11 15.5l45 268q3 15 16 15l54 -6q7 0 17 -14.5t22 -14.5q5 0 12.5 8t17.5 8l41 -6l2 55q0 10 10 17l7 4q-2 2 -5.5 4t-6 3t-4 3.5t-1.5 7.5l4 133l-80 21q-14 3 -14 18l-6 176q0 19 18 19l74 2l-2 84 q0 15 14 18q-14 0 -14 21l-2 110h-27q-10 0 -14.5 5.5t-6 12t-6 12t-14.5 5.5q-11 0 -14 -8v2l-4 -10t-2.5 -7.5t-2 -4.5t-3 -3t-4 -1.5t-6.5 -0.5l-54 3q-18 0 -18 18v152q14 17 14 38q0 22 -14 39l2 154q0 18 18 18l232 -8q38 -21 49 -41h10q8 0 35 19l4 4q3 16 21 16 l346 -12q6 0 16 -10h2q7 -7 31 -13q4 -4 6 -4l6 13q3 10 17 10l253 -6q16 0 19 -15l6 -47q0 -13 -10 -29t-10 -18q0 -7 8 -20l8 -7q3 -6 8.5 -18t9 -20t5.5 -9l32 -198q0 -5 -3.5 -11t-6.5 -6l-10 -12l10 -10q6 -6 6 -13v-112q0 -19 -18 -19l-191 -8q-18 0 -18 19v159 l-115 -8q-12 0 -36 14.5t-36 14.5h-6v-19q0 -18 -16 -18l-248 -20l-35 -213l265 16q18 0 18 -21l6 13q3 10 14 10l64 4q7 0 13.5 -4.5t6.5 -11.5l13 -195q0 -6 -5.5 -13t-11.5 -7l-133 -9q-19 4 -26 11l-5 -4q-3 -9 -12 -9l-231 -14l8 -217l362 23q5 -4 21.5 -13t23.5 -14 l3 4q-3 3 -3 8q0 16 19 19l78 2l4 133q0 18 18 18l187 2q18 0 18 -20l-20 -359q-1 0 -17 -28l6 -4q7 -7 7 -15l-7 -123q0 -18 -16 -18l-303 -14q-8 0 -14 6l-17 14l-4 -12q-3 -10 -16 -10l-457 -19q-12 0 -27 22.5t-32 22.5q-15 0 -28 -8t-19.5 -17.5t-13.5 -17.5t-13 -8 l-176 -8q-21 0 -21 18zM401 1671q0 12 11 19l239 145q1 0 4 1t4 1q2 0 5.5 -1t5.5 -1l256 -143q10 -7 10 -17q0 -4 -4 -12l-29 -41q-5 -8 -14 -8l-213 61l-240 -63q-10 0 -16 12l-17 41q-2 2 -2 6z" />
<glyph unicode="&#xcb;" horiz-adv-x="1236" d="M10 -33l17 96q0 17 18 17q6 0 8 -2q8 3 8 22q0 7 -11 15.5t-11 15.5l45 268q3 15 16 15l54 -6q7 0 17 -14.5t22 -14.5q5 0 12.5 8t17.5 8l41 -6l2 55q0 10 10 17l7 4q-2 2 -5.5 4t-6 3t-4 3.5t-1.5 7.5l4 133l-80 21q-14 3 -14 18l-6 176q0 19 18 19l74 2l-2 84 q0 15 14 18q-14 0 -14 21l-2 110h-27q-10 0 -14.5 5.5t-6 12t-6 12t-14.5 5.5q-11 0 -14 -8v2l-4 -10t-2.5 -7.5t-2 -4.5t-3 -3t-4 -1.5t-6.5 -0.5l-54 3q-18 0 -18 18v152q14 17 14 38q0 22 -14 39l2 154q0 18 18 18l232 -8q38 -21 49 -41h10q8 0 35 19l4 4q3 16 21 16 l346 -12q6 0 16 -10h2q7 -7 31 -13q4 -4 6 -4l6 13q3 10 17 10l253 -6q16 0 19 -15l6 -47q0 -13 -10 -29t-10 -18q0 -7 8 -20l8 -7q3 -6 8.5 -18t9 -20t5.5 -9l32 -198q0 -5 -3.5 -11t-6.5 -6l-10 -12l10 -10q6 -6 6 -13v-112q0 -19 -18 -19l-191 -8q-18 0 -18 19v159 l-115 -8q-12 0 -36 14.5t-36 14.5h-6v-19q0 -18 -16 -18l-248 -20l-35 -213l265 16q18 0 18 -21l6 13q3 10 14 10l64 4q7 0 13.5 -4.5t6.5 -11.5l13 -195q0 -6 -5.5 -13t-11.5 -7l-133 -9q-19 4 -26 11l-5 -4q-3 -9 -12 -9l-231 -14l8 -217l362 23q5 -4 21.5 -13t23.5 -14 l3 4q-3 3 -3 8q0 16 19 19l78 2l4 133q0 18 18 18l187 2q18 0 18 -20l-20 -359q-1 0 -17 -28l6 -4q7 -7 7 -15l-7 -123q0 -18 -16 -18l-303 -14q-8 0 -14 6l-17 14l-4 -12q-3 -10 -16 -10l-457 -19q-12 0 -27 22.5t-32 22.5q-15 0 -28 -8t-19.5 -17.5t-13.5 -17.5t-13 -8 l-176 -8q-21 0 -21 18zM393 1702v4q0 42 28.5 72t67.5 30h9q42 0 70 -27t28 -69v-6q0 -42 -31.5 -71t-70.5 -29t-70 28t-31 68zM702 1706v2q0 42 30.5 72t74.5 30h4q41 0 68.5 -31t29.5 -71v-4q0 -38 -30.5 -69t-73.5 -31q-41 0 -68 28t-35 74z" />
<glyph unicode="&#xcc;" horiz-adv-x="698" d="M61 365q0 20 19 20l51 2q14 -14 41 -31l2 2q-6 3 -6 13v2q0 18 16 18l72 4l-6 422q22 22 41 60q-25 -5 -27 -5q-16 0 -16 19l-4 196l-144 3q-18 0 -18 18v156q0 5 19.5 28t23.5 33q-5 4 -17 9t-19 10t-7 14l2 133q0 18 20 18l521 -26q16 0 16 -17l6 -69q0 -5 -7.5 -16 t-17.5 -23t-12 -15q1 0 10 1.5t17 1.5q13 0 16 -17l23 -237q0 -17 -17 -17l-88 10q-8 0 -15 9.5t-14 24t-12 20.5v-27q0 -18 -18 -18l-29 2v-703l27 -2q16 0 16 -20q-4 -32 -4 -49q6 7 17.5 25.5t20.5 29t15 10.5l70 -4q17 0 17 -18l-11 -363q0 -18 -16 -18l-496 -43 q-17 0 -20 16l-13 86q0 10 13.5 34t15.5 32l-9 -1q-10 -2 -15 -2q-12 0 -15 17zM131 1673q0 4 2 8l45 136q1 6 6.5 11t10.5 5q4 0 6 -2l379 -119q12 -3 12 -18l-2 -68q0 -18 -17 -18l-423 51q-19 3 -19 14z" />
<glyph unicode="&#xcd;" horiz-adv-x="698" d="M61 365q0 20 19 20l51 2q14 -14 41 -31l2 2q-6 3 -6 13v2q0 18 16 18l72 4l-6 422q22 22 41 60q-25 -5 -27 -5q-16 0 -16 19l-4 196l-144 3q-18 0 -18 18v156q0 5 19.5 28t23.5 33q-5 4 -17 9t-19 10t-7 14l2 133q0 18 20 18l521 -26q16 0 16 -17l6 -69q0 -5 -7.5 -16 t-17.5 -23t-12 -15q1 0 10 1.5t17 1.5q13 0 16 -17l23 -237q0 -17 -17 -17l-88 10q-8 0 -15 9.5t-14 24t-12 20.5v-27q0 -18 -18 -18l-29 2v-703l27 -2q16 0 16 -20q-4 -32 -4 -49q6 7 17.5 25.5t20.5 29t15 10.5l70 -4q17 0 17 -18l-11 -363q0 -18 -16 -18l-496 -43 q-17 0 -20 16l-13 86q0 10 13.5 34t15.5 32l-9 -1q-10 -2 -15 -2q-12 0 -15 17zM152 1700q0 13 12 16l379 107h6q11 0 14 -11l49 -131q0 -17 -14 -20l-422 -55q-13 0 -16 18z" />
<glyph unicode="&#xce;" horiz-adv-x="698" d="M61 365q0 20 19 20l51 2q14 -14 41 -31l2 2q-6 3 -6 13v2q0 18 16 18l72 4l-6 422q22 22 41 60q-25 -5 -27 -5q-16 0 -16 19l-4 196l-144 3q-18 0 -18 18v156q0 5 19.5 28t23.5 33q-5 4 -17 9t-19 10t-7 14l2 133q0 18 20 18l521 -26q16 0 16 -17l6 -69q0 -5 -7.5 -16 t-17.5 -23t-12 -15q1 0 10 1.5t17 1.5q13 0 16 -17l23 -237q0 -17 -17 -17l-88 10q-8 0 -15 9.5t-14 24t-12 20.5v-27q0 -18 -18 -18l-29 2v-703l27 -2q16 0 16 -20q-4 -32 -4 -49q6 7 17.5 25.5t20.5 29t15 10.5l70 -4q17 0 17 -18l-11 -363q0 -18 -16 -18l-496 -43 q-17 0 -20 16l-13 86q0 10 13.5 34t15.5 32l-9 -1q-10 -2 -15 -2q-12 0 -15 17zM100 1671q0 12 11 19l239 145q1 0 4 1t4 1q2 0 5.5 -1t5.5 -1l256 -143q10 -7 10 -17q0 -4 -4 -12l-29 -41q-5 -8 -14 -8l-213 61l-240 -63q-10 0 -16 12l-17 41q-2 2 -2 6z" />
<glyph unicode="&#xcf;" horiz-adv-x="698" d="M61 365q0 20 19 20l51 2q14 -14 41 -31l2 2q-6 3 -6 13v2q0 18 16 18l72 4l-6 422q22 22 41 60q-25 -5 -27 -5q-16 0 -16 19l-4 196l-144 3q-18 0 -18 18v156q0 5 19.5 28t23.5 33q-5 4 -17 9t-19 10t-7 14l2 133q0 18 20 18l521 -26q16 0 16 -17l6 -69q0 -5 -7.5 -16 t-17.5 -23t-12 -15q1 0 10 1.5t17 1.5q13 0 16 -17l23 -237q0 -17 -17 -17l-88 10q-8 0 -15 9.5t-14 24t-12 20.5v-27q0 -18 -18 -18l-29 2v-703l27 -2q16 0 16 -20q-4 -32 -4 -49q6 7 17.5 25.5t20.5 29t15 10.5l70 -4q17 0 17 -18l-11 -363q0 -18 -16 -18l-496 -43 q-17 0 -20 16l-13 86q0 10 13.5 34t15.5 32l-9 -1q-10 -2 -15 -2q-12 0 -15 17zM131 1702v4q0 42 28.5 72t67.5 30h9q42 0 70 -27t28 -69v-6q0 -42 -31.5 -71t-71.5 -29q-39 0 -69.5 28t-30.5 68zM440 1706v2q0 42 30.5 72t74.5 30h4q41 0 68.5 -31t29.5 -71v-4 q0 -38 -30.5 -69t-73.5 -31q-41 0 -68 28t-35 74z" />
<glyph unicode="&#xd0;" horiz-adv-x="1361" d="M66 -10l10 227q0 11 8 16l14 7h-4q-16 0 -16 20l4 102q0 17 16 17l162 10l-8 242l-88 2q-27 0 -27 33l-2 143q0 33 27 33l84 4l-8 278l-54 -10q-13 0 -16 12v-4q-4 -11 -16 -14l-54 -10q-7 0 -12.5 4.5t-5.5 11.5l-4 229l4 15l-6 6l-2 98q0 19 18 19l377 -19q16 0 16 -18 l-4 -47q53 53 116 80.5t171 31.5q62 -7 155 -37t93 -51q0 -4 -2 -8.5t-2 -9.5q0 -11 8 -21t18 -10l21 12q5 5 10 5q17 0 52 -37.5t48 -65.5v2q162 -241 162 -512v-31q0 -20 -2 -26q4 -46 4 -66q0 -106 -26 -188l-7 -8q-8 -8 -18 -8h-8q-17 -24 -17 -43q0 -8 4.5 -20t4.5 -15 t-1 -6l-1 -3q-62 -126 -125 -205t-156 -132h-31q-14 0 -24 2q8 -3 8 -15q0 -21 -64 -36t-110 -15q-65 0 -136 17.5t-71 44.5q0 10 12 16h2q-15 24 -43 24q-3 0 -13.5 -3t-14.5 -3q-7 0 -13 6v-55q0 -18 -18 -18l-381 -19q-18 0 -18 19zM453 510q38 -6 49 -25l2 -2 q54 -52 111.5 -79.5t132.5 -28.5q157 10 245 104l6 4q4 11 15 11h6l2 18q60 92 82 223q-5 54 -29 127q3 20 10 31v10l17 29q-3 0 -5 -1t-5 -1l-39 -8q-11 0 -60 71q-86 86 -250 105h-16q-56 0 -100 -17.5t-69 -38.5t-75 -71l-6 -88l-14 -27l289 14q20 0 26 -28l35 -189 q2 -4 2 -14q0 -23 -29 -23l-325 9z" />
<glyph unicode="&#xd1;" horiz-adv-x="1220" d="M55 -10l13 194q0 6 24.5 25t30.5 29h-31q-18 0 -18 18l10 141q0 17 14 17l33 -2q12 0 25 -29v4q0 16 18 16l98 -12v647l-59 19q-12 6 -12 16q0 7 1 10t1 7l-15 -13q-8 -8 -14 -8q-1 0 -2 1t-2 1l-84 27q-12 3 -12 18l-8 215q0 5 2.5 9t10 10t11.5 10h-6q-18 0 -18 18 l-3 70q0 15 17 18l225 25q107 0 182 -90l-2 2q50 -69 82 -125.5t54 -130.5q40 -141 75.5 -333t61.5 -292.5t67 -126.5l4 539q0 8 9 14l24 17h-14q-19 0 -19 18l2 72l-120 39q-15 3 -15 18l-6 172q0 9 5 14.5t11 7.5l5 1q0 5 -3 11t-5.5 10t-8.5 11.5t-8 10.5l-4 108 q0 19 18 19h111q12 -2 23 -22.5t26 -20.5q24 0 52.5 21.5t33.5 21.5l211 -2q19 0 19 -21l-11 -149q0 -12 -14 -15l-10 -8q-2 -2 -4 -2t-4 -2v-16q0 -15 22 -70l-4 -94q0 -19 -21 -19l-153 11l-6 -416q-19 -19 -25 -27q3 -3 13 -5.5t10 -14.5l-4 -234l186 2q18 0 18 -18v-55 q0 -11 -25 -36t-30 -36q5 -9 30 -26t25 -27l2 -168q0 -16 -16 -19l-201 -22q-59 0 -75 8q-37 17 -37 98q0 1 1 4.5t1 5.5q-7 -7 -14.5 -19t-13 -19t-11.5 -7q-25 0 -73 62t-48 86q0 5 5.5 18.5t6.5 20.5h-6q-9 -6 -16 -6q-9 0 -15 14v2q-69 147 -86 340q-3 89 -36 184 l-17 78q0 10 6 16l21 21h-4q-6 -6 -15 -6q-16 0 -16 16q-27 131 -82 172l-18 -364q0 -6 -6.5 -12.5t-12.5 -6.5q-4 0 -6 2l-27 6q5 -13 26.5 -38.5t21.5 -30.5l-13 -217l47 -4q19 -5 19 -35v-17q0 -20 -2 -24h2q3 6 5 24.5t7 30.5t16 12l52 -8q14 -3 14 -18l-10 -209 l-23 -21h2q19 0 19 -18l-6 -119q0 -18 -17 -18l-268 -15q-10 0 -14 7q-7 4 -7 6h2l-2 2q-4 8 -4 10q0 3 1 8t1 8l-4 5q-9 -21 -18 -33l-10 -15l-121 -6q-21 0 -21 21zM233 -10q0 -1 5 -6q2 -2 8 -2q-6 2 -10 6zM307 1651q0 6 2 8q29 63 75 98t101 35q23 0 49 -6.5 t57.5 -16.5t49.5 -14h-2q40 -12 68 -12q18 0 43.5 21.5t40.5 21.5l77 -27q11 -5 11 -16q0 -47 -60 -92t-123 -45h-6q-57 0 -139 28v-2q-63 19 -74 19q-9 0 -36.5 -23.5t-43.5 -23.5q-1 0 -3 1t-3 1l-72 30q-12 3 -12 15z" />
<glyph unicode="&#xd2;" d="M57 831q7 86 47 220.5t70 134.5q3 0 9.5 -3t17 -8t20.5 -8q-3 4 -14 17t-17 22t-6 13q0 6 6 12l35 49q14 23 40.5 50.5t43.5 27.5q13 0 38 -8t32 -9l2 5q-29 22 -29 40q0 29 101.5 67t177.5 56q125 -12 221 -69q121 -70 121 -99q0 -6 -12 -30q23 18 36 18q3 0 11 -4 l36 -39q108 -114 142 -260l-2 -4q2 -4 2 -14q0 -7 -4 -11.5t-4 -5.5h4q19 0 29 -78.5t10 -138.5v-39q0 -65 -18 -165.5t-38 -100.5l-26 -6q2 -4 8 -13.5t10 -17.5t4 -12v-6q-34 -93 -94.5 -198t-87.5 -105q-7 0 -17 9.5t-12 10.5v-20q0 -5 1 -15.5t1 -15.5q0 -6 -6 -12 q-111 -111 -264 -111h-51q-45 0 -116 19t-71 40v11q0 11 5 36q-12 -1 -36.5 -7.5t-33.5 -6.5q-4 0 -12 4q-163 109 -254 383h-2q-36 111 -50 221q11 11 22 51t11 56q0 20 -18.5 38t-18.5 29zM279 737q0 -57 28 -139q4 -12 22.5 -44t18.5 -38q0 -1 -1 -3.5t-1 -4.5l-10 -25 l4 -2q1 1 5.5 6.5t8 8t8.5 2.5q7 0 13 -6l8 -9q88 -92 246 -106h12q12 0 38.5 6t41.5 6q4 0 16 -8l19 -16l2 4q-2 4 -6 8.5t-4 9.5q0 10 12 16l6 5h-2q90 47 137 104t68 150q3 7 16 14.5t33 17t31 17.5q-8 3 -28.5 4t-32 5.5t-11.5 16.5q0 4 1 10.5t1 10.5q0 90 -65.5 181.5 t-149.5 129.5l-12 6q-11 3 -11 15q0 2 1 7t1 11l-12 -16q-6 -9 -12 -9q-15 0 -46 6.5t-48 6.5h-15q-56 0 -108 -21q-8 -4 -10 -4q-10 0 -13 10l-6 9q0 -6 1 -11t1 -6q0 -11 -8 -14q-188 -106 -188 -322zM365 1673q0 4 2 8l45 136q2 6 7 11t9 5t6 -2l379 -119q12 -3 12 -18 l-2 -68q0 -18 -16 -18l-424 51q-18 3 -18 14z" />
<glyph unicode="&#xd3;" d="M57 831q7 86 47 220.5t70 134.5q3 0 9.5 -3t17 -8t20.5 -8q-3 4 -14 17t-17 22t-6 13q0 6 6 12l35 49q14 23 40.5 50.5t43.5 27.5q13 0 38 -8t32 -9l2 5q-29 22 -29 40q0 29 101.5 67t177.5 56q125 -12 221 -69q121 -70 121 -99q0 -6 -12 -30q23 18 36 18q3 0 11 -4 l36 -39q108 -114 142 -260l-2 -4q2 -4 2 -14q0 -7 -4 -11.5t-4 -5.5h4q19 0 29 -78.5t10 -138.5v-39q0 -65 -18 -165.5t-38 -100.5l-26 -6q2 -4 8 -13.5t10 -17.5t4 -12v-6q-34 -93 -94.5 -198t-87.5 -105q-7 0 -17 9.5t-12 10.5v-20q0 -5 1 -15.5t1 -15.5q0 -6 -6 -12 q-111 -111 -264 -111h-51q-45 0 -116 19t-71 40v11q0 11 5 36q-12 -1 -36.5 -7.5t-33.5 -6.5q-4 0 -12 4q-163 109 -254 383h-2q-36 111 -50 221q11 11 22 51t11 56q0 20 -18.5 38t-18.5 29zM279 737q0 -57 28 -139q4 -12 22.5 -44t18.5 -38q0 -1 -1 -3.5t-1 -4.5l-10 -25 l4 -2q1 1 5.5 6.5t8 8t8.5 2.5q7 0 13 -6l8 -9q88 -92 246 -106h12q12 0 38.5 6t41.5 6q4 0 16 -8l19 -16l2 4q-2 4 -6 8.5t-4 9.5q0 10 12 16l6 5h-2q90 47 137 104t68 150q3 7 16 14.5t33 17t31 17.5q-8 3 -28.5 4t-32 5.5t-11.5 16.5q0 4 1 10.5t1 10.5q0 90 -65.5 181.5 t-149.5 129.5l-12 6q-11 3 -11 15q0 2 1 7t1 11l-12 -16q-6 -9 -12 -9q-15 0 -46 6.5t-48 6.5h-15q-56 0 -108 -21q-8 -4 -10 -4q-10 0 -13 10l-6 9q0 -6 1 -11t1 -6q0 -11 -8 -14q-188 -106 -188 -322zM414 1700q0 13 12 16l379 107h6q11 0 14 -11l49 -131q0 -17 -14 -20 l-422 -55q-13 0 -16 18z" />
<glyph unicode="&#xd4;" d="M57 831q7 86 47 220.5t70 134.5q3 0 9.5 -3t17 -8t20.5 -8q-3 4 -14 17t-17 22t-6 13q0 6 6 12l35 49q14 23 40.5 50.5t43.5 27.5q13 0 38 -8t32 -9l2 5q-29 22 -29 40q0 29 101.5 67t177.5 56q125 -12 221 -69q121 -70 121 -99q0 -6 -12 -30q23 18 36 18q3 0 11 -4 l36 -39q108 -114 142 -260l-2 -4q2 -4 2 -14q0 -7 -4 -11.5t-4 -5.5h4q19 0 29 -78.5t10 -138.5v-39q0 -65 -18 -165.5t-38 -100.5l-26 -6q2 -4 8 -13.5t10 -17.5t4 -12v-6q-34 -93 -94.5 -198t-87.5 -105q-7 0 -17 9.5t-12 10.5v-20q0 -5 1 -15.5t1 -15.5q0 -6 -6 -12 q-111 -111 -264 -111h-51q-45 0 -116 19t-71 40v11q0 11 5 36q-12 -1 -36.5 -7.5t-33.5 -6.5q-4 0 -12 4q-163 109 -254 383h-2q-36 111 -50 221q11 11 22 51t11 56q0 20 -18.5 38t-18.5 29zM279 737q0 -57 28 -139q4 -12 22.5 -44t18.5 -38q0 -1 -1 -3.5t-1 -4.5l-10 -25 l4 -2q1 1 5.5 6.5t8 8t8.5 2.5q7 0 13 -6l8 -9q88 -92 246 -106h12q12 0 38.5 6t41.5 6q4 0 16 -8l19 -16l2 4q-2 4 -6 8.5t-4 9.5q0 10 12 16l6 5h-2q90 47 137 104t68 150q3 7 16 14.5t33 17t31 17.5q-8 3 -28.5 4t-32 5.5t-11.5 16.5q0 4 1 10.5t1 10.5q0 90 -65.5 181.5 t-149.5 129.5l-12 6q-11 3 -11 15q0 2 1 7t1 11l-12 -16q-6 -9 -12 -9q-15 0 -46 6.5t-48 6.5h-15q-56 0 -108 -21q-8 -4 -10 -4q-10 0 -13 10l-6 9q0 -6 1 -11t1 -6q0 -11 -8 -14q-188 -106 -188 -322zM371 1671q0 12 10 19l240 145q1 0 4 1t4 1q2 0 5 -1t5 -1l256 -143 q10 -7 10 -17q0 -4 -4 -12l-29 -41q-5 -8 -14 -8l-213 61l-239 -63q-11 0 -17 12l-16 41q-2 2 -2 6z" />
<glyph unicode="&#xd5;" d="M57 831q7 86 47 220.5t70 134.5q3 0 9.5 -3t17 -8t20.5 -8q-3 4 -14 17t-17 22t-6 13q0 6 6 12l35 49q14 23 40.5 50.5t43.5 27.5q13 0 38 -8t32 -9l2 5q-29 22 -29 40q0 29 101.5 67t177.5 56q125 -12 221 -69q121 -70 121 -99q0 -6 -12 -30q23 18 36 18q3 0 11 -4 l36 -39q108 -114 142 -260l-2 -4q2 -4 2 -14q0 -7 -4 -11.5t-4 -5.5h4q19 0 29 -78.5t10 -138.5v-39q0 -65 -18 -165.5t-38 -100.5l-26 -6q2 -4 8 -13.5t10 -17.5t4 -12v-6q-34 -93 -94.5 -198t-87.5 -105q-7 0 -17 9.5t-12 10.5v-20q0 -5 1 -15.5t1 -15.5q0 -6 -6 -12 q-111 -111 -264 -111h-51q-45 0 -116 19t-71 40v11q0 11 5 36q-12 -1 -36.5 -7.5t-33.5 -6.5q-4 0 -12 4q-163 109 -254 383h-2q-36 111 -50 221q11 11 22 51t11 56q0 20 -18.5 38t-18.5 29zM279 737q0 -57 28 -139q4 -12 22.5 -44t18.5 -38q0 -1 -1 -3.5t-1 -4.5l-10 -25 l4 -2q1 1 5.5 6.5t8 8t8.5 2.5q7 0 13 -6l8 -9q88 -92 246 -106h12q12 0 38.5 6t41.5 6q4 0 16 -8l19 -16l2 4q-2 4 -6 8.5t-4 9.5q0 10 12 16l6 5h-2q90 47 137 104t68 150q3 7 16 14.5t33 17t31 17.5q-8 3 -28.5 4t-32 5.5t-11.5 16.5q0 4 1 10.5t1 10.5q0 90 -65.5 181.5 t-149.5 129.5l-12 6q-11 3 -11 15q0 2 1 7t1 11l-12 -16q-6 -9 -12 -9q-15 0 -46 6.5t-48 6.5h-15q-56 0 -108 -21q-8 -4 -10 -4q-10 0 -13 10l-6 9q0 -6 1 -11t1 -6q0 -11 -8 -14q-188 -106 -188 -322zM350 1651q0 6 2 8q29 63 75 98t101 35q23 0 49 -6.5t57.5 -16.5 t49.5 -14h-2q41 -12 68 -12q18 0 43.5 21.5t40.5 21.5l77 -27q11 -5 11 -16q0 -47 -60 -92t-123 -45h-6q-57 0 -139 28v-2q-63 19 -74 19q-9 0 -36.5 -23.5t-43.5 -23.5q-1 0 -3 1t-3 1l-72 30q-12 3 -12 15z" />
<glyph unicode="&#xd6;" d="M57 831q7 86 47 220.5t70 134.5q3 0 9.5 -3t17 -8t20.5 -8q-3 4 -14 17t-17 22t-6 13q0 6 6 12l35 49q14 23 40.5 50.5t43.5 27.5q13 0 38 -8t32 -9l2 5q-29 22 -29 40q0 29 101.5 67t177.5 56q125 -12 221 -69q121 -70 121 -99q0 -6 -12 -30q23 18 36 18q3 0 11 -4 l36 -39q108 -114 142 -260l-2 -4q2 -4 2 -14q0 -7 -4 -11.5t-4 -5.5h4q19 0 29 -78.5t10 -138.5v-39q0 -65 -18 -165.5t-38 -100.5l-26 -6q2 -4 8 -13.5t10 -17.5t4 -12v-6q-34 -93 -94.5 -198t-87.5 -105q-7 0 -17 9.5t-12 10.5v-20q0 -5 1 -15.5t1 -15.5q0 -6 -6 -12 q-111 -111 -264 -111h-51q-45 0 -116 19t-71 40v11q0 11 5 36q-12 -1 -36.5 -7.5t-33.5 -6.5q-4 0 -12 4q-163 109 -254 383h-2q-36 111 -50 221q11 11 22 51t11 56q0 20 -18.5 38t-18.5 29zM279 737q0 -57 28 -139q4 -12 22.5 -44t18.5 -38q0 -1 -1 -3.5t-1 -4.5l-10 -25 l4 -2q1 1 5.5 6.5t8 8t8.5 2.5q7 0 13 -6l8 -9q88 -92 246 -106h12q12 0 38.5 6t41.5 6q4 0 16 -8l19 -16l2 4q-2 4 -6 8.5t-4 9.5q0 10 12 16l6 5h-2q90 47 137 104t68 150q3 7 16 14.5t33 17t31 17.5q-8 3 -28.5 4t-32 5.5t-11.5 16.5q0 4 1 10.5t1 10.5q0 90 -65.5 181.5 t-149.5 129.5l-12 6q-11 3 -11 15q0 2 1 7t1 11l-12 -16q-6 -9 -12 -9q-15 0 -46 6.5t-48 6.5h-15q-56 0 -108 -21q-8 -4 -10 -4q-10 0 -13 10l-6 9q0 -6 1 -11t1 -6q0 -11 -8 -14q-188 -106 -188 -322zM371 1702v4q0 42 28.5 72t67.5 30h8q42 0 70 -27t28 -69v-6 q0 -42 -31.5 -71t-70.5 -29t-69.5 28t-30.5 68zM680 1706v2q0 42 30 72t74 30h4q41 0 69 -31t30 -71v-4q0 -38 -31 -69t-74 -31q-41 0 -67.5 27.5t-34.5 74.5z" />
<glyph unicode="&#xd7;" horiz-adv-x="954" d="M98 350q0 7 8 15l132 141q8 3 79 24l-14 45l59 66l-260 330q-4 4 -4 12q0 7 13 14l39 19q4 4 6 4q4 0 12 -8l311 -318l168 213q32 11 51 13l-6 47l49 59q3 10 15 10q7 0 14 -10l51 -74q6 -6 6 -14q0 -7 -8 -10l-280 -252l63 -66q-1 -3 -4 -7t-4 -7l51 -31l209 -213 q6 -6 6 -16q0 -12 -8 -12l-86 -45q-3 -3 -8 -3q-6 0 -13 7l-108 108q0 43 -8 70l-54 -10l-88 92l-329 -262q-5 -5 -13 -5q-7 0 -14 13l-29 55q-4 4 -4 6z" />
<glyph unicode="&#xd8;" d="M57 831q7 86 47 220.5t70 134.5q3 0 9.5 -3t17 -8t20.5 -8q-3 4 -14 17t-17 22t-6 13q0 6 6 12l35 49q14 23 40.5 50.5t43.5 27.5q13 0 38 -8t32 -9l2 5q-29 22 -29 40q0 29 101.5 67t177.5 56q97 -10 172 -45l166 27q22 0 22 -16q0 -1 -1 -4.5t-1 -4.5l-41 -90 q25 -21 25 -35q0 -6 -12 -30q23 18 36 18q3 0 11 -4l36 -39q108 -114 142 -260l-2 -4q2 -4 2 -14q0 -7 -4 -11.5t-4 -5.5h4q19 0 29 -78.5t10 -138.5v-39q0 -65 -18 -165.5t-38 -100.5l-26 -6q2 -4 8 -13.5t10 -17.5t4 -12v-6q-34 -93 -94.5 -198t-87.5 -105q-7 0 -17 9.5 t-12 10.5v-20q0 -5 1 -15.5t1 -15.5q0 -6 -6 -12q-111 -111 -264 -111h-51q-45 0 -116 19t-71 40v11q0 11 5 36q-12 -1 -36.5 -7.5t-33.5 -6.5q-5 0 -17 6l-26 -59q-3 -10 -17 -10l-43 -2q-18 0 -18 14q0 6 2 10l35 103q-114 114 -182 325h-2q-36 111 -50 221q11 11 22 51 t11 56q0 20 -18.5 38t-18.5 29zM279 737q0 -57 28 -139q4 -12 22.5 -44t18.5 -38q0 -1 -1 -3.5t-1 -4.5l-10 -25l4 -2q1 1 5.5 6.5t8 8t8.5 2.5q7 0 13 -6l8 -9q15 -18 33 -30l227 641q-6 2 -18 2h-15q-56 0 -108 -21q-8 -4 -10 -4q-10 0 -13 10l-6 9q0 -6 1 -11t1 -6 q0 -11 -8 -14q-188 -106 -188 -322zM516 399q56 -19 113 -22h12q12 0 38.5 6t41.5 6q4 0 16 -8l19 -16l2 4q-2 4 -6 8.5t-4 9.5q0 10 12 16l6 5h-2q90 47 137 104t68 150q3 7 16 14.5t33 17t31 17.5q-8 3 -28.5 4t-32 5.5t-11.5 16.5q0 4 1 10.5t1 10.5q0 79 -51.5 160 t-124.5 129l-170 -381q-5 -11 -15 -11q-2 0 -7.5 1t-8.5 1h-8q1 -5 8.5 -20.5t7.5 -22.5q0 -1 -1 -4t-1 -4z" />
<glyph unicode="&#xd9;" horiz-adv-x="1292" d="M47 1436v39q0 18 19 18l499 -12q19 0 19 -21l-4 -61q0 -4 -9 -13l-32 -34q4 -3 14.5 -3t16.5 -3.5t5 -16.5l-14 -252q0 -16 -16 -16l-92 16l-4 -491q-24 -24 -43 -58l26 7q16 0 19 -15q27 -119 190 -119h18q6 -2 21 -2q6 0 13 1t9 1q7 0 17 -10l6 -20h4q3 8 6.5 15.5 t4.5 10t3.5 6t6.5 7.5q103 21 106 122l-16 383q33 41 41 74q-14 -14 -27 -14q-8 0 -13 5.5t-5 12.5l-2 86l-86 11q-17 3 -17 18l-2 125q2 5 25.5 34.5t23.5 47.5q0 11 -14 22l6 -2q-6 4 -17 6t-17.5 6t-6.5 15v106q0 19 19 19l497 12q19 0 19 -18v-68q-2 -3 -7 -16v2 q-12 -35 -12 -60q0 -13 10.5 -26t10.5 -19l4 -168q0 -15 -17 -18l-176 -23l6 -229q-18 -24 -18 -55q0 -32 22 -68l11 -289q0 -71 -15 -152t-41 -81q-8 0 -14 6l-29 27v-8q0 -12 10.5 -38.5t10.5 -41.5q0 -6 -4 -6q-57 -78 -156.5 -122t-232.5 -44q-52 0 -110 10.5t-58 30.5 l8 36h-10q-8 0 -24.5 -11t-20.5 -11q-9 0 -13 4q-179 114 -182 440l37 326q0 9 8 14l17 11h-7q-16 0 -16 16l23 192l-209 33q-15 3 -15 19l-6 272q0 19 41 29l-6 6q-2 2 -12.5 8.5t-17.5 13t-7 13.5zM365 1673q0 4 2 8l45 136q2 6 7 11t9 5t6 -2l379 -119q12 -3 12 -18 l-2 -68q0 -18 -16 -18l-424 51q-18 3 -18 14z" />
<glyph unicode="&#xda;" horiz-adv-x="1292" d="M47 1436v39q0 18 19 18l499 -12q19 0 19 -21l-4 -61q0 -4 -9 -13l-32 -34q4 -3 14.5 -3t16.5 -3.5t5 -16.5l-14 -252q0 -16 -16 -16l-92 16l-4 -491q-24 -24 -43 -58l26 7q16 0 19 -15q27 -119 190 -119h18q6 -2 21 -2q6 0 13 1t9 1q7 0 17 -10l6 -20h4q3 8 6.5 15.5 t4.5 10t3.5 6t6.5 7.5q103 21 106 122l-16 383q33 41 41 74q-14 -14 -27 -14q-8 0 -13 5.5t-5 12.5l-2 86l-86 11q-17 3 -17 18l-2 125q2 5 25.5 34.5t23.5 47.5q0 11 -14 22l6 -2q-6 4 -17 6t-17.5 6t-6.5 15v106q0 19 19 19l497 12q19 0 19 -18v-68q-2 -3 -7 -16v2 q-12 -35 -12 -60q0 -13 10.5 -26t10.5 -19l4 -168q0 -15 -17 -18l-176 -23l6 -229q-18 -24 -18 -55q0 -32 22 -68l11 -289q0 -71 -15 -152t-41 -81q-8 0 -14 6l-29 27v-8q0 -12 10.5 -38.5t10.5 -41.5q0 -6 -4 -6q-57 -78 -156.5 -122t-232.5 -44q-52 0 -110 10.5t-58 30.5 l8 36h-10q-8 0 -24.5 -11t-20.5 -11q-9 0 -13 4q-179 114 -182 440l37 326q0 9 8 14l17 11h-7q-16 0 -16 16l23 192l-209 33q-15 3 -15 19l-6 272q0 19 41 29l-6 6q-2 2 -12.5 8.5t-17.5 13t-7 13.5zM428 1700q0 13 12 16l379 107h6q12 0 15 -11l49 -131q0 -16 -15 -20 l-421 -55q-14 0 -17 18z" />
<glyph unicode="&#xdb;" horiz-adv-x="1292" d="M47 1436v39q0 18 19 18l499 -12q19 0 19 -21l-4 -61q0 -4 -9 -13l-32 -34q4 -3 14.5 -3t16.5 -3.5t5 -16.5l-14 -252q0 -16 -16 -16l-92 16l-4 -491q-24 -24 -43 -58l26 7q16 0 19 -15q27 -119 190 -119h18q6 -2 21 -2q6 0 13 1t9 1q7 0 17 -10l6 -20h4q3 8 6.5 15.5 t4.5 10t3.5 6t6.5 7.5q103 21 106 122l-16 383q33 41 41 74q-14 -14 -27 -14q-8 0 -13 5.5t-5 12.5l-2 86l-86 11q-17 3 -17 18l-2 125q2 5 25.5 34.5t23.5 47.5q0 11 -14 22l6 -2q-6 4 -17 6t-17.5 6t-6.5 15v106q0 19 19 19l497 12q19 0 19 -18v-68q-2 -3 -7 -16v2 q-12 -35 -12 -60q0 -13 10.5 -26t10.5 -19l4 -168q0 -15 -17 -18l-176 -23l6 -229q-18 -24 -18 -55q0 -32 22 -68l11 -289q0 -71 -15 -152t-41 -81q-8 0 -14 6l-29 27v-8q0 -12 10.5 -38.5t10.5 -41.5q0 -6 -4 -6q-57 -78 -156.5 -122t-232.5 -44q-52 0 -110 10.5t-58 30.5 l8 36h-10q-8 0 -24.5 -11t-20.5 -11q-9 0 -13 4q-179 114 -182 440l37 326q0 9 8 14l17 11h-7q-16 0 -16 16l23 192l-209 33q-15 3 -15 19l-6 272q0 19 41 29l-6 6q-2 2 -12.5 8.5t-17.5 13t-7 13.5zM393 1671q0 12 10 19l240 145q1 0 4 1t4 1q2 0 5.5 -1t5.5 -1l256 -143 q10 -7 10 -17q0 -4 -4 -12l-29 -41q-5 -8 -14 -8l-213 61l-240 -63q-10 0 -16 12l-17 41q-2 2 -2 6z" />
<glyph unicode="&#xdc;" horiz-adv-x="1292" d="M47 1436v39q0 18 19 18l499 -12q19 0 19 -21l-4 -61q0 -4 -9 -13l-32 -34q4 -3 14.5 -3t16.5 -3.5t5 -16.5l-14 -252q0 -16 -16 -16l-92 16l-4 -491q-24 -24 -43 -58l26 7q16 0 19 -15q27 -119 190 -119h18q6 -2 21 -2q6 0 13 1t9 1q7 0 17 -10l6 -20h4q3 8 6.5 15.5 t4.5 10t3.5 6t6.5 7.5q103 21 106 122l-16 383q33 41 41 74q-14 -14 -27 -14q-8 0 -13 5.5t-5 12.5l-2 86l-86 11q-17 3 -17 18l-2 125q2 5 25.5 34.5t23.5 47.5q0 11 -14 22l6 -2q-6 4 -17 6t-17.5 6t-6.5 15v106q0 19 19 19l497 12q19 0 19 -18v-68q-2 -3 -7 -16v2 q-12 -35 -12 -60q0 -13 10.5 -26t10.5 -19l4 -168q0 -15 -17 -18l-176 -23l6 -229q-18 -24 -18 -55q0 -32 22 -68l11 -289q0 -71 -15 -152t-41 -81q-8 0 -14 6l-29 27v-8q0 -12 10.5 -38.5t10.5 -41.5q0 -6 -4 -6q-57 -78 -156.5 -122t-232.5 -44q-52 0 -110 10.5t-58 30.5 l8 36h-10q-8 0 -24.5 -11t-20.5 -11q-9 0 -13 4q-179 114 -182 440l37 326q0 9 8 14l17 11h-7q-16 0 -16 16l23 192l-209 33q-15 3 -15 19l-6 272q0 19 41 29l-6 6q-2 2 -12.5 8.5t-17.5 13t-7 13.5zM401 1702v4q0 42 29 72t68 30h8q42 0 70 -27t28 -69v-6q0 -42 -31.5 -71 t-70.5 -29t-70 28t-31 68zM711 1706v2q0 42 30 72t74 30h4q41 0 69 -31t30 -71v-4q0 -38 -31 -69t-74 -31q-41 0 -67.5 27.5t-34.5 74.5z" />
<glyph unicode="&#xdd;" horiz-adv-x="1290" d="M59 1098l7 190q14 16 14 27q0 1 -6 6t-6 12l8 164q0 19 20 19l180 -13q17 0 17 -18l2 -29q20 45 39 45l231 -12q19 0 19 -19l-15 -380q0 -19 -16 -19l-100 10l14 -174q0 -110 139 -110h27q6 0 11.5 -5t13.5 -15.5t14 -16.5v20q0 16 16 19q164 18 164 168l6 114l-106 11 q-17 0 -17 18l-2 53q23 38 23 74q0 17 -14.5 40.5t-14.5 29.5l-6 176q0 18 18 18l174 2q5 -7 27 -20v6q0 16 16 16l277 6q18 0 18 -18l-4 -223q0 -15 -8 -15l-45 -38l2 -5q2 0 12 3.5t17 3.5q8 0 14 -6t6 -13v-86q0 -16 -16 -16l-156 -17l2 -145q-44 -63 -57 -94q3 0 17 4 t22 4q7 0 13.5 -6.5t6.5 -12.5l4 -292q-1 -11 -3 -65t-7 -79q-3 -13 -12.5 -17t-26 -4t-24.5 -3q4 -10 23.5 -34t19.5 -34v-2q-71 -271 -322 -330h-6q-9 0 -12 11l-17 26q-6 -6 -13.5 -20.5t-16 -23.5t-23.5 -9h-14q-4 0 -12 -1t-11 -1q-17 6 -78.5 22t-105 30t-43.5 22 l-21 383q0 18 21 18h4q23 -11 124.5 -37.5t119.5 -48.5v10q0 16 16 19q219 24 219 159v17l-4 90q-75 -92 -119 -92q-8 0 -14.5 12.5t-7.5 13.5v-26q0 -29 -90 -29q-126 0 -212.5 60t-129.5 172q-2 2 -2 8q0 15 17.5 61.5t20.5 67.5q-6 -3 -17.5 -11t-21.5 -14t-16 -6 q-26 0 -26 188v41l-160 -4q-19 0 -19 19zM430 1700q0 13 12 16l379 107h6q12 0 15 -11l49 -131q0 -17 -14 -20l-422 -55q-14 0 -17 18z" />
<glyph unicode="&#xde;" horiz-adv-x="1007" d="M39 -16v395q0 18 18 18l211 -8v467l58 78h-2l2 2q-2 1 -13.5 5t-19.5 8t-15.5 11t-7.5 15l2 110l-180 11q-18 0 -18 16l-29 346q0 21 18 21l541 10q19 0 19 -19l6 -391q35 -3 111.5 -31t76.5 -57l12 -123l74 11q21 0 34 -47t17 -97q0 -131 -96.5 -228.5t-245.5 -125.5h27 q18 0 18 -19l-2 -61q-39 -55 -39 -113q0 -34 17 -73h4q16 0 16 -19l-2 -100q0 -19 -18 -19l-137 -2q-5 0 -18.5 11.5t-31 26t-28.5 20.5q-54 -20 -111 -62l-250 -6q-18 0 -18 19zM453 610q46 4 65 4h47q77 0 133 35.5t56 83.5v2q-5 48 -66 85.5t-145 37.5l-78 -6zM475 1083 q20 4 25 4l-23 7z" />
<glyph unicode="&#xdf;" horiz-adv-x="1097" d="M33 346q0 18 14 21l186 32l5 43q47 50 47 123q0 55 -31 109l25 297q-11 55 -13 104l23 107q-19 10 -19 20q0 57 31.5 108t73.5 79l-6 -3q102 117 276 117h10q137 -12 232 -80q6 -7 20.5 -22.5t25 -27.5t22 -26t18 -25.5t6.5 -18.5q0 -14 -25.5 -46t-72 -81t-47.5 -50 q22 4 47 10.5t60 17t52 15.5l31 9q23 0 23 -82v-29q0 -53 -18 -109.5t-52 -97.5l-8 -10q-61 -82 -117 -113q141 -78 195 -319v-15q0 -48 -18.5 -107t-43.5 -99.5t-43 -40.5q-1 0 -8 2t-12 2q-18 0 -72 -13q1 -10 6.5 -30.5t5.5 -34.5q0 -9 -8 -14q-76 -49 -144.5 -68.5 t-164.5 -19.5h-13q-18 0 -18 16l-22 344q0 20 20 20q10 -2 29 -2h28q35 0 55.5 1.5t45.5 8.5t38.5 20.5t23 39t9.5 61.5v13q-8 60 -55 92.5t-151 32.5h-9q-18 0 -18 20l10 178q0 14 17 17q91 14 135.5 30.5t58.5 38.5t14 64v12q0 45 -39 80t-98 35q-42 0 -88 -15l6 3 q-4 -3 -11 -8q-26 -19 -35 -32.5t-17 -48.5t-19 -122v2l-41 -861q0 -14 -16 -18l-315 -45q-15 0 -15 16l-2 27q-1 11 22 32t46 48t22 51q0 26 -26 48.5t-52 38t-26 24.5z" />
<glyph unicode="&#xe0;" horiz-adv-x="915" d="M66 190v17q10 93 22 110q7 8 14 9h19q2 -2 10 -2q23 0 41 24t18 53q0 13 -2 19t-2 8q0 8 9 14l12 9l45 28h-6q-76 0 -119 52.5t-43 130.5q0 133 137 225v-2q69 57 148 57l41 6q13 0 16 -14l6 -43h6q2 4 5 19t7.5 24.5t12.5 9.5q214 0 266 -194v-11q0 -2 4 -14l6 -33 l-16 -22l2 2l-25 -41l17 6q1 0 4 1t4 1q8 0 14 -10t6 -19l-10 -153q9 -66 66 -66h73q19 0 19 -16l6 -101q-27 -59 -27 -118v-27l5 2q6 6 14 6q13 0 16 -16l11 -148q0 -7 -5.5 -12.5t-13.5 -5.5l-158 16q-16 3 -16 15q0 38 10 65q-3 0 -6 10h-2q-5 -25 -18.5 -53t-24.5 -28 q-28 0 -55 18.5t-43 44.5q-111 -80 -242 -80q-121 0 -121 35q0 7 2 17.5t2 11.5v10q-10 -4 -30 -18.5t-25 -14.5q-37 0 -71.5 71t-34.5 115zM197 1108q0 4 2 8l45 135q2 6 7 11.5t9 5.5t6 -2l379 -119q12 -3 12 -19l-2 -67q0 -19 -16 -19l-424 52q-18 3 -18 14zM262 741 q40 0 80 -34l8 -11q6 -6 6 -12q0 -9 -8 -14l-14 -13q2 0 10 6.5t12 6.5q12 0 17.5 -15t5.5 -30q0 -30 -10 -50l2 3q-14 -43 -45 -74q8 4 36.5 18t37 19t30.5 17.5t31.5 21t23 22t21 27.5t12.5 30q-7 45 -41.5 81t-85.5 36q-21 0 -65.5 -12t-63.5 -23zM352 342q0 -23 16 -43 t42 -20q20 0 39 8l10 2h6q10 0 14 -4l2 2q-2 2 -2 10q0 4 7.5 20.5t17.5 42.5t14 48l-2 92q-2 -2 -47 -33.5t-81 -66t-36 -58.5z" />
<glyph unicode="&#xe1;" horiz-adv-x="915" d="M66 190v17q10 93 22 110q7 8 14 9h19q2 -2 10 -2q23 0 41 24t18 53q0 13 -2 19t-2 8q0 8 9 14l12 9l45 28h-6q-76 0 -119 52.5t-43 130.5q0 133 137 225v-2q69 57 148 57l41 6q13 0 16 -14l6 -43h6q2 4 5 19t7.5 24.5t12.5 9.5q214 0 266 -194v-11q0 -2 4 -14l6 -33 l-16 -22l2 2l-25 -41l17 6q1 0 4 1t4 1q8 0 14 -10t6 -19l-10 -153q9 -66 66 -66h73q19 0 19 -16l6 -101q-27 -59 -27 -118v-27l5 2q6 6 14 6q13 0 16 -16l11 -148q0 -7 -5.5 -12.5t-13.5 -5.5l-158 16q-16 3 -16 15q0 38 10 65q-3 0 -6 10h-2q-5 -25 -18.5 -53t-24.5 -28 q-28 0 -55 18.5t-43 44.5q-111 -80 -242 -80q-121 0 -121 35q0 7 2 17.5t2 11.5v10q-10 -4 -30 -18.5t-25 -14.5q-37 0 -71.5 71t-34.5 115zM233 1130q0 14 13 17l379 106h6q11 0 14 -10l49 -131q0 -16 -14 -20l-422 -56q-13 0 -16 19zM262 741q40 0 80 -34l8 -11 q6 -6 6 -12q0 -9 -8 -14l-14 -13q2 0 10 6.5t12 6.5q12 0 17.5 -15t5.5 -30q0 -30 -10 -50l2 3q-14 -43 -45 -74q8 4 36.5 18t37 19t30.5 17.5t31.5 21t23 22t21 27.5t12.5 30q-7 45 -41.5 81t-85.5 36q-21 0 -65.5 -12t-63.5 -23zM352 342q0 -23 16 -43t42 -20q20 0 39 8 l10 2h6q10 0 14 -4l2 2q-2 2 -2 10q0 4 7.5 20.5t17.5 42.5t14 48l-2 92q-2 -2 -47 -33.5t-81 -66t-36 -58.5z" />
<glyph unicode="&#xe2;" horiz-adv-x="915" d="M66 190v17q10 93 22 110q7 8 14 9h19q2 -2 10 -2q23 0 41 24t18 53q0 13 -2 19t-2 8q0 8 9 14l12 9l45 28h-6q-76 0 -119 52.5t-43 130.5q0 133 137 225v-2q69 57 148 57l41 6q13 0 16 -14l6 -43h6q2 4 5 19t7.5 24.5t12.5 9.5q214 0 266 -194v-11q0 -2 4 -14l6 -33 l-16 -22l2 2l-25 -41l17 6q1 0 4 1t4 1q8 0 14 -10t6 -19l-10 -153q9 -66 66 -66h73q19 0 19 -16l6 -101q-27 -59 -27 -118v-27l5 2q6 6 14 6q13 0 16 -16l11 -148q0 -7 -5.5 -12.5t-13.5 -5.5l-158 16q-16 3 -16 15q0 38 10 65q-3 0 -6 10h-2q-5 -25 -18.5 -53t-24.5 -28 q-28 0 -55 18.5t-43 44.5q-111 -80 -242 -80q-121 0 -121 35q0 7 2 17.5t2 11.5v10q-10 -4 -30 -18.5t-25 -14.5q-37 0 -71.5 71t-34.5 115zM190 1096q0 11 11 18l239 146q1 0 4.5 1t4.5 1q2 0 5 -1t5 -1l256 -144q10 -7 10 -16q0 -5 -4 -13l-29 -40q-6 -9 -14 -9l-213 62 l-240 -64q-9 0 -16 13l-16 41q-3 3 -3 6zM262 741q40 0 80 -34l8 -11q6 -6 6 -12q0 -9 -8 -14l-14 -13q2 0 10 6.5t12 6.5q12 0 17.5 -15t5.5 -30q0 -30 -10 -50l2 3q-14 -43 -45 -74q8 4 36.5 18t37 19t30.5 17.5t31.5 21t23 22t21 27.5t12.5 30q-7 45 -41.5 81t-85.5 36 q-21 0 -65.5 -12t-63.5 -23zM352 342q0 -23 16 -43t42 -20q20 0 39 8l10 2h6q10 0 14 -4l2 2q-2 2 -2 10q0 4 7.5 20.5t17.5 42.5t14 48l-2 92q-2 -2 -47 -33.5t-81 -66t-36 -58.5z" />
<glyph unicode="&#xe3;" horiz-adv-x="915" d="M66 190v17q10 93 22 110q7 8 14 9h19q2 -2 10 -2q23 0 41 24t18 53q0 13 -2 19t-2 8q0 8 9 14l12 9l45 28h-6q-76 0 -119 52.5t-43 130.5q0 133 137 225v-2q69 57 148 57l41 6q13 0 16 -14l6 -43h6q2 4 5 19t7.5 24.5t12.5 9.5q214 0 266 -194v-11q0 -2 4 -14l6 -33 l-16 -22l2 2l-25 -41l17 6q1 0 4 1t4 1q8 0 14 -10t6 -19l-10 -153q9 -66 66 -66h73q19 0 19 -16l6 -101q-27 -59 -27 -118v-27l5 2q6 6 14 6q13 0 16 -16l11 -148q0 -7 -5.5 -12.5t-13.5 -5.5l-158 16q-16 3 -16 15q0 38 10 65q-3 0 -6 10h-2q-5 -25 -18.5 -53t-24.5 -28 q-28 0 -55 18.5t-43 44.5q-111 -80 -242 -80q-121 0 -121 35q0 7 2 17.5t2 11.5v10q-10 -4 -30 -18.5t-25 -14.5q-37 0 -71.5 71t-34.5 115zM170 1110q0 6 2 8q29 63 75 98t101 35q23 0 49 -6.5t57.5 -16.5t49.5 -14h-2q40 -12 67 -12q18 0 43.5 21.5t40.5 21.5l78 -26 q10 -5 10 -17q0 -47 -59.5 -92t-122.5 -45h-6q-54 0 -139 29v-2q-59 18 -74 18q-9 0 -36.5 -23.5t-43.5 -23.5q-1 0 -3 1t-3 1l-72 31q-12 3 -12 14zM262 741q40 0 80 -34l8 -11q6 -6 6 -12q0 -9 -8 -14l-14 -13q2 0 10 6.5t12 6.5q12 0 17.5 -15t5.5 -30q0 -30 -10 -50l2 3 q-14 -43 -45 -74q8 4 36.5 18t37 19t30.5 17.5t31.5 21t23 22t21 27.5t12.5 30q-7 45 -41.5 81t-85.5 36q-21 0 -65.5 -12t-63.5 -23zM352 342q0 -23 16 -43t42 -20q20 0 39 8l10 2h6q10 0 14 -4l2 2q-2 2 -2 10q0 4 7.5 20.5t17.5 42.5t14 48l-2 92q-2 -2 -47 -33.5 t-81 -66t-36 -58.5z" />
<glyph unicode="&#xe4;" horiz-adv-x="915" d="M66 190v17q10 93 22 110q7 8 14 9h19q2 -2 10 -2q23 0 41 24t18 53q0 13 -2 19t-2 8q0 8 9 14l12 9l45 28h-6q-76 0 -119 52.5t-43 130.5q0 133 137 225v-2q69 57 148 57l41 6q13 0 16 -14l6 -43h6q2 4 5 19t7.5 24.5t12.5 9.5q214 0 266 -194v-11q0 -2 4 -14l6 -33 l-16 -22l2 2l-25 -41l17 6q1 0 4 1t4 1q8 0 14 -10t6 -19l-10 -153q9 -66 66 -66h73q19 0 19 -16l6 -101q-27 -59 -27 -118v-27l5 2q6 6 14 6q13 0 16 -16l11 -148q0 -7 -5.5 -12.5t-13.5 -5.5l-158 16q-16 3 -16 15q0 38 10 65q-3 0 -6 10h-2q-5 -25 -18.5 -53t-24.5 -28 q-28 0 -55 18.5t-43 44.5q-111 -80 -242 -80q-121 0 -121 35q0 7 2 17.5t2 11.5v10q-10 -4 -30 -18.5t-25 -14.5q-37 0 -71.5 71t-34.5 115zM182 1137v4q0 42 29 72t68 30h8q42 0 70 -27t28 -69v-6q0 -42 -31.5 -71.5t-70.5 -29.5t-70 28.5t-31 68.5zM262 741q40 0 80 -34 l8 -11q6 -6 6 -12q0 -9 -8 -14l-14 -13q2 0 10 6.5t12 6.5q12 0 17.5 -15t5.5 -30q0 -30 -10 -50l2 3q-14 -43 -45 -74q8 4 36.5 18t37 19t30.5 17.5t31.5 21t23 22t21 27.5t12.5 30q-7 45 -41.5 81t-85.5 36q-21 0 -65.5 -12t-63.5 -23zM352 342q0 -23 16 -43t42 -20 q20 0 39 8l10 2h6q10 0 14 -4l2 2q-2 2 -2 10q0 4 7.5 20.5t17.5 42.5t14 48l-2 92q-2 -2 -47 -33.5t-81 -66t-36 -58.5zM492 1141v2q0 42 30 72t74 30h4q41 0 68.5 -31t29.5 -71v-4q0 -38 -30.5 -69.5t-73.5 -31.5q-40 0 -67 28t-35 75z" />
<glyph unicode="&#xe5;" horiz-adv-x="915" d="M66 190v17q10 93 22 110q7 8 14 9h19q2 -2 10 -2q23 0 41 24t18 53q0 13 -2 19t-2 8q0 8 9 14l12 9l45 28h-6q-76 0 -119 52.5t-43 130.5q0 133 137 225v-2q69 57 148 57l41 6q13 0 16 -14l6 -43h6q2 4 5 19t7.5 24.5t12.5 9.5q214 0 266 -194v-11q0 -2 4 -14l6 -33 l-16 -22l2 2l-25 -41l17 6q1 0 4 1t4 1q8 0 14 -10t6 -19l-10 -153q9 -66 66 -66h73q19 0 19 -16l6 -101q-27 -59 -27 -118v-27l5 2q6 6 14 6q13 0 16 -16l11 -148q0 -7 -5.5 -12.5t-13.5 -5.5l-158 16q-16 3 -16 15q0 38 10 65q-3 0 -6 10h-2q-5 -25 -18.5 -53t-24.5 -28 q-28 0 -55 18.5t-43 44.5q-111 -80 -242 -80q-121 0 -121 35q0 7 2 17.5t2 11.5v10q-10 -4 -30 -18.5t-25 -14.5q-37 0 -71.5 71t-34.5 115zM262 741q40 0 80 -34l8 -11q6 -6 6 -12q0 -9 -8 -14l-14 -13q2 0 10 6.5t12 6.5q12 0 17.5 -15t5.5 -30q0 -30 -10 -50l2 3 q-14 -43 -45 -74q8 4 36.5 18t37 19t30.5 17.5t31.5 21t23 22t21 27.5t12.5 30q-7 45 -41.5 81t-85.5 36q-21 0 -65.5 -12t-63.5 -23zM262 1100q4 6 16.5 20t18.5 23l-33 26q10 59 50 101.5t104 48.5l24 -57q21 10 103 30q43 -25 67 -71l4 -11l-127 -123q83 4 134 13 q-9 -59 -56.5 -104.5t-101.5 -45.5q-3 0 -8 1t-8 1h-11q-71 0 -122 41t-54 107zM352 342q0 -23 16 -43t42 -20q20 0 39 8l10 2h6q10 0 14 -4l2 2q-2 2 -2 10q0 4 7.5 20.5t17.5 42.5t14 48l-2 92q-2 -2 -47 -33.5t-81 -66t-36 -58.5zM395 1135q0 -20 14.5 -35t34.5 -15 q22 0 37 15t15 35q0 21 -13.5 36t-33.5 15h-5q-21 0 -35 -13.5t-14 -37.5z" />
<glyph unicode="&#xe6;" horiz-adv-x="1374" d="M49 193v16q2 31 8 57.5t12.5 47t21 40.5t23.5 32.5t30 28t32 23.5t38.5 21.5t39.5 19t44 19.5q6 3 9 4l51 22q45 14 90 55t52 87q-10 42 -47 74t-91 32q-33 0 -57 -8h2q-34 -8 -61 -23q40 -3 73 -36l-4 2q47 -30 47 -80q0 -25 -12 -52l2 3q-13 -39 -46.5 -69t-76.5 -30 h-14q-62 0 -105.5 52t-43.5 120v19q0 132 139 219h-2q77 57 151 57h41q97 0 170.5 -29t106.5 -83q44 55 113 86.5t141 31.5h14q150 0 256.5 -144t106.5 -370v-20q0 -19 -17 -19l-524 -37q43 -83 192 -83q83 0 125 63q3 10 17 10l194 -14q19 -3 19 -16q0 -2 -2 -8t-2 -7 q-50 -149 -163.5 -246.5t-238.5 -97.5q-70 0 -144 20t-118 70q-84 -73 -199 -88h2q-47 -8 -96 -8q-136 0 -217.5 62t-81.5 174zM342 342q0 -20 14 -45h-2q13 -23 35 -23q39 0 71 34t46 104v-4l4 104q-33 -38 -78.5 -69t-67.5 -51t-22 -50zM764 571l309 -24q-20 91 -151 94 q-50 -4 -93.5 -24t-64.5 -46z" />
<glyph unicode="&#xe7;" horiz-adv-x="880" d="M61 451q0 57 6 99t13.5 65t23 39t25.5 21t30.5 12t28.5 11v4q-61 0 -61 21q0 4 4 12q38 78 128 148.5t161 70.5h2q2 2 8 2q7 0 12 -9t11.5 -23t13.5 -21q15 6 37 24.5t28 18.5q13 0 51.5 -17.5t65.5 -33.5h-2q4 -3 13.5 -7t13.5 -7l55 -58q0 -59 14 -59q2 0 7 1t8 1 q13 0 16 -10l8 -15v2q36 -74 39 -116v-13q0 -73 -50 -124.5t-112 -51.5q-20 0 -65 15l-14 8q-15 4 -15 69h-41q-26 0 -26 76v15q3 48 34 79q-46 19 -83 19q-65 0 -110.5 -39t-64 -91.5t-18.5 -111.5q0 -79 39 -127v-22l16 2q52 -40 123 -49q34 0 62.5 7t43.5 14t40 22l38 18 l185 14q11 0 14 -6l14 -12l5 -19q-1 -3 -2.5 -9t-7 -22.5t-11 -32t-13 -34t-14.5 -32t-15 -22.5t-15 -9q-5 0 -10.5 1t-9 2t-6 2t-3.5 1q-5 -16 -21 -45.5t-22 -48.5l-16 -15v2q-5 -6 -15 -15t-12 -11q59 -62 59 -127q0 -72 -60.5 -116t-143.5 -44q-44 0 -141 23.5t-97 52.5 q0 8 4 12l66 96q9 9 12 9q2 0 12 -5q62 -45 113 -45q14 0 29.5 8.5t15.5 20.5q0 11 -27.5 23t-67.5 25.5t-55 21.5q-97 20 -174 104l-6 25q-2 0 -2 1q0 3 -2 5h-6q-9 0 -14 8q-43 61 -61 128.5t-36 193.5z" />
<glyph unicode="&#xe8;" horiz-adv-x="874" d="M59 424v18q0 11 2 17v8q0 103 37 190q0 4 13.5 13t27 28t13.5 47v13l34 49q51 50 121 100l58 31q22 0 22 -20l14 24q3 14 33 14h29q148 0 250 -141q0 -17 -6.5 -44t-6.5 -38q5 2 16 8.5t20.5 11.5t13.5 5q9 0 14 -8q12 -17 22.5 -38.5t17 -39t12 -46t8.5 -42.5t5.5 -46.5 t3 -41t2 -42t1.5 -34.5q0 -19 -19 -19l-272 5q-27 0 -27 53q-3 -5 -8 -20t-10.5 -23t-14.5 -8l-221 4q0 -42 49 -80t107 -51l29 -50q4 19 8 29.5t13 16t15.5 7t25 4t32.5 5.5q19 4 46 30.5t34 26.5l186 -4q20 0 20 -29q0 -33 -24.5 -86t-71.5 -110l2 4q-18 -18 -34 -23.5 t-44 -5.5l-2 -10q-3 -14 -14 -14h-4l-19 -49l-12 -9q-72 -40 -151 -43q-79 5 -153 40t-126 98v-3q-37 37 -37 58q0 4 2 6l23 74h-2q-2 -2 -2 -8l-8 -29q-3 -17 -17 -17q-29 0 -52.5 91t-23.5 143zM209 1122q0 4 2 8l45 136q2 6 7 11t9 5q5 0 7 -2l378 -119q13 -3 13 -18 l-2 -68q0 -18 -17 -18l-424 51q-18 3 -18 14zM293 569l309 -4q-14 32 -54.5 54t-92.5 22h-17q-8 0 -14 -2q-4 0 -16 4l-23 25l-6 -11q-3 -6 -10 -6v-4q-6 -6 -11 -18t-12 -15l-4 -4q-30 -18 -49 -41z" />
<glyph unicode="&#xe9;" horiz-adv-x="874" d="M59 424v18q0 11 2 17v8q0 103 37 190q0 4 13.5 13t27 28t13.5 47v13l34 49q51 50 121 100l58 31q22 0 22 -20l14 24q3 14 33 14h29q148 0 250 -141q0 -17 -6.5 -44t-6.5 -38q5 2 16 8.5t20.5 11.5t13.5 5q9 0 14 -8q12 -17 22.5 -38.5t17 -39t12 -46t8.5 -42.5t5.5 -46.5 t3 -41t2 -42t1.5 -34.5q0 -19 -19 -19l-272 5q-27 0 -27 53q-3 -5 -8 -20t-10.5 -23t-14.5 -8l-221 4q0 -42 49 -80t107 -51l29 -50q4 19 8 29.5t13 16t15.5 7t25 4t32.5 5.5q19 4 46 30.5t34 26.5l186 -4q20 0 20 -29q0 -33 -24.5 -86t-71.5 -110l2 4q-18 -18 -34 -23.5 t-44 -5.5l-2 -10q-3 -14 -14 -14h-4l-19 -49l-12 -9q-72 -40 -151 -43q-79 5 -153 40t-126 98v-3q-37 37 -37 58q0 4 2 6l23 74h-2q-2 -2 -2 -8l-8 -29q-3 -17 -17 -17q-29 0 -52.5 91t-23.5 143zM240 1130q0 14 12 17l379 106h6q11 0 14 -10l49 -131q0 -16 -14 -20 l-422 -56q-13 0 -16 19zM293 569l309 -4q-14 32 -54.5 54t-92.5 22h-17q-8 0 -14 -2q-4 0 -16 4l-23 25l-6 -11q-3 -6 -10 -6v-4q-6 -6 -11 -18t-12 -15l-4 -4q-30 -18 -49 -41z" />
<glyph unicode="&#xea;" horiz-adv-x="874" d="M59 424v18q0 11 2 17v8q0 103 37 190q0 4 13.5 13t27 28t13.5 47v13l34 49q51 50 121 100l58 31q22 0 22 -20l14 24q3 14 33 14h29q148 0 250 -141q0 -17 -6.5 -44t-6.5 -38q5 2 16 8.5t20.5 11.5t13.5 5q9 0 14 -8q12 -17 22.5 -38.5t17 -39t12 -46t8.5 -42.5t5.5 -46.5 t3 -41t2 -42t1.5 -34.5q0 -19 -19 -19l-272 5q-27 0 -27 53q-3 -5 -8 -20t-10.5 -23t-14.5 -8l-221 4q0 -42 49 -80t107 -51l29 -50q4 19 8 29.5t13 16t15.5 7t25 4t32.5 5.5q19 4 46 30.5t34 26.5l186 -4q20 0 20 -29q0 -33 -24.5 -86t-71.5 -110l2 4q-18 -18 -34 -23.5 t-44 -5.5l-2 -10q-3 -14 -14 -14h-4l-19 -49l-12 -9q-72 -40 -151 -43q-79 5 -153 40t-126 98v-3q-37 37 -37 58q0 4 2 6l23 74h-2q-2 -2 -2 -8l-8 -29q-3 -17 -17 -17q-29 0 -52.5 91t-23.5 143zM193 1106q0 11 10 18l239 146q1 0 4.5 1t4.5 1q2 0 5 -1t5 -1l256 -144 q10 -7 10 -16q0 -4 -4 -12l-29 -41q-5 -8 -14 -8l-213 61l-240 -63q-10 0 -16 12l-16 41q-2 2 -2 6zM293 569l309 -4q-14 32 -54.5 54t-92.5 22h-17q-8 0 -14 -2q-4 0 -16 4l-23 25l-6 -11q-3 -6 -10 -6v-4q-6 -6 -11 -18t-12 -15l-4 -4q-30 -18 -49 -41z" />
<glyph unicode="&#xeb;" horiz-adv-x="874" d="M59 424v18q0 11 2 17v8q0 103 37 190q0 4 13.5 13t27 28t13.5 47v13l34 49q51 50 121 100l58 31q22 0 22 -20l14 24q3 14 33 14h29q148 0 250 -141q0 -17 -6.5 -44t-6.5 -38q5 2 16 8.5t20.5 11.5t13.5 5q9 0 14 -8q12 -17 22.5 -38.5t17 -39t12 -46t8.5 -42.5t5.5 -46.5 t3 -41t2 -42t1.5 -34.5q0 -19 -19 -19l-272 5q-27 0 -27 53q-3 -5 -8 -20t-10.5 -23t-14.5 -8l-221 4q0 -42 49 -80t107 -51l29 -50q4 19 8 29.5t13 16t15.5 7t25 4t32.5 5.5q19 4 46 30.5t34 26.5l186 -4q20 0 20 -29q0 -33 -24.5 -86t-71.5 -110l2 4q-18 -18 -34 -23.5 t-44 -5.5l-2 -10q-3 -14 -14 -14h-4l-19 -49l-12 -9q-72 -40 -151 -43q-79 5 -153 40t-126 98v-3q-37 37 -37 58q0 4 2 6l23 74h-2q-2 -2 -2 -8l-8 -29q-3 -17 -17 -17q-29 0 -52.5 91t-23.5 143zM209 1130v5q0 42 28.5 72t67.5 30h8q42 0 70.5 -27t28.5 -69v-6 q0 -42 -32 -71.5t-71 -29.5t-69.5 28t-30.5 68zM293 569l309 -4q-14 32 -54.5 54t-92.5 22h-17q-8 0 -14 -2q-4 0 -16 4l-23 25l-6 -11q-3 -6 -10 -6v-4q-6 -6 -11 -18t-12 -15l-4 -4q-30 -18 -49 -41zM518 1135v2q0 42 30.5 72t74.5 30h4q41 0 68.5 -31t29.5 -71v-4 q0 -38 -30.5 -69.5t-73.5 -31.5q-41 0 -68 28t-35 75z" />
<glyph unicode="&#xec;" horiz-adv-x="540" d="M6 1120q0 4 2 8l45 136q1 6 6.5 11t10.5 5q4 0 6 -2l379 -119q12 -3 12 -18l-2 -68q0 -18 -16 -18l-424 51q-19 3 -19 14zM43 913q0 21 16 21l336 24q19 0 19 -20l-13 -197q-16 -29 -16 -45q0 -10 6 -21t6 -18l-16 -266l115 -8q16 0 16 -18l2 -113q-15 -25 -16 -29 q18 -3 18 -18l2 -178q0 -19 -16 -19l-123 -10q-16 0 -19 14l-10 35q-2 -2 -2 -5t-2 -5l-12 -31q-3 -14 -15 -14l-204 -17q-16 0 -19 17l-22 205q0 11 10 21.5t12 17.5q-28 0 -28 18l-13 135q0 14 15 14l129 -18l-15 147l-96 7q-16 0 -16 16l-13 156q0 8 10 18t29.5 25 t30.5 26q-8 4 -29.5 9t-36 11t-14.5 15z" />
<glyph unicode="&#xed;" horiz-adv-x="540" d="M43 913q0 21 16 21l336 24q19 0 19 -20l-13 -197q-16 -29 -16 -45q0 -10 6 -21t6 -18l-16 -266l115 -8q16 0 16 -18l2 -113q-15 -25 -16 -29q18 -3 18 -18l2 -178q0 -19 -16 -19l-123 -10q-16 0 -19 14l-10 35q-2 -2 -2 -5t-2 -5l-12 -31q-3 -14 -15 -14l-204 -17 q-16 0 -19 17l-22 205q0 11 10 21.5t12 17.5q-28 0 -28 18l-13 135q0 14 15 14l129 -18l-15 147l-96 7q-16 0 -16 16l-13 156q0 8 10 18t29.5 25t30.5 26q-8 4 -29.5 9t-36 11t-14.5 15zM45 1130q0 14 12 17l379 106h6q12 0 15 -10l49 -131q0 -16 -14 -20l-422 -56 q-14 0 -17 19z" />
<glyph unicode="&#xee;" horiz-adv-x="540" d="M10 1098q0 11 10 18l240 146q1 0 4 1t4 1q2 0 5.5 -1t5.5 -1l256 -144q10 -7 10 -16q0 -4 -4 -12l-29 -41q-6 -9 -14 -9l-213 62l-240 -64q-9 0 -16 13l-17 41q-2 2 -2 6zM43 913q0 21 16 21l336 24q19 0 19 -20l-13 -197q-16 -29 -16 -45q0 -10 6 -21t6 -18l-16 -266 l115 -8q16 0 16 -18l2 -113q-15 -25 -16 -29q18 -3 18 -18l2 -178q0 -19 -16 -19l-123 -10q-16 0 -19 14l-10 35q-2 -2 -2 -5t-2 -5l-12 -31q-3 -14 -15 -14l-204 -17q-16 0 -19 17l-22 205q0 11 10 21.5t12 17.5q-28 0 -28 18l-13 135q0 14 15 14l129 -18l-15 147l-96 7 q-16 0 -16 16l-13 156q0 8 10 18t29.5 25t30.5 26q-8 4 -29.5 9t-36 11t-14.5 15z" />
<glyph unicode="&#xef;" horiz-adv-x="540" d="M8 1157v4q0 42 28.5 72.5t67.5 30.5h9q42 0 70 -27.5t28 -69.5v-6q0 -42 -31.5 -71t-70.5 -29t-70 28t-31 68zM43 913q0 21 16 21l336 24q19 0 19 -20l-13 -197q-16 -29 -16 -45q0 -10 6 -21t6 -18l-16 -266l115 -8q16 0 16 -18l2 -113q-15 -25 -16 -29q18 -3 18 -18 l2 -178q0 -19 -16 -19l-123 -10q-16 0 -19 14l-10 35q-2 -2 -2 -5t-2 -5l-12 -31q-3 -14 -15 -14l-204 -17q-16 0 -19 17l-22 205q0 11 10 21.5t12 17.5q-28 0 -28 18l-13 135q0 14 15 14l129 -18l-15 147l-96 7q-16 0 -16 16l-13 156q0 8 10 18t29.5 25t30.5 26 q-8 4 -29.5 9t-36 11t-14.5 15zM317 1161v2q0 42 30.5 72.5t74.5 30.5h4q41 0 68.5 -31.5t29.5 -71.5v-4q0 -38 -30.5 -69t-73.5 -31q-41 0 -68 28t-35 74z" />
<glyph unicode="&#xf0;" horiz-adv-x="1060" d="M33 500v4q0 5 4 9.5t12 10t17 11t23 14t26 16.5v-2l22 12l-67 41q-11 7 -11 17q0 2 4 10l17 23v-2q53 109 161 166t232 57h19q10 0 16 -2h10q74 0 144 -24t106 -66q-9 160 -29 213v-2q-23 37 -66 59.5t-73.5 27.5t-60.5 5h-64q-34 0 -58 -3t-52 -14t-45.5 -30.5 t-31.5 -55.5t-18 -86q-3 -16 -18 -16l-178 -4l-19 20q2 22 3 59.5t3 57.5v25q0 8 5 53v6q0 19 86 76q9 6 12.5 9.5t5.5 4.5l-51 72q-4 4 -4 10q0 1 1 3.5t1 4.5l24 53q54 76 132 112.5t227 45.5q126 0 245 -42t119 -95q0 -11 -19 -42.5t-43 -69t-32 -54.5q25 4 76.5 25.5 t79.5 21.5q13 0 23.5 -21t18 -57t12.5 -68.5t10 -72.5t7 -51l-8 -264q0 -19 -18 -19h-13l-38 -39v-53q5 -7 21.5 -22.5t29 -29t12.5 -18.5l-2 -65q8 -31 8 -80q0 -84 -37 -165t-82 -126l-4 -8q-5 -8 -16 -8q-6 0 -10 4q-75 61 -131 72q-41 -64 -45 -170q0 -23 -54 -23 q-113 0 -190.5 17t-149.5 65v-2q-228 133 -237 459zM289 530q0 -68 66.5 -113.5t162.5 -45.5q21 0 45 6q84 13 140 57t63 119l-4 35q-55 108 -246 108h-10q-93 0 -155 -51.5t-62 -114.5z" />
<glyph unicode="&#xf1;" horiz-adv-x="1038" d="M33 905q0 19 16 19l141 12q12 0 28 -31t30 -31q5 9 12 28t14 29.5t17 10.5l86 8q7 0 12.5 -6t5.5 -12v-119q120 129 226 129q47 0 112.5 -37.5t65.5 -73.5q0 -5 -0.5 -10t-1 -8t-0.5 -4q0 -3 1 -10t1 -11v-34q21 -7 53 -15q26 0 42.5 -102.5t16.5 -198.5v-22q2 -4 2 -17 v-8l93 2q18 0 18 -16l8 -111q-26 -34 -53 -112q37 14 51 14q11 0 14 -18l13 -125q0 -15 -17 -19l-428 -53q-13 0 -16 16l-43 402q0 14 16 14l107 8l4 72q0 94 -25 154.5t-63 60.5q-12 0 -15.5 8.5t-3.5 23.5t-2 21q-4 -6 -27 -35.5t-32 -48.5l-10 -8q-50 -47 -96 -111 l-5 -141l84 -2q19 0 19 -18l-15 -367q0 -18 -16 -18l-174 -15q-4 0 -12 5t-8 10q-24 -10 -33 -19l-148 -12q-15 0 -18 16l-35 377q0 18 16 21l119 22l4 141l-118 -6q-21 0 -21 19l-4 129q0 4 1.5 7.5t4.5 7.5t6.5 7t9.5 7.5t10.5 7.5t13 8.5t13.5 9.5l-45 6q-16 3 -16 19z M246 1133q0 6 2 8q29 63 75 98t101 35q23 0 49 -6.5t57.5 -16.5t49.5 -14h-2q40 -12 67 -12q18 0 43.5 21.5t40.5 21.5l78 -27q10 -5 10 -16q0 -47 -59.5 -92.5t-122.5 -45.5h-6q-55 0 -140 29v-2q-63 19 -73 19q-9 0 -36.5 -24t-43.5 -24q-1 0 -3 1t-3 1l-72 31 q-12 3 -12 15z" />
<glyph unicode="&#xf2;" horiz-adv-x="880" d="M61 465q0 39 6.5 76.5t16.5 80.5t14 70l8 17q3 12 17 12q42 0 78.5 47t36.5 96q0 13 6 15q96 75 184 75q19 0 30 -7t13.5 -15t5 -23t4.5 -22q27 55 41 55h6q36 -5 102 -35.5t66 -62.5q0 -1 -1 -4.5t-1 -5.5l-16 -50q12 3 20 11l2 2q4 1 11 5.5t10 4.5q9 0 42.5 -53.5 t33.5 -71.5q0 -6 -7.5 -16.5t-18.5 -23.5t-15 -19h8q8 0 21.5 2t21.5 2q28 0 51 -158q-3 -106 -31 -195l-12 -24v-12q-23 -56 -76 -115l-14 -14q-7 -7 -14 -7h-4q-52 0 -58 -57q-80 -64 -190 -76q-164 0 -281 142.5t-117 353.5zM176 377q11 1 37 9.5t41 8.5q9 0 18 -12 q17 -43 67 -69.5t107 -26.5h15q18 0 18 -19v-20l4 -6q172 123 172 213q0 72 -57 129q-4 4 -18 12t-24.5 16t-10.5 15q0 8 2 10h-2q-3 -14 -17 -14q-16 0 -45.5 9t-31.5 9q-92 -3 -138.5 -53t-56.5 -123q-18 -18 -46 -49.5t-34 -38.5zM209 1130q0 5 2 9l45 135q2 6 7 11t9 5 q5 0 7 -2l378 -119q13 -3 13 -18l-2 -68q0 -18 -17 -18l-424 51q-18 3 -18 14z" />
<glyph unicode="&#xf3;" horiz-adv-x="880" d="M61 465q0 39 6.5 76.5t16.5 80.5t14 70l8 17q3 12 17 12q42 0 78.5 47t36.5 96q0 13 6 15q96 75 184 75q19 0 30 -7t13.5 -15t5 -23t4.5 -22q27 55 41 55h6q36 -5 102 -35.5t66 -62.5q0 -1 -1 -4.5t-1 -5.5l-16 -50q12 3 20 11l2 2q4 1 11 5.5t10 4.5q9 0 42.5 -53.5 t33.5 -71.5q0 -6 -7.5 -16.5t-18.5 -23.5t-15 -19h8q8 0 21.5 2t21.5 2q28 0 51 -158q-3 -106 -31 -195l-12 -24v-12q-23 -56 -76 -115l-14 -14q-7 -7 -14 -7h-4q-52 0 -58 -57q-80 -64 -190 -76q-164 0 -281 142.5t-117 353.5zM176 377q11 1 37 9.5t41 8.5q9 0 18 -12 q17 -43 67 -69.5t107 -26.5h15q18 0 18 -19v-20l4 -6q172 123 172 213q0 72 -57 129q-4 4 -18 12t-24.5 16t-10.5 15q0 8 2 10h-2q-3 -14 -17 -14q-16 0 -45.5 9t-31.5 9q-92 -3 -138.5 -53t-56.5 -123q-18 -18 -46 -49.5t-34 -38.5zM238 1145q0 13 12 16l379 107h6 q11 0 14 -11l49 -131q0 -16 -14 -20l-422 -55q-13 0 -16 18z" />
<glyph unicode="&#xf4;" horiz-adv-x="880" d="M61 465q0 39 6.5 76.5t16.5 80.5t14 70l8 17q3 12 17 12q42 0 78.5 47t36.5 96q0 13 6 15q96 75 184 75q19 0 30 -7t13.5 -15t5 -23t4.5 -22q27 55 41 55h6q36 -5 102 -35.5t66 -62.5q0 -1 -1 -4.5t-1 -5.5l-16 -50q12 3 20 11l2 2q4 1 11 5.5t10 4.5q9 0 42.5 -53.5 t33.5 -71.5q0 -6 -7.5 -16.5t-18.5 -23.5t-15 -19h8q8 0 21.5 2t21.5 2q28 0 51 -158q-3 -106 -31 -195l-12 -24v-12q-23 -56 -76 -115l-14 -14q-7 -7 -14 -7h-4q-52 0 -58 -57q-80 -64 -190 -76q-164 0 -281 142.5t-117 353.5zM176 377q11 1 37 9.5t41 8.5q9 0 18 -12 q17 -43 67 -69.5t107 -26.5h15q18 0 18 -19v-20l4 -6q172 123 172 213q0 72 -57 129q-4 4 -18 12t-24.5 16t-10.5 15q0 8 2 10h-2q-3 -14 -17 -14q-16 0 -45.5 9t-31.5 9q-92 -3 -138.5 -53t-56.5 -123q-18 -18 -46 -49.5t-34 -38.5zM197 1106q0 11 10 18l239 146q1 0 4.5 1 t4.5 1q2 0 5 -1t5 -1l256 -144q10 -7 10 -16q0 -4 -4 -12l-29 -41q-5 -8 -14 -8l-213 61l-240 -63q-10 0 -16 12l-16 41q-2 2 -2 6z" />
<glyph unicode="&#xf5;" horiz-adv-x="880" d="M61 465q0 39 6.5 76.5t16.5 80.5t14 70l8 17q3 12 17 12q42 0 78.5 47t36.5 96q0 13 6 15q96 75 184 75q19 0 30 -7t13.5 -15t5 -23t4.5 -22q27 55 41 55h6q36 -5 102 -35.5t66 -62.5q0 -1 -1 -4.5t-1 -5.5l-16 -50q12 3 20 11l2 2q4 1 11 5.5t10 4.5q9 0 42.5 -53.5 t33.5 -71.5q0 -6 -7.5 -16.5t-18.5 -23.5t-15 -19h8q8 0 21.5 2t21.5 2q28 0 51 -158q-3 -106 -31 -195l-12 -24v-12q-23 -56 -76 -115l-14 -14q-7 -7 -14 -7h-4q-52 0 -58 -57q-80 -64 -190 -76q-164 0 -281 142.5t-117 353.5zM176 377q11 1 37 9.5t41 8.5q9 0 18 -12 q17 -43 67 -69.5t107 -26.5h15q18 0 18 -19v-20l4 -6q172 123 172 213q0 72 -57 129q-4 4 -18 12t-24.5 16t-10.5 15q0 8 2 10h-2q-3 -14 -17 -14q-16 0 -45.5 9t-31.5 9q-92 -3 -138.5 -53t-56.5 -123q-18 -18 -46 -49.5t-34 -38.5zM182 1126q0 7 2 9q29 63 75 98t101 35 q23 0 49 -6.5t57.5 -16.5t49.5 -14h-2q41 -12 68 -12q18 0 43.5 21.5t40.5 21.5l77 -27q11 -5 11 -16q0 -47 -60 -92.5t-123 -45.5h-6q-54 0 -139 29v-2q-59 18 -74 18q-9 0 -36.5 -23.5t-43.5 -23.5q-1 0 -3 1t-3 1l-71 31q-13 3 -13 14z" />
<glyph unicode="&#xf6;" horiz-adv-x="880" d="M61 465q0 39 6.5 76.5t16.5 80.5t14 70l8 17q3 12 17 12q42 0 78.5 47t36.5 96q0 13 6 15q96 75 184 75q19 0 30 -7t13.5 -15t5 -23t4.5 -22q27 55 41 55h6q36 -5 102 -35.5t66 -62.5q0 -1 -1 -4.5t-1 -5.5l-16 -50q12 3 20 11l2 2q4 1 11 5.5t10 4.5q9 0 42.5 -53.5 t33.5 -71.5q0 -6 -7.5 -16.5t-18.5 -23.5t-15 -19h8q8 0 21.5 2t21.5 2q28 0 51 -158q-3 -106 -31 -195l-12 -24v-12q-23 -56 -76 -115l-14 -14q-7 -7 -14 -7h-4q-52 0 -58 -57q-80 -64 -190 -76q-164 0 -281 142.5t-117 353.5zM176 377q11 1 37 9.5t41 8.5q9 0 18 -12 q17 -43 67 -69.5t107 -26.5h15q18 0 18 -19v-20l4 -6q172 123 172 213q0 72 -57 129q-4 4 -18 12t-24.5 16t-10.5 15q0 8 2 10h-2q-3 -14 -17 -14q-16 0 -45.5 9t-31.5 9q-92 -3 -138.5 -53t-56.5 -123q-18 -18 -46 -49.5t-34 -38.5zM199 1143v4q0 42 28.5 72t67.5 30h8 q42 0 70 -27t28 -69v-6q0 -42 -31.5 -71t-70.5 -29t-69.5 28t-30.5 68zM508 1147v2q0 42 30 72t74 30h4q41 0 69 -31t30 -71v-4q0 -38 -31 -69.5t-74 -31.5q-40 0 -67 28t-35 75z" />
<glyph unicode="&#xf7;" horiz-adv-x="815" d="M74 831q0 19 18 19l281 10q8 0 17.5 -18t20.5 -46t15 -36q1 6 3.5 21.5t4.5 27.5t6 25.5t9.5 21t13.5 8.5l244 10q15 0 18 -14l37 -213q0 -7 -6.5 -13.5t-12.5 -6.5l-86 2q-13 0 -16 12l-12 25l-27 -27q-3 -8 -14 -8h-64q18 -24 21 -60v-2q0 -10 -2 -16q-31 13 -39 18 q2 -20 16 -63l-6 -6q-33 -33 -74 -33q-84 0 -100 102v2q20 27 33 37h-27l14 25l-112 4q-25 0 -29 49q-2 -3 -8 -19t-11.5 -22t-13.5 -6h-90q-18 0 -18 18zM342 1120v2q20 27 33 37h-27q34 66 96 66h5q40 0 68 -31.5t30 -73.5v-2q0 -10 -2 -16q-31 14 -39 18q2 -20 16 -63 l-6 -6q-33 -33 -74 -33q-84 0 -100 102z" />
<glyph unicode="&#xf8;" horiz-adv-x="880" d="M23 -2q0 4 2 6l110 170q-74 126 -74 291q0 39 6.5 76.5t16.5 80.5t14 70l8 17q3 12 17 12q42 0 78.5 47t36.5 96q0 13 6 15q96 75 184 75q19 0 30 -7t13.5 -15t5 -23t4.5 -22q27 55 41 55h6q27 -4 88 -31q2 2 9 2l213 19q26 0 26 -10q0 -1 -1 -3.5t-1 -3.5l-114 -139 q18 -24 33.5 -53t15.5 -41q0 -6 -7.5 -16.5t-18.5 -23.5t-15 -19h8q8 0 21.5 2t21.5 2q28 0 51 -158q-3 -106 -31 -195l-12 -24v-12q-23 -56 -76 -115l-14 -14q-7 -7 -14 -7h-4q-52 0 -58 -57q-80 -64 -190 -76q-154 0 -266 125l-80 -96q-3 -6 -19 -6l-49 -2q-22 0 -22 8z M176 377q11 1 37 9.5t41 8.5q10 0 16 -12l168 258q-157 -13 -182 -176q-18 -18 -46 -49.5t-34 -38.5zM360 301q38 -14 86 -14h15q18 0 18 -19v-20l4 -6q172 123 172 213q0 72 -61 133l-141 -172q-6 -6 -17 -6q-2 0 -8.5 1t-9.5 1h-10q1 -4 9.5 -14.5t8.5 -14.5q-2 -2 -2 -4z " />
<glyph unicode="&#xf9;" horiz-adv-x="1036" d="M41 553l2 176q0 8 7 16.5t19.5 20.5t20.5 22q-7 4 -20 7.5t-20 8.5t-7 15l2 72q0 15 16 18l115 17q11 0 27 -19t35 -24l18 8q12 3 20 16v2q0 12 5 20t10 10.5t8 2.5l158 25q8 0 13 -6t5 -13l2 -399q0 -19 -16 -19h-4l-78 7q-8 -57 -8 -113q0 -65 16 -115q-2 -6 -2 -20 v-23q4 2 12 2l21 -8q27 -27 80 -27q103 0 178 140v76q9 4 31 26h-2q-1 0 -4.5 -1t-4.5 -1q-18 0 -18 19v53l-92 -10q-21 0 -21 18l-16 350q0 19 18 19l410 16q18 0 18 -16l2 -35q-17 -28 -36 -88q4 1 13.5 7.5t16.5 6.5q16 0 19 -16l30 -275q0 -14 -14 -14l-141 14v-131 l114 -2q19 0 19 -20l-8 -125q0 -6 -19.5 -28t-19.5 -38q0 -11 5.5 -15.5t12 -4.5t11.5 -4.5t4 -14.5l-11 -166q0 -7 -6.5 -11.5t-13.5 -4.5l-121 6q-5 0 -8.5 2.5t-5.5 7.5t-3 8.5l-3 10.5l-1 6q-15 0 -34 -15.5t-27 -15.5l-100 6q-17 0 -17 19l9 110q-95 -122 -228 -122 q-32 0 -74 10q-8 1 -11.5 6t-3.5 11t-1 16t-4 18l-25 -21q-8 -8 -16 -8q-10 0 -10 8q-99 57 -137 193l-7 29q5 7 9 18q-17 5 -17 72q0 102 17 213l-99 -10q-14 0 -14 18zM303 1118q0 4 2 8l45 136q1 6 6.5 11t10.5 5q4 0 6 -2l379 -119q12 -3 12 -18l-2 -68q0 -18 -17 -18 l-423 51q-19 3 -19 14z" />
<glyph unicode="&#xfa;" horiz-adv-x="1036" d="M41 553l2 176q0 8 7 16.5t19.5 20.5t20.5 22q-7 4 -20 7.5t-20 8.5t-7 15l2 72q0 15 16 18l115 17q11 0 27 -19t35 -24l18 8q12 3 20 16v2q0 12 5 20t10 10.5t8 2.5l158 25q8 0 13 -6t5 -13l2 -399q0 -19 -16 -19h-4l-78 7q-8 -57 -8 -113q0 -65 16 -115q-2 -6 -2 -20 v-23q4 2 12 2l21 -8q27 -27 80 -27q103 0 178 140v76q9 4 31 26h-2q-1 0 -4.5 -1t-4.5 -1q-18 0 -18 19v53l-92 -10q-21 0 -21 18l-16 350q0 19 18 19l410 16q18 0 18 -16l2 -35q-17 -28 -36 -88q4 1 13.5 7.5t16.5 6.5q16 0 19 -16l30 -275q0 -14 -14 -14l-141 14v-131 l114 -2q19 0 19 -20l-8 -125q0 -6 -19.5 -28t-19.5 -38q0 -11 5.5 -15.5t12 -4.5t11.5 -4.5t4 -14.5l-11 -166q0 -7 -6.5 -11.5t-13.5 -4.5l-121 6q-5 0 -8.5 2.5t-5.5 7.5t-3 8.5l-3 10.5l-1 6q-15 0 -34 -15.5t-27 -15.5l-100 6q-17 0 -17 19l9 110q-95 -122 -228 -122 q-32 0 -74 10q-8 1 -11.5 6t-3.5 11t-1 16t-4 18l-25 -21q-8 -8 -16 -8q-10 0 -10 8q-99 57 -137 193l-7 29q5 7 9 18q-17 5 -17 72q0 102 17 213l-99 -10q-14 0 -14 18zM326 1139q0 13 12 16l379 107h6q11 0 14 -11l49 -131q0 -16 -14 -20l-422 -56q-13 0 -16 19z" />
<glyph unicode="&#xfb;" horiz-adv-x="1036" d="M41 553l2 176q0 8 7 16.5t19.5 20.5t20.5 22q-7 4 -20 7.5t-20 8.5t-7 15l2 72q0 15 16 18l115 17q11 0 27 -19t35 -24l18 8q12 3 20 16v2q0 12 5 20t10 10.5t8 2.5l158 25q8 0 13 -6t5 -13l2 -399q0 -19 -16 -19h-4l-78 7q-8 -57 -8 -113q0 -65 16 -115q-2 -6 -2 -20 v-23q4 2 12 2l21 -8q27 -27 80 -27q103 0 178 140v76q9 4 31 26h-2q-1 0 -4.5 -1t-4.5 -1q-18 0 -18 19v53l-92 -10q-21 0 -21 18l-16 350q0 19 18 19l410 16q18 0 18 -16l2 -35q-17 -28 -36 -88q4 1 13.5 7.5t16.5 6.5q16 0 19 -16l30 -275q0 -14 -14 -14l-141 14v-131 l114 -2q19 0 19 -20l-8 -125q0 -6 -19.5 -28t-19.5 -38q0 -11 5.5 -15.5t12 -4.5t11.5 -4.5t4 -14.5l-11 -166q0 -7 -6.5 -11.5t-13.5 -4.5l-121 6q-5 0 -8.5 2.5t-5.5 7.5t-3 8.5l-3 10.5l-1 6q-15 0 -34 -15.5t-27 -15.5l-100 6q-17 0 -17 19l9 110q-95 -122 -228 -122 q-32 0 -74 10q-8 1 -11.5 6t-3.5 11t-1 16t-4 18l-25 -21q-8 -8 -16 -8q-10 0 -10 8q-99 57 -137 193l-7 29q5 7 9 18q-17 5 -17 72q0 102 17 213l-99 -10q-14 0 -14 18zM281 1116q0 12 10 19l239 145q1 0 4.5 1t4.5 1q2 0 5 -1t5 -1l256 -143q10 -7 10 -17q0 -4 -4 -12 l-29 -41q-5 -8 -14 -8l-213 61l-240 -63q-10 0 -16 12l-16 41q-2 2 -2 6z" />
<glyph unicode="&#xfc;" horiz-adv-x="1036" d="M41 553l2 176q0 8 7 16.5t19.5 20.5t20.5 22q-7 4 -20 7.5t-20 8.5t-7 15l2 72q0 15 16 18l115 17q11 0 27 -19t35 -24l18 8q12 3 20 16v2q0 12 5 20t10 10.5t8 2.5l158 25q8 0 13 -6t5 -13l2 -399q0 -19 -16 -19h-4l-78 7q-8 -57 -8 -113q0 -65 16 -115q-2 -6 -2 -20 v-23q4 2 12 2l21 -8q27 -27 80 -27q103 0 178 140v76q9 4 31 26h-2q-1 0 -4.5 -1t-4.5 -1q-18 0 -18 19v53l-92 -10q-21 0 -21 18l-16 350q0 19 18 19l410 16q18 0 18 -16l2 -35q-17 -28 -36 -88q4 1 13.5 7.5t16.5 6.5q16 0 19 -16l30 -275q0 -14 -14 -14l-141 14v-131 l114 -2q19 0 19 -20l-8 -125q0 -6 -19.5 -28t-19.5 -38q0 -11 5.5 -15.5t12 -4.5t11.5 -4.5t4 -14.5l-11 -166q0 -7 -6.5 -11.5t-13.5 -4.5l-121 6q-5 0 -8.5 2.5t-5.5 7.5t-3 8.5l-3 10.5l-1 6q-15 0 -34 -15.5t-27 -15.5l-100 6q-17 0 -17 19l9 110q-95 -122 -228 -122 q-32 0 -74 10q-8 1 -11.5 6t-3.5 11t-1 16t-4 18l-25 -21q-8 -8 -16 -8q-10 0 -10 8q-99 57 -137 193l-7 29q5 7 9 18q-17 5 -17 72q0 102 17 213l-99 -10q-14 0 -14 18zM279 1133v4q0 42 28.5 72t67.5 30h8q42 0 70 -27t28 -69v-6q0 -42 -31.5 -71.5t-70.5 -29.5 t-69.5 28.5t-30.5 68.5zM588 1137v2q0 42 30 72t74 30h4q41 0 69 -31t30 -71v-4q0 -38 -31 -69.5t-74 -31.5q-40 0 -67 28t-35 75z" />
<glyph unicode="&#xfd;" horiz-adv-x="1060" d="M66 -350q2 2 2 4l32 129q0 5 8 10.5t20.5 13t18.5 13.5q-4 7 -12 16t-12 15t-4 10q0 1 1 3t1 3l45 164q0 6 5 10t11 4q12 0 19 -10q52 -98 141 -98q7 0 14 1t9 1q7 0 25 -21t26 -22v43q0 7 8 13t26 16t31 20l-80 239q0 1 -1 2t-1 2q0 6 9.5 16t24 23t20.5 19q-28 4 -41 4 h-17q-15 0 -18 14l-86 262l-148 -39q-4 -2 -8 -2q-16 0 -16 21l2 133q0 9 14.5 25t14.5 24q0 6 -13.5 17t-13.5 22l2 121q0 18 18 18l117 6q6 0 22.5 -17t30.5 -17q13 0 39.5 20.5t34.5 20.5l156 6q18 0 18 -19l2 -344q0 -15 -14 -18l-37 -10l27 -101q0 -6 -7.5 -17.5 t-7.5 -19.5q0 -20 20 -28.5t21 -14.5l33 -112l86 299l-27 -8q-18 0 -18 18l2 100q0 5 10.5 16.5t10.5 26.5q0 13 -10.5 29.5t-10.5 19.5l4 160q0 19 17 19l126 14q9 0 15 -6.5t11.5 -17.5t8.5 -15q0 43 19 43l221 23q16 0 16 -21l-20 -391q0 -18 -19 -18l-88 -3 q-15 0 -18 15l-6 10h-6q0 -3 1 -4t1 -4q0 -19 -19 -19l-24 -2l-68 -190q-28 -14 -72 -49q4 -3 15.5 -5.5t19.5 -7t8 -12.5q0 -2 -1 -4.5t-1 -3.5l-90 -258l2 4q-1 -6 -1.5 -16.5t-1.5 -17t-2 -15t-3 -13.5t-4.5 -10t-6.5 -7.5t-9 -2.5t-16 4t-13 6l-19 -32l37 -29q4 -2 4 -8 q0 -45 -33.5 -94.5t-70.5 -83.5q-106 -101 -166 -101q-5 0 -17 11.5t-18 13.5v-21q0 -26 -94 -26h-6q-102 0 -180 78q-8 4 -8 12zM141 750l6 -2q0 2 -2 2h-4zM371 1128q0 14 12 17l379 106h6q12 0 14 -10l49 -131q0 -16 -14 -20l-422 -56q-13 0 -16 19z" />
<glyph unicode="&#xfe;" horiz-adv-x="1007" d="M39 -16v395q0 18 18 18l215 -8v696l-180 11q-18 0 -18 16l-29 346q0 21 18 21l541 10q19 0 19 -19l6 -391q141 -27 228 -116.5t97 -227.5q0 -131 -96.5 -228.5t-245.5 -125.5h27q18 0 18 -19l-6 -366q0 -19 -18 -19l-576 -12q-18 0 -18 19zM453 610q46 4 65 4h47 q77 0 133 35.5t56 83.5v2q-5 48 -66 85.5t-145 37.5l-78 -6zM475 1083q20 4 25 4l-23 7z" />
<glyph unicode="&#xff;" horiz-adv-x="1060" d="M66 -350q2 2 2 4l32 129q0 5 8 10.5t20.5 13t18.5 13.5q-4 7 -12 16t-12 15t-4 10q0 1 1 3t1 3l45 164q0 6 5 10t11 4q12 0 19 -10q52 -98 141 -98q7 0 14 1t9 1q7 0 25 -21t26 -22v43q0 7 8 13t26 16t31 20l-80 239q0 1 -1 2t-1 2q0 6 9.5 16t24 23t20.5 19q-28 4 -41 4 h-17q-15 0 -18 14l-86 262l-148 -39q-4 -2 -8 -2q-16 0 -16 21l2 133q0 9 14.5 25t14.5 24q0 6 -13.5 17t-13.5 22l2 121q0 18 18 18l117 6q6 0 22.5 -17t30.5 -17q13 0 39.5 20.5t34.5 20.5l156 6q18 0 18 -19l2 -344q0 -15 -14 -18l-37 -10l27 -101q0 -6 -7.5 -17.5 t-7.5 -19.5q0 -20 20 -28.5t21 -14.5l33 -112l86 299l-27 -8q-18 0 -18 18l2 100q0 5 10.5 16.5t10.5 26.5q0 13 -10.5 29.5t-10.5 19.5l4 160q0 19 17 19l126 14q9 0 15 -6.5t11.5 -17.5t8.5 -15q0 43 19 43l221 23q16 0 16 -21l-20 -391q0 -18 -19 -18l-88 -3 q-15 0 -18 15l-6 10h-6q0 -3 1 -4t1 -4q0 -19 -19 -19l-24 -2l-68 -190q-28 -14 -72 -49q4 -3 15.5 -5.5t19.5 -7t8 -12.5q0 -2 -1 -4.5t-1 -3.5l-90 -258l2 4q-1 -6 -1.5 -16.5t-1.5 -17t-2 -15t-3 -13.5t-4.5 -10t-6.5 -7.5t-9 -2.5t-16 4t-13 6l-19 -32l37 -29q4 -2 4 -8 q0 -45 -33.5 -94.5t-70.5 -83.5q-106 -101 -166 -101q-5 0 -17 11.5t-18 13.5v-21q0 -26 -94 -26h-6q-102 0 -180 78q-8 4 -8 12zM141 750l6 -2q0 2 -2 2h-4zM348 1139v4q0 42 28.5 72t67.5 30h9q42 0 70 -27t28 -69v-6q0 -42 -31.5 -71.5t-70.5 -29.5t-70 28.5t-31 68.5z M657 1143v2q0 42 30.5 72t74.5 30h4q41 0 68.5 -31t29.5 -71v-4q0 -38 -30.5 -69.5t-73.5 -31.5q-41 0 -68 28t-35 75z" />
<glyph unicode="&#x152;" horiz-adv-x="2066" d="M57 831q6 77 46.5 216t70.5 139q3 0 9.5 -3t17 -8t20.5 -8q-37 42 -37 52q0 6 6 12l35 49q15 22 43.5 50t40.5 28q13 0 38 -8t32 -9l2 5q-29 23 -29 40q0 23 97.5 63t181.5 60q138 -17 221 -69l39 -25l2 76q0 18 18 18l232 -8q38 -21 49 -41h10q8 0 35 19l4 4q3 16 21 16 l346 -12q6 0 16 -10h2q5 -6 37 -17l6 13q3 10 17 10l253 -6q16 0 19 -15l6 -47q0 -13 -10 -29t-10 -18q0 -7 8 -20l8 -7q3 -4 7 -14t7 -14l8 -19l33 -198q0 -7 -8 -15l-12 -14l10 -10q6 -6 6 -13v-112q0 -19 -18 -19l-191 -8q-18 0 -18 19v159l-115 -8q-11 0 -36 14.5 t-36 14.5h-6v-19q0 -18 -16 -18l-248 -20l-35 -213l264 16q19 0 19 -21l6 13q3 10 14 10l64 4q7 0 13.5 -4.5t6.5 -11.5l13 -195q0 -6 -5.5 -13t-11.5 -7l-133 -9q-18 2 -26 11l-5 -4q-3 -9 -12 -9l-231 -14l8 -217l362 23q5 -4 21.5 -13t23.5 -14l3 4q-3 3 -3 8q0 16 19 19 l78 2l4 133q0 18 18 18l187 2q18 0 18 -20l-20 -359q-1 0 -17 -28l6 -4q6 -6 6 -15l-6 -123q0 -18 -16 -18l-303 -14q-9 0 -15 6l-16 14l-4 -12q-3 -10 -16 -10l-457 -19q-10 0 -18 11t-17.5 22.5t-23.5 11.5q-15 0 -27.5 -8t-19.5 -17.5t-14.5 -17.5t-12.5 -8l-176 -8 q-21 0 -21 18l2 17q-61 -27 -139 -27h-51q-45 0 -116 19t-71 40v11q0 1 5 36q-12 -1 -36.5 -7.5t-33.5 -6.5l-12 4q-166 113 -254 383h-2q-36 111 -50 221q11 11 22 51t11 56q0 18 -18.5 37t-18.5 30zM279 737q0 -124 65 -211q4 -4 4 -10l-1 -2q-1 -2 -1 -6l-10 -25l4 -2 l6 8q9 9 16 9t13 -6l8 -9q88 -92 246 -106h12q12 0 38 6t42 6q5 0 16 -8l19 -16l2 4l-8 10q-2 2 -2 8q0 10 12 16l6 5h-2q90 49 136 104.5t69 149.5q3 11 12 14l2 45q-6 6 -6 16q0 4 1 10.5t1 10.5q0 90 -65.5 181.5t-149.5 129.5l-12 6q-11 4 -11 15q0 2 1 7t1 11l-12 -16 q-6 -9 -12 -9q-15 0 -46 6.5t-48 6.5h-15q-23 0 -63 -12.5t-55 -12.5q-10 0 -13 10l-6 9q0 -6 1 -10t1 -7q0 -7 -17.5 -20t-42 -29.5t-34.5 -26.5q-102 -102 -102 -260z" />
<glyph unicode="&#x153;" horiz-adv-x="1466" d="M61 465q0 39 6.5 76.5t16.5 80.5t14 70l8 17q3 12 17 12q42 0 78.5 47t36.5 96q0 29 70.5 59.5t119.5 30.5q25 0 34.5 -8.5t12.5 -30.5t6 -28q27 55 41 55q35 0 104.5 -34t69.5 -64q0 -1 -1 -4t-1 -6l-16 -50q12 3 20 11l2 2q2 2 5 2h2q8 8 14 8t13 -10t15 -24.5 t13 -20.5v6l35 49q11 9 33 30.5t43 39t45 30.5l57 31q22 0 22 -20l15 24q5 14 32 14h29q148 0 250 -141q0 -8 -2 -10v-6q-1 -12 -5.5 -34.5t-4.5 -31.5q5 2 16 8.5t20 11.5t13 5q25 0 43 -42t26.5 -108.5t12 -107.5t4.5 -80q0 -19 -19 -19l-272 5q-27 0 -27 53 q-3 -6 -7 -20.5t-9.5 -22.5t-15.5 -8l-222 4q0 -46 49.5 -81t106.5 -50l29 -50q4 31 23 44t41.5 13t50 12.5t43.5 41.5q3 8 16 8l186 -4q21 0 21 -29q0 -33 -25 -86t-72 -110l3 4q-20 -20 -31.5 -24.5t-46.5 -4.5l-2 -10q-3 -14 -15 -14h-4l-18 -49l-12 -9q-72 -40 -152 -43 q-79 5 -153 40t-126 98v-3q-5 6 -28 37l-33 -34q-7 -7 -14 -7h-4q-52 0 -58 -57q-80 -64 -190 -76q-164 0 -281 142.5t-117 353.5zM176 377q11 1 37 9.5t41 8.5q6 0 21.5 -17t35 -37t56 -37t79.5 -17h15q18 0 18 -19v-20l4 -6q33 19 70 65q102 61 102 148q0 48 -28.5 93 t-71.5 62q-10 3 -10 17q0 8 2 10h-2q-3 -14 -17 -14q-12 0 -25 3t-29.5 8t-22.5 7q-93 -3 -135 -50t-60 -126q-18 -18 -46 -49.5t-34 -38.5zM903 569l309 -4q-14 32 -54.5 54t-92.5 22h-16q-13 0 -15 -2q-4 3 -10 3t-6 1l-23 25l-6 -11q-3 -6 -10 -6v-4q-3 -3 -4 -11t-4 -11 l-4 -4q-3 -1 -5.5 -3.5t-5.5 -3.5l-4 -4q-35 -19 -49 -41z" />
<glyph unicode="&#x178;" horiz-adv-x="1290" d="M59 1098l7 190q14 16 14 27q0 1 -6 6t-6 12l8 164q0 19 20 19l180 -13q17 0 17 -18l2 -29q20 45 39 45l231 -12q19 0 19 -19l-15 -380q0 -19 -16 -19l-100 10l14 -174q0 -110 139 -110h27q6 0 11.5 -5t13.5 -15.5t14 -16.5v20q0 16 16 19q164 18 164 168l6 114l-106 11 q-17 0 -17 18l-2 53q23 38 23 74q0 17 -14.5 40.5t-14.5 29.5l-6 176q0 18 18 18l174 2q5 -7 27 -20v6q0 16 16 16l277 6q18 0 18 -18l-4 -223q0 -15 -8 -15l-45 -38l2 -5q2 0 12 3.5t17 3.5q8 0 14 -6t6 -13v-86q0 -16 -16 -16l-156 -17l2 -145q-44 -63 -57 -94q3 0 17 4 t22 4q7 0 13.5 -6.5t6.5 -12.5l4 -292q-1 -11 -3 -65t-7 -79q-3 -13 -12.5 -17t-26 -4t-24.5 -3q4 -10 23.5 -34t19.5 -34v-2q-71 -271 -322 -330h-6q-9 0 -12 11l-17 26q-6 -6 -13.5 -20.5t-16 -23.5t-23.5 -9h-14q-4 0 -12 -1t-11 -1q-17 6 -78.5 22t-105 30t-43.5 22 l-21 383q0 18 21 18h4q23 -11 124.5 -37.5t119.5 -48.5v10q0 16 16 19q219 24 219 159v17l-4 90q-75 -92 -119 -92q-8 0 -14.5 12.5t-7.5 13.5v-26q0 -29 -90 -29q-126 0 -212.5 60t-129.5 172q-2 2 -2 8q0 15 17.5 61.5t20.5 67.5q-6 -3 -17.5 -11t-21.5 -14t-16 -6 q-26 0 -26 188v41l-160 -4q-19 0 -19 19zM412 1702v4q0 42 28.5 72t67.5 30h8q42 0 70 -27t28 -69v-6q0 -42 -31.5 -71t-70.5 -29t-69.5 28t-30.5 68zM721 1706v2q0 42 30 72t74 30h4q41 0 69 -31t30 -71v-4q0 -38 -31 -69t-74 -31q-41 0 -67.5 27.5t-34.5 74.5z" />
<glyph unicode="&#x2c6;" d="M313 1671q0 12 11 19l239 145q1 0 4 1t4 1q2 0 5.5 -1t5.5 -1l256 -143q10 -7 10 -17q0 -4 -4 -12l-29 -41q-5 -8 -14 -8l-213 61l-240 -63q-10 0 -16 12l-17 41q-2 2 -2 6z" />
<glyph unicode="&#x2dc;" d="M289 1651q0 6 2 8q29 63 75 98t101 35q23 0 49 -6.5t57.5 -16.5t49.5 -14h-2q41 -12 67 -12q18 0 43.5 21.5t40.5 21.5l78 -27q10 -5 10 -16q0 -47 -59.5 -92t-122.5 -45h-6q-58 0 -140 28v-2q-63 19 -73 19q-9 0 -36.5 -23.5t-43.5 -23.5q-1 0 -3 1t-3 1l-72 30 q-12 3 -12 15z" />
<glyph unicode="&#x2000;" horiz-adv-x="951" />
<glyph unicode="&#x2001;" horiz-adv-x="1903" />
<glyph unicode="&#x2002;" horiz-adv-x="951" />
<glyph unicode="&#x2003;" horiz-adv-x="1903" />
<glyph unicode="&#x2004;" horiz-adv-x="634" />
<glyph unicode="&#x2005;" horiz-adv-x="475" />
<glyph unicode="&#x2006;" horiz-adv-x="317" />
<glyph unicode="&#x2007;" horiz-adv-x="317" />
<glyph unicode="&#x2008;" horiz-adv-x="237" />
<glyph unicode="&#x2009;" horiz-adv-x="380" />
<glyph unicode="&#x200a;" horiz-adv-x="105" />
<glyph unicode="&#x2010;" horiz-adv-x="622" d="M78 831q0 19 10 19l195 10q5 0 12 -19t14.5 -47t9.5 -34q8 104 23 104l170 10q9 0 12 -14l25 -215q0 -18 -12 -18l-60 2q-11 0 -18 37l-19 -27q-1 -3 -3.5 -5t-4.5 -2l-2 -1l-233 8q-13 0 -13 12l-8 33q-7 -43 -22 -43h-62q-12 0 -12 18z" />
<glyph unicode="&#x2011;" horiz-adv-x="622" d="M78 831q0 19 10 19l195 10q5 0 12 -19t14.5 -47t9.5 -34q8 104 23 104l170 10q9 0 12 -14l25 -215q0 -18 -12 -18l-60 2q-11 0 -18 37l-19 -27q-1 -3 -3.5 -5t-4.5 -2l-2 -1l-233 8q-13 0 -13 12l-8 33q-7 -43 -22 -43h-62q-12 0 -12 18z" />
<glyph unicode="&#x2012;" horiz-adv-x="622" d="M78 831q0 19 10 19l195 10q5 0 12 -19t14.5 -47t9.5 -34q8 104 23 104l170 10q9 0 12 -14l25 -215q0 -18 -12 -18l-60 2q-11 0 -18 37l-19 -27q-1 -3 -3.5 -5t-4.5 -2l-2 -1l-233 8q-13 0 -13 12l-8 33q-7 -43 -22 -43h-62q-12 0 -12 18z" />
<glyph unicode="&#x2013;" horiz-adv-x="1060" d="M76 831q0 17 24 17l394 10q13 0 26 -17t27 -45t20 -36q1 5 4.5 22t7 27.5t8.5 24t13 20.5t18 8l340 10q21 0 27 -14l51 -211q0 -18 -26 -18l-121 2q-10 0 -19.5 8.5t-13.5 16.5t-4 10l-39 -25q-3 -8 -20 -8l-474 8q-12 0 -19 4t-9.5 9t-6.5 16t-8 18q-7 -16 -11 -23.5 t-12 -15.5t-17 -8l-130 2q-26 0 -26 16z" />
<glyph unicode="&#x2014;" horiz-adv-x="1302" d="M72 831q0 17 30 17l496 10q16 0 32.5 -16.5t35.5 -43.5t26 -34q2 4 8 24.5t11 34t17 26t28 13.5l430 10q27 0 33 -14l63 -201l2 -4q0 -6 -10 -11t-23 -5l-153 2q-19 0 -32 12t-15 23l-50 -27q-6 -6 -26 -6l-598 6q-18 0 -26.5 7t-13.5 20.5t-11 19.5l-25 -35 q-10 -10 -29 -10l-161 2q-33 0 -33 17z" />
<glyph unicode="&#x2018;" horiz-adv-x="489" d="M25 1219v28q0 21 2 31q2 26 16.5 64t28.5 38l28 6q0 5 -3 13.5t-3 13.5q0 8 4 10l17 17q169 162 278 162q10 0 13 -13l14 -26q2 -2 2 -9q0 -10 -12 -16q-113 -50 -113 -113v-2q56 -22 84 -53h2q6 -6 6 -14q0 -6 -11.5 -20.5t-37.5 -41.5t-27 -28q17 3 50.5 7t50.5 7 q8 0 16 -5.5t8 -12.5v-5q4 -20 4 -32q-4 -92 -64 -148t-151 -61q-20 7 -30 15t-12.5 14.5t-6 24.5t-6.5 30q-2 -2 -10 -16t-17.5 -25.5t-15.5 -11.5q-4 0 -12 4q-51 39 -63 54q-29 37 -29 114z" />
<glyph unicode="&#x2019;" horiz-adv-x="489" d="M61 1364q4 91 63 146.5t148 60.5q19 -7 29 -15t12.5 -14t6 -24.5t6.5 -30.5q2 2 10 16t17.5 25.5t15.5 11.5q4 0 12 -4q4 -3 17.5 -13.5t17 -13.5l14 -12t13 -14t9.5 -15t9 -18.5t5 -21t4 -26.5t1 -32v-27q0 -20 -2 -30q-2 -26 -16.5 -63.5t-28.5 -37.5l-29 -6 q0 -5 3 -13t3 -13q0 -9 -4 -11l-14 -16q-165 -158 -274 -158q-10 0 -13 11l-14 26q-2 2 -2 8q0 11 12 17q111 49 111 110v2q-54 22 -82 54h-2q-6 6 -6 14q0 5 13.5 21t33 37t26.5 30q-16 -3 -49 -7t-49 -7q-8 0 -15 5.5t-7 12.5v4q-5 25 -5 31z" />
<glyph unicode="&#x201a;" horiz-adv-x="489" d="M61 184q4 91 63 146.5t148 60.5q19 -7 29 -15t12.5 -14t6 -24.5t6.5 -30.5q2 2 10 16t17.5 25.5t15.5 11.5q4 0 12 -4q4 -3 17.5 -13.5t17 -13.5l14 -12t13 -14t9.5 -15t9 -18.5t5 -21t4 -26.5t1 -32v-26q0 -21 -2 -31q-2 -26 -16.5 -63t-28.5 -37l-29 -6q0 -5 3 -13.5 t3 -13.5q0 -8 -4 -10l-14 -17q-164 -157 -274 -157q-11 0 -13 10l-14 27q-2 2 -2 8q0 10 12 16q111 49 111 111v2q-55 23 -82 53h-2q-6 6 -6 14q0 5 13.5 21t33 37t26.5 30q-16 -3 -49 -7t-49 -7q-8 0 -15 6t-7 13v4q-5 25 -5 30z" />
<glyph unicode="&#x201c;" horiz-adv-x="950" d="M41 1214q0 64 6 84v-2q1 0 2 3t2 6.5t4 7t6 4.5l72 22q28 6 137 39l-48 8q-47 7 -78 17t-31 22q0 6 6 15l12 10q50 42 139 98q24 20 72 40t68 20q8 0 14 -13l12 -34q4 -8 4 -11q0 -5 -10 -12q-123 -64 -123 -111q51 -20 84 -46.5t46.5 -55.5t17.5 -50.5t4 -47.5 q0 -68 -34.5 -118t-96.5 -75l-19 -8q-4 -2 -10 -2q-11 0 -14 18l-17 177q-10 -18 -35 -69.5t-43 -84.5t-26 -33q-9 0 -28 10.5t-41 30.5t-38 57.5t-16 83.5zM479 1210q0 222 226 340l-3 -2q92 58 148 58q6 0 16 -13l11 -28q2 -2 2 -9q0 -9 -11 -16q-120 -68 -123 -113 q95 -43 95 -69q0 -10 -34.5 -74t-41.5 -88q6 -2 20 -2h23q15 0 65 4q9 0 16 -5t7 -11q0 -5 -4.5 -15t-5.5 -16v-2q-29 -53 -77 -92t-106 -39q-9 0 -11 4.5t-2 13.5t-3 15l-102 12q-6 -12 -17 -12q-6 0 -19 9.5t-16 18.5l3 -2q0 2 -14 18.5t-28 47t-14 67.5z" />
<glyph unicode="&#x201d;" horiz-adv-x="931" d="M47 1354v22q0 82 58.5 132t144.5 63h8q76 0 136.5 -52.5t60.5 -144.5v-31q0 -8 -4 -28v2q-13 -97 -84 -168l-5 -4q-6 -6 -12 -6t-8 2q-10 -7 -27 -41q-50 -33 -86 -53l-125 -58q-8 -4 -10 -4q-8 0 -14 12l-17 41q0 13 9 19q111 63 114 112q-66 24 -88 50l-12 14 q-6 3 -6 10q0 2 2 10t2 15q0 29 -14 49l2 -4l-13 12q-2 12 -12 29zM465 1362q0 59 20 59q3 0 10 -2t17 -2q26 0 48 21.5t22 46.5q0 7 -9.5 22t-9.5 19q0 10 12 18l17 8q41 16 80 19q80 -3 141 -53.5t61 -147.5v-27q0 -27 -9 -62.5t-25 -35.5q-5 0 -9 4l-30 17q20 -53 20 -64 q0 -8 -2 -12q-67 -84 -155 -140.5t-150 -56.5q-8 0 -14 13l-15 26q-2 2 -2 8q0 10 13 17q110 49 110 110q-16 6 -34.5 18t-18.5 21q0 5 6 16t12 17l-30 23q-17 -17 -29 -17q-17 0 -30 39t-17 78z" />
<glyph unicode="&#x201e;" horiz-adv-x="983" d="M61 184q4 91 63 146.5t148 60.5q19 -7 29 -15t12.5 -14t6 -24.5t6.5 -30.5q2 2 10 16t17.5 25.5t15.5 11.5q4 0 12 -4q4 -3 17.5 -13.5t17 -13.5l14 -12t13 -14t9.5 -15t9 -18.5t5 -21t4 -26.5t1 -32v-26q0 -21 -2 -31q-2 -26 -16.5 -63t-28.5 -37l-29 -6q0 -5 3 -13.5 t3 -13.5q0 -8 -4 -10l-14 -17q-164 -157 -274 -157q-11 0 -13 10l-14 27q-2 2 -2 8q0 10 12 16q111 49 111 111v2q-55 23 -82 53h-2q-6 6 -6 14q0 5 13.5 21t33 37t26.5 30q-16 -3 -49 -7t-49 -7q-8 0 -15 6t-7 13v4q-5 25 -5 30zM516 184q4 91 63 146.5t148 60.5 q19 -7 29 -15t12 -14.5t5 -24.5t7 -30q2 2 10 16t17.5 25.5t15.5 11.5q5 0 13 -4q4 -3 17.5 -13.5t17 -13.5l14 -12t13 -14t9.5 -15t9 -18.5t5 -21t4 -26.5t1 -32v-26q0 -21 -2 -31q-2 -26 -16.5 -63t-28.5 -37l-29 -6q0 -5 3 -13.5t3 -13.5q0 -8 -4 -10l-14 -17 q-164 -157 -275 -157q-9 0 -12 10l-14 27q-2 2 -2 8q0 10 12 16q110 49 110 111v2q-55 23 -82 53h-2q-6 6 -6 14q0 5 13.5 21t33.5 37t27 30q-16 -3 -49 -7t-49 -7q-8 0 -15.5 6t-7.5 13v4q-4 20 -4 30z" />
<glyph unicode="&#x2022;" horiz-adv-x="954" d="M80 688v29q0 163 117 280l26 27q6 6 15 6q5 0 28 -23t52 -54t42 -42v68q0 9 -1 28.5t-1 28.5q0 38 17.5 58t70.5 20h35q197 -15 283 -113q108 -126 108 -299v-16q0 -59 -38 -154.5t-80 -95.5q-8 0 -15 13l-45 75q-4 -16 -10 -51.5t-11 -57t-17 -42t-29 -23.5 q-83 -33 -152 -33q-77 0 -156 37l-26 13q-10 3 -10 14q-7 69 -65 143.5t-122 106.5q-16 5 -16 57z" />
<glyph unicode="&#x2026;" horiz-adv-x="3364" d="M504 182q0 5 15.5 19t38.5 33t34 30q-35 35 -35 49q0 5 2 9l4 6q70 63 135 63h15q47 0 82 -14h-2q57 -20 57 -41v-74q0 -15 4 -43q6 7 19.5 19t23.5 12q23 0 23 -66v-14q0 -65 -51.5 -123.5t-106.5 -58.5q-6 0 -12.5 6t-13.5 16.5t-11 14.5l-27 -17v-6q0 -18 -16 -18 q-48 0 -93.5 38t-66.5 84q-18 40 -18 76zM1473 182q0 5 15.5 19t38.5 33t34 30q-35 35 -35 49q0 5 2 9l4 6q70 63 135 63h14q47 0 82 -14h-2q58 -20 58 -41v-74q0 -15 4 -43q6 7 19.5 19t23.5 12q22 0 22 -66v-14q0 -65 -51 -123.5t-106 -58.5q-6 0 -12.5 6t-13.5 16.5 t-11 14.5l-27 -17v-6q0 -18 -16 -18q-48 0 -93.5 38t-66.5 84q-18 40 -18 76zM2439 182q0 5 15.5 19t38.5 33t34 30q-35 35 -35 49q0 5 2 9l5 6q70 63 135 63h14q47 0 82 -14h-2q57 -20 57 -41v-74q0 -15 4 -43l6.5 6.5l8.5 8.5t8.5 7.5t10 6.5t9.5 2q23 0 23 -66v-14 q0 -65 -51.5 -123.5t-106.5 -58.5q-6 0 -12.5 6t-13.5 16.5t-11 14.5l-26 -17v-6q0 -18 -17 -18q-48 0 -93 38t-66 84q-19 43 -19 76z" />
<glyph unicode="&#x202f;" horiz-adv-x="380" />
<glyph unicode="&#x2039;" horiz-adv-x="346" d="M33 672v4l12 135q0 11 6 14l25 19q1 0 5.5 -3.5t8.5 -4.5v8q0 11 8 14l99 72q1 -2 5 -2t5 -2q0 13 8 16l74 53l4 2q10 0 10 -16l8 -117q0 -11 -6 -14l-141 -88l135 -121q4 -4 4 -16l10 -117q0 -21 -10 -21q-4 0 -4 2l-102 66q-4 3 -19 88l-6 -10q-5 -7 -10.5 -18.5 t-9 -18t-7.5 -6.5l-4 2l-102 65q-6 6 -6 15z" />
<glyph unicode="&#x203a;" horiz-adv-x="346" d="M23 860l16 123q3 16 16 16q9 0 15 -6l63 -57q10 -70 23 -111q6 4 15 15.5t17 19.5t15 8q6 0 12 -6l78 -69l16 -101q0 -12 -6 -18l-221 -187q-8 -4 -10 -4q-12 0 -19 17l-24 127q0 7 10 14l156 88l-166 115q-6 9 -6 16z" />
<glyph unicode="&#x205f;" horiz-adv-x="475" />
<glyph unicode="&#x20ac;" horiz-adv-x="1210" d="M25 684q0 18 18 18l80 3l8 108l-51 4q-14 0 -17 17l-28 157q0 19 18 19l99 -4q19 118 78 214t137 160q4 4 10 4q8 0 12 -4h8q10 0 18.5 6.5t8.5 14.5v4q-2 2 -2 8q0 28 97 62t157 34q87 0 151 -30l60 -29q12 -3 12 -16v-11q3 13 14 13q3 0 7 -1l4 -1l32 -17v45 q0 19 19 19l184 -4q19 0 19 -21l-15 -250q0 -6 -11 -18t-11 -25q0 -9 8 -22t8 -21l-8 -159q0 -17 -21 -17l-159 12q-9 0 -13 11q-52 78 -113.5 108.5t-150.5 30.5q-18 0 -51 -11.5t-51 -11.5q-18 2 -45 21l-19 26v-63q0 -8 -8.5 -15.5t-24.5 -18t-26 -19.5l-18 -17l346 -6 q15 0 18 -14l-68 -191q0 -18 -18 -18l-252 14q-18 3 -18 17q0 6 2 8l2 8l-33 16q-10 3 -27.5 10.5t-27.5 8.5v-37q0 -18 -17 -18h-18v-19q0 -15 4 -47q-2 0 -2 -16l340 14q15 0 18 -16l-32 -211q0 -19 -19 -19l-94 2q-15 0 -18 13l-31 86q-1 -4 -4 -12.5t-5 -14t-5 -14.5 t-5.5 -15t-6 -13t-6.5 -12t-6 -9.5t-6.5 -6.5t-6.5 -2l-56 2q6 -26 21 -26q4 0 12 3t12 3q9 0 30.5 -16.5t41.5 -35t21 -18.5v2q49 -24 94 -24q67 0 135 22v-2q14 2 63 27l11 -4l2 6q5 10 12 12q1 0 2 1t2 1h-2l6 2h-6q24 16 57 54t55.5 67t24.5 29l164 12q21 0 21 -20 q-18 -179 -36 -212q-7 -12 -14 -12h-4q-39 -39 -39 -65q0 -10 7.5 -21.5t7.5 -15.5q0 -30 -74 -104l-47 -46q-9 -6 -16 -6q-9 0 -15 13q-7 -4 -22 -31q6 -3 6 -12q0 -8 -20.5 -25t-45.5 -31h2q-70 -55 -164 -55h-20q-68 0 -147.5 25t-133.5 75q-6 3 -6 15v6q0 19 -14.5 32 t-34.5 13q-32 0 -99 118.5t-85 196.5l2 -2l-19 53l-100 5q-18 0 -18 18z" />
<glyph unicode="&#x2122;" horiz-adv-x="1294" d="M45 1378v37q0 10 8 10l443 21q8 0 8 -8l2 -37q-1 -4 -6.5 -15t-5.5 -16h8q5 0 8 -8l16 -205q0 -10 -10 -10h-14q-3 0 -11.5 12t-13.5 15q0 -3 2 -9.5t2 -9.5q0 -8 -10 -8l-35 2q-10 0 -10 8l2 76l-14 -2q-6 0 -11 10q-2 -2 -2.5 -5t-2 -4t-5.5 -1l-45 -4l4 -140 q0 -2 -3.5 -7.5t-9 -13.5t-7.5 -13h14q8 0 8 -9l4 -176l82 15q11 0 11 -9l-2 -26q0 -1 -5 -7.5t-11 -16t-9 -15.5q2 0 6.5 1t7.5 1q8 0 8 -8l-2 -117q0 -8 -8 -8l-100 -4q-8 0 -8 10v4q-4 -1 -11 -7.5t-10 -6.5l-157 -8q-9 0 -9 10v72q6 12 6 20t-6 20l2 80q0 11 11 11 l96 -7l-4 58q0 8 11 8.5t15 7.5q-2 5 -15 15t-13 14l-8 231l-25 6q-6 3 -6 11v20l-2 -2q-12 -20 -19 -20l-22 4l2 -70q0 -8 -8 -8l-90 -4q-11 0 -11 8l-8 182q0 4 2 6.5t5 4t9 5.5t11 9q-1 1 -11.5 5t-14 7t-3.5 8zM545 868q0 9 10 9l88 4v37q0 3 3.5 8.5t4.5 7.5l-6 4 q-4 0 -4 8l-2 137q0 11 8 11h2l-12 12v121l-72 2q-10 0 -10 8v104q0 5 4 9l16 14h-10q-10 0 -10 8l2 58q0 8 8 8l72 -6q8 -4 8 -9q0 -4 -2 -6q6 -2 25 -2q17 0 32 10q50 -6 79.5 -32.5t40 -69t13.5 -85.5t6.5 -95t12.5 -84l-8 -15q0 -3 -2.5 -7.5t-3.5 -6.5h2l4 4q4 4 8 4 q5 0 8 -6l8 -16q12 -25 31 -25h2q34 3 44.5 50.5t16.5 132.5t21 135h2q0 8 8 8l19 -6q2 0 4 -2v10l-4 6q-2 14 -4 18l-7 15q24 37 48.5 54t68.5 18l119 2q10 0 10 -11l-2 -22q0 -4 -5 -9.5t-14 -13t-12 -10.5q18 6 21 6q10 0 10 -8l-4 -133q0 -10 -8 -10l-31 4q-4 0 -6 2 l-35 4l-2 -39q-8 -16 -8 -23q0 -14 8 -30l-6 -185q-6 -12 -6 -26q0 -13 6 -25l-2 -33h23q8 0 8 -8v-18q2 1 13 14.5t17 13.5h33q8 0 8 -8l-2 -24l-8 -21q6 0 6 -10l-6 -113q0 -8 -8 -8l-98 -10q-3 0 -8 2.5t-5 5.5l-2 -6q-4 -4 -8 -4l-121 -14q-8 0 -8 10v151q0 3 2 5t6 5 t6 5h-6q-8 0 -8 8v26q0 9 8 9l74 2l8 178q0 5 17 12h-9q-8 0 -8 10l6 123q-20 8 -28 8q-7 0 -13 -6h2q-12 -18 -18 -59l-10 -88q0 -10 -8 -10h-2l6 -11l-9 -67q-4 -39 -30 -64.5t-58 -25.5h-10q-10 0 -10 8v4h-2q-3 -10 -8 -10q-23 0 -39.5 16t-26 46.5t-14.5 58t-10 69.5 t-9 62l4 18l-4 2q-1 0 -7 16.5t-14 33.5t-15 18l4 -355l51 9q8 0 8 -11l-2 -32q0 -4 -5.5 -9.5t-13 -12.5t-10.5 -11q3 0 10.5 5t10.5 5q8 0 8 -10l-2 -109q0 -8 -8 -8l-105 -14q-10 0 -10 10q-8 -4 -16 -12l-90 -13q-6 0 -9 9l-12 100q0 4 7 8t16 7.5t12 6.5q-39 13 -39 21 z" />
<glyph unicode="&#x25fc;" horiz-adv-x="942" d="M0 0v942h942v-942h-942z" />
</font>
</defs>
</svg>
